<svg xmlns="http://www.w3.org/2000/svg" xmlns:xlink="http://www.w3.org/1999/xlink" width="500" zoomAndPan="magnify" viewBox="0 0 375 374.999991" height="500" preserveAspectRatio="xMidYMid meet" version="1.0"><defs><clipPath id="d24cefeb69"><path d="M 7.257812 7.257812 L 368 7.257812 L 368 368 L 7.257812 368 Z M 7.257812 7.257812 " clip-rule="nonzero"/></clipPath></defs><g clip-path="url(#d24cefeb69)"><path fill="#ffffff" d="M 342.503906 50.515625 L 310.0625 50.515625 L 310.0625 14.46875 C 310.0625 10.488281 306.839844 7.257812 302.851562 7.257812 C 298.863281 7.257812 295.640625 10.488281 295.640625 14.46875 L 295.640625 50.515625 L 79.355469 50.515625 L 79.355469 14.46875 C 79.355469 10.488281 76.125 7.257812 72.144531 7.257812 C 68.164062 7.257812 64.933594 10.488281 64.933594 14.46875 L 64.933594 50.515625 L 32.492188 50.515625 C 18.578125 50.515625 7.257812 61.835938 7.257812 75.75 L 7.257812 342.503906 C 7.257812 356.417969 18.578125 367.738281 32.492188 367.738281 L 342.503906 367.738281 C 356.417969 367.738281 367.738281 356.417969 367.738281 342.503906 L 367.738281 75.75 C 367.738281 61.835938 356.417969 50.515625 342.503906 50.515625 Z M 32.492188 64.933594 L 64.933594 64.933594 L 64.933594 86.5625 C 64.933594 90.542969 68.164062 93.773438 72.144531 93.773438 C 76.125 93.773438 79.355469 90.542969 79.355469 86.5625 L 79.355469 64.933594 L 295.640625 64.933594 L 295.640625 86.5625 C 295.640625 90.542969 298.863281 93.773438 302.851562 93.773438 C 306.839844 93.773438 310.0625 90.542969 310.0625 86.5625 L 310.0625 64.933594 L 342.503906 64.933594 C 348.46875 64.933594 353.320312 69.785156 353.320312 75.75 L 353.320312 122.613281 L 21.675781 122.613281 L 21.675781 75.75 C 21.675781 69.785156 26.53125 64.933594 32.492188 64.933594 Z M 342.503906 353.320312 L 32.492188 353.320312 C 26.53125 353.320312 21.675781 348.46875 21.675781 342.503906 L 21.675781 137.03125 L 353.320312 137.03125 L 353.320312 342.503906 C 353.320312 348.46875 348.46875 353.320312 342.503906 353.320312 Z M 342.503906 353.320312 " fill-opacity="1" fill-rule="nonzero"/></g><path fill="#ffffff" d="M 57.726562 173.078125 L 86.5625 173.078125 L 86.5625 201.917969 L 57.726562 201.917969 Z M 57.726562 173.078125 " fill-opacity="1" fill-rule="nonzero"/><path fill="#ffffff" d="M 115.402344 173.078125 L 144.242188 173.078125 L 144.242188 201.917969 L 115.402344 201.917969 Z M 115.402344 173.078125 " fill-opacity="1" fill-rule="nonzero"/><path fill="#ffffff" d="M 173.078125 173.078125 L 201.917969 173.078125 L 201.917969 201.917969 L 173.078125 201.917969 Z M 173.078125 173.078125 " fill-opacity="1" fill-rule="nonzero"/><path fill="#ffffff" d="M 230.757812 173.078125 L 259.59375 173.078125 L 259.59375 201.917969 L 230.757812 201.917969 Z M 230.757812 173.078125 " fill-opacity="1" fill-rule="nonzero"/><path fill="#ffffff" d="M 288.433594 173.078125 L 317.269531 173.078125 L 317.269531 201.917969 L 288.433594 201.917969 Z M 288.433594 173.078125 " fill-opacity="1" fill-rule="nonzero"/><path fill="#ffffff" d="M 57.726562 230.757812 L 86.5625 230.757812 L 86.5625 259.59375 L 57.726562 259.59375 Z M 57.726562 230.757812 " fill-opacity="1" fill-rule="nonzero"/><path fill="#ffffff" d="M 115.402344 230.757812 L 144.242188 230.757812 L 144.242188 259.59375 L 115.402344 259.59375 Z M 115.402344 230.757812 " fill-opacity="1" fill-rule="nonzero"/><path fill="#ffffff" d="M 173.078125 230.757812 L 201.917969 230.757812 L 201.917969 259.59375 L 173.078125 259.59375 Z M 173.078125 230.757812 " fill-opacity="1" fill-rule="nonzero"/><path fill="#ffffff" d="M 230.757812 230.757812 L 259.59375 230.757812 L 259.59375 259.59375 L 230.757812 259.59375 Z M 230.757812 230.757812 " fill-opacity="1" fill-rule="nonzero"/><path fill="#ffffff" d="M 288.433594 230.757812 L 317.269531 230.757812 L 317.269531 259.59375 L 288.433594 259.59375 Z M 288.433594 230.757812 " fill-opacity="1" fill-rule="nonzero"/><path fill="#ffffff" d="M 57.726562 288.433594 L 86.5625 288.433594 L 86.5625 317.269531 L 57.726562 317.269531 Z M 57.726562 288.433594 " fill-opacity="1" fill-rule="nonzero"/><path fill="#ffffff" d="M 115.402344 288.433594 L 144.242188 288.433594 L 144.242188 317.269531 L 115.402344 317.269531 Z M 115.402344 288.433594 " fill-opacity="1" fill-rule="nonzero"/><path fill="#ffffff" d="M 173.078125 288.433594 L 201.917969 288.433594 L 201.917969 317.269531 L 173.078125 317.269531 Z M 173.078125 288.433594 " fill-opacity="1" fill-rule="nonzero"/><path fill="#ffffff" d="M 230.757812 288.433594 L 259.59375 288.433594 L 259.59375 317.269531 L 230.757812 317.269531 Z M 230.757812 288.433594 " fill-opacity="1" fill-rule="nonzero"/><path fill="#ffffff" d="M 288.433594 288.433594 L 317.269531 288.433594 L 317.269531 317.269531 L 288.433594 317.269531 Z M 288.433594 288.433594 " fill-opacity="1" fill-rule="nonzero"/></svg>