<svg xmlns="http://www.w3.org/2000/svg" xmlns:xlink="http://www.w3.org/1999/xlink" width="500" zoomAndPan="magnify" viewBox="0 0 375 374.999991" height="500" preserveAspectRatio="xMidYMid meet" version="1.0"><defs><clipPath id="e58c624377"><path d="M 6.484375 68.3125 L 368.476562 68.3125 L 368.476562 306.664062 L 6.484375 306.664062 Z M 6.484375 68.3125 " clip-rule="nonzero"/></clipPath></defs><g clip-path="url(#e58c624377)"><path fill="#ffffff" d="M 36.550781 68.308594 L 338.480469 68.308594 C 346.472656 68.308594 354.074219 71.484375 359.722656 77.132812 C 365.371094 82.785156 368.550781 90.382812 368.550781 98.375 L 368.550781 276.597656 C 368.550781 284.585938 365.371094 292.1875 359.722656 297.839844 C 354.074219 303.488281 346.472656 306.664062 338.480469 306.664062 L 36.550781 306.664062 C 28.558594 306.664062 20.960938 303.488281 15.3125 297.839844 C 9.660156 292.1875 6.484375 284.585938 6.484375 276.597656 L 6.484375 98.375 C 6.484375 90.382812 9.660156 82.785156 15.3125 77.132812 C 20.960938 71.484375 28.558594 68.308594 36.550781 68.308594 Z M 338.480469 85.015625 L 36.550781 85.015625 C 33 85.015625 29.632812 86.441406 27.125 88.949219 C 24.617188 91.457031 23.195312 94.824219 23.195312 98.375 L 23.195312 276.597656 C 23.195312 280.148438 24.617188 283.511719 27.125 286.023438 C 29.632812 288.53125 33 289.953125 36.550781 289.953125 L 338.480469 289.953125 C 342.035156 289.953125 345.398438 288.53125 347.910156 286.023438 C 350.417969 283.511719 351.839844 280.148438 351.839844 276.597656 L 351.839844 98.375 C 351.839844 94.824219 350.417969 91.457031 347.910156 88.949219 C 345.398438 86.441406 342.035156 85.015625 338.480469 85.015625 " fill-opacity="1" fill-rule="evenodd"/></g><path fill="#ffffff" d="M 365.765625 120.636719 L 365.765625 164.609375 L 9.269531 164.609375 L 9.269531 115.070312 L 365.765625 115.070312 L 365.765625 120.636719 " fill-opacity="1" fill-rule="nonzero"/><path fill="#ffffff" d="M 68.859375 198.621094 C 72.898438 198.621094 76.789062 199.347656 80.398438 200.679688 C 80.71875 200.796875 81.03125 200.914062 81.34375 201.042969 C 79.972656 202.09375 78.664062 203.234375 77.429688 204.472656 C 70.097656 211.804688 66.007812 221.671875 66.007812 232.042969 C 66.007812 242.410156 70.097656 252.28125 77.429688 259.613281 C 78.664062 260.851562 79.972656 261.992188 81.34375 263.042969 C 81.03125 263.167969 80.71875 263.285156 80.398438 263.40625 C 76.789062 264.738281 72.898438 265.460938 68.859375 265.460938 C 59.628906 265.460938 51.273438 261.722656 45.226562 255.675781 C 39.175781 249.625 35.433594 241.273438 35.433594 232.042969 C 35.433594 222.816406 39.175781 214.457031 45.226562 208.410156 C 51.273438 202.363281 59.628906 198.621094 68.859375 198.621094 " fill-opacity="1" fill-rule="nonzero"/><path fill="#ffffff" d="M 81.367188 208.410156 C 87.417969 202.363281 95.773438 198.621094 105 198.621094 C 114.230469 198.621094 122.585938 202.363281 128.632812 208.410156 C 134.679688 214.457031 138.425781 222.816406 138.425781 232.042969 C 138.425781 241.273438 134.679688 249.625 128.632812 255.675781 C 122.585938 261.722656 114.230469 265.460938 105 265.460938 C 95.773438 265.460938 87.417969 261.722656 81.367188 255.675781 C 75.320312 249.625 71.578125 241.269531 71.578125 232.042969 C 71.578125 222.816406 75.320312 214.457031 81.367188 208.410156 " fill-opacity="1" fill-rule="nonzero"/><path fill="#ffffff" d="M 169.078125 223.6875 L 204.765625 223.6875 C 209.109375 223.6875 212.632812 227.429688 212.632812 232.042969 C 212.632812 236.65625 209.109375 240.398438 204.765625 240.398438 L 169.078125 240.398438 C 164.734375 240.398438 161.210938 236.65625 161.210938 232.042969 C 161.210938 227.429688 164.734375 223.6875 169.078125 223.6875 Z M 231.238281 223.6875 L 266.921875 223.6875 C 271.265625 223.6875 274.792969 227.429688 274.792969 232.042969 C 274.792969 236.65625 271.265625 240.398438 266.921875 240.398438 L 231.238281 240.398438 C 226.890625 240.398438 223.371094 236.65625 223.371094 232.042969 C 223.371094 227.429688 226.890625 223.6875 231.238281 223.6875 Z M 293.394531 223.6875 L 329.078125 223.6875 C 333.425781 223.6875 336.949219 227.429688 336.949219 232.042969 C 336.949219 236.65625 333.425781 240.398438 329.078125 240.398438 L 293.394531 240.398438 C 289.050781 240.398438 285.527344 236.65625 285.527344 232.042969 C 285.527344 227.429688 289.050781 223.6875 293.394531 223.6875 " fill-opacity="1" fill-rule="evenodd"/></svg>