<svg xmlns="http://www.w3.org/2000/svg" xmlns:xlink="http://www.w3.org/1999/xlink" width="793" zoomAndPan="magnify" viewBox="0 0 595.5 842.249979" height="1122" preserveAspectRatio="xMidYMid meet" version="1.0"><defs><clipPath id="af997a54ee"><path d="M 196 279.464844 L 579 279.464844 L 579 561.960938 L 196 561.960938 Z M 196 279.464844 " clip-rule="nonzero"/></clipPath><clipPath id="97cbe3078c"><path d="M 15.175781 380 L 177 380 L 177 401 L 15.175781 401 Z M 15.175781 380 " clip-rule="nonzero"/></clipPath><clipPath id="c2b42f28cc"><path d="M 196 408 L 350 408 L 350 561.960938 L 196 561.960938 Z M 196 408 " clip-rule="nonzero"/></clipPath><clipPath id="4136dcde08"><path d="M 425 408 L 579 408 L 579 561.960938 L 425 561.960938 Z M 425 408 " clip-rule="nonzero"/></clipPath></defs><g clip-path="url(#af997a54ee)"><path fill="#13334d" d="M 568.53125 561.421875 L 206.335938 561.421875 C 205.675781 561.421875 205.019531 561.355469 204.371094 561.226562 C 203.726562 561.097656 203.097656 560.910156 202.484375 560.65625 C 201.875 560.402344 201.296875 560.09375 200.746094 559.726562 C 200.195312 559.359375 199.6875 558.941406 199.222656 558.476562 C 198.753906 558.007812 198.335938 557.5 197.96875 556.949219 C 197.601562 556.402344 197.292969 555.820312 197.039062 555.210938 C 196.789062 554.601562 196.597656 553.972656 196.46875 553.324219 C 196.339844 552.675781 196.273438 552.019531 196.273438 551.359375 L 196.273438 289.773438 C 196.273438 289.113281 196.339844 288.460938 196.46875 287.8125 C 196.597656 287.164062 196.789062 286.535156 197.039062 285.925781 C 197.292969 285.3125 197.601562 284.734375 197.96875 284.183594 C 198.335938 283.636719 198.753906 283.128906 199.222656 282.660156 C 199.6875 282.191406 200.195312 281.777344 200.746094 281.410156 C 201.296875 281.042969 201.875 280.730469 202.484375 280.480469 C 203.097656 280.226562 203.726562 280.035156 204.371094 279.90625 C 205.019531 279.777344 205.675781 279.714844 206.335938 279.714844 L 568.53125 279.714844 C 569.191406 279.714844 569.847656 279.777344 570.496094 279.90625 C 571.144531 280.035156 571.773438 280.226562 572.382812 280.480469 C 572.992188 280.730469 573.574219 281.042969 574.121094 281.410156 C 574.671875 281.777344 575.179688 282.191406 575.648438 282.660156 C 576.113281 283.125 576.53125 283.636719 576.898438 284.183594 C 577.265625 284.734375 577.574219 285.3125 577.828125 285.925781 C 578.082031 286.535156 578.269531 287.164062 578.398438 287.8125 C 578.527344 288.460938 578.59375 289.113281 578.59375 289.773438 L 578.59375 551.359375 C 578.59375 552.019531 578.527344 552.675781 578.398438 553.324219 C 578.269531 553.972656 578.082031 554.601562 577.828125 555.210938 C 577.574219 555.820312 577.265625 556.402344 576.898438 556.949219 C 576.53125 557.5 576.113281 558.007812 575.648438 558.476562 C 575.179688 558.941406 574.671875 559.359375 574.121094 559.726562 C 573.574219 560.09375 572.992188 560.402344 572.382812 560.65625 C 571.773438 560.910156 571.144531 561.097656 570.496094 561.226562 C 569.847656 561.355469 569.191406 561.421875 568.53125 561.421875 Z M 216.398438 541.300781 L 558.472656 541.300781 L 558.472656 299.835938 L 216.398438 299.835938 Z M 216.398438 541.300781 " fill-opacity="1" fill-rule="nonzero"/></g><path fill="#13334d" d="M 166.089844 521.175781 L 105.726562 521.175781 C 105.066406 521.175781 104.410156 521.113281 103.761719 520.984375 C 103.113281 520.855469 102.484375 520.664062 101.875 520.410156 C 101.265625 520.160156 100.683594 519.847656 100.136719 519.480469 C 99.585938 519.113281 99.078125 518.699219 98.609375 518.230469 C 98.144531 517.761719 97.726562 517.253906 97.359375 516.707031 C 96.992188 516.15625 96.683594 515.578125 96.429688 514.964844 C 96.175781 514.355469 95.988281 513.726562 95.859375 513.078125 C 95.730469 512.429688 95.664062 511.777344 95.664062 511.117188 C 95.664062 510.457031 95.730469 509.800781 95.859375 509.152344 C 95.988281 508.503906 96.175781 507.875 96.429688 507.265625 C 96.683594 506.65625 96.992188 506.074219 97.359375 505.527344 C 97.726562 504.976562 98.144531 504.46875 98.609375 504.003906 C 99.078125 503.535156 99.585938 503.117188 100.136719 502.75 C 100.683594 502.382812 101.265625 502.074219 101.875 501.820312 C 102.484375 501.570312 103.113281 501.378906 103.761719 501.25 C 104.410156 501.121094 105.066406 501.054688 105.726562 501.054688 L 166.089844 501.054688 C 166.753906 501.054688 167.40625 501.121094 168.054688 501.25 C 168.703125 501.378906 169.332031 501.570312 169.941406 501.820312 C 170.550781 502.074219 171.132812 502.382812 171.679688 502.75 C 172.230469 503.117188 172.738281 503.535156 173.207031 504.003906 C 173.671875 504.46875 174.089844 504.976562 174.457031 505.527344 C 174.824219 506.074219 175.132812 506.65625 175.386719 507.265625 C 175.640625 507.875 175.832031 508.503906 175.960938 509.152344 C 176.089844 509.800781 176.152344 510.457031 176.152344 511.117188 C 176.152344 511.777344 176.089844 512.429688 175.960938 513.078125 C 175.832031 513.726562 175.640625 514.355469 175.386719 514.964844 C 175.132812 515.578125 174.824219 516.15625 174.457031 516.707031 C 174.089844 517.253906 173.671875 517.761719 173.207031 518.230469 C 172.738281 518.699219 172.230469 519.113281 171.679688 519.480469 C 171.132812 519.847656 170.550781 520.160156 169.941406 520.410156 C 169.332031 520.664062 168.703125 520.855469 168.054688 520.984375 C 167.40625 521.113281 166.753906 521.175781 166.089844 521.175781 Z M 166.089844 521.175781 " fill-opacity="1" fill-rule="nonzero"/><path fill="#13334d" d="M 166.089844 460.8125 L 65.480469 460.8125 C 64.820312 460.8125 64.167969 460.746094 63.519531 460.617188 C 62.871094 460.488281 62.242188 460.296875 61.632812 460.046875 C 61.019531 459.792969 60.441406 459.484375 59.890625 459.117188 C 59.34375 458.75 58.835938 458.332031 58.367188 457.863281 C 57.898438 457.398438 57.484375 456.890625 57.117188 456.339844 C 56.75 455.789062 56.4375 455.210938 56.1875 454.601562 C 55.933594 453.988281 55.742188 453.359375 55.613281 452.714844 C 55.484375 452.066406 55.421875 451.410156 55.421875 450.75 C 55.421875 450.089844 55.484375 449.433594 55.613281 448.789062 C 55.742188 448.140625 55.933594 447.511719 56.1875 446.898438 C 56.4375 446.289062 56.75 445.710938 57.117188 445.160156 C 57.484375 444.613281 57.898438 444.101562 58.367188 443.636719 C 58.835938 443.167969 59.34375 442.75 59.890625 442.386719 C 60.441406 442.019531 61.019531 441.707031 61.632812 441.457031 C 62.242188 441.203125 62.871094 441.011719 63.519531 440.882812 C 64.167969 440.753906 64.820312 440.6875 65.480469 440.6875 L 166.089844 440.6875 C 166.753906 440.6875 167.40625 440.753906 168.054688 440.882812 C 168.703125 441.011719 169.332031 441.203125 169.941406 441.457031 C 170.550781 441.707031 171.132812 442.019531 171.679688 442.386719 C 172.230469 442.75 172.738281 443.167969 173.207031 443.636719 C 173.671875 444.101562 174.089844 444.613281 174.457031 445.160156 C 174.824219 445.710938 175.132812 446.289062 175.386719 446.898438 C 175.640625 447.511719 175.832031 448.140625 175.960938 448.789062 C 176.089844 449.433594 176.152344 450.089844 176.152344 450.75 C 176.152344 451.410156 176.089844 452.066406 175.960938 452.714844 C 175.832031 453.359375 175.640625 453.988281 175.386719 454.601562 C 175.132812 455.210938 174.824219 455.789062 174.457031 456.339844 C 174.089844 456.890625 173.671875 457.398438 173.207031 457.863281 C 172.738281 458.332031 172.230469 458.75 171.679688 459.117188 C 171.132812 459.484375 170.550781 459.792969 169.941406 460.046875 C 169.332031 460.296875 168.703125 460.488281 168.054688 460.617188 C 167.40625 460.746094 166.753906 460.8125 166.089844 460.8125 Z M 166.089844 460.8125 " fill-opacity="1" fill-rule="nonzero"/><path fill="#13334d" d="M 166.089844 340.078125 L 85.601562 340.078125 C 84.941406 340.078125 84.289062 340.015625 83.640625 339.886719 C 82.992188 339.757812 82.363281 339.566406 81.753906 339.3125 C 81.144531 339.058594 80.5625 338.75 80.015625 338.382812 C 79.464844 338.015625 78.957031 337.597656 78.488281 337.132812 C 78.023438 336.664062 77.605469 336.15625 77.238281 335.609375 C 76.871094 335.058594 76.5625 334.480469 76.308594 333.867188 C 76.054688 333.257812 75.863281 332.628906 75.734375 331.980469 C 75.605469 331.332031 75.542969 330.679688 75.542969 330.019531 C 75.542969 329.359375 75.605469 328.703125 75.734375 328.054688 C 75.863281 327.40625 76.054688 326.777344 76.308594 326.167969 C 76.5625 325.558594 76.871094 324.976562 77.238281 324.429688 C 77.605469 323.878906 78.023438 323.371094 78.488281 322.902344 C 78.957031 322.4375 79.464844 322.019531 80.015625 321.652344 C 80.5625 321.285156 81.144531 320.976562 81.753906 320.722656 C 82.363281 320.46875 82.992188 320.277344 83.640625 320.152344 C 84.289062 320.023438 84.941406 319.957031 85.601562 319.957031 L 166.089844 319.957031 C 166.753906 319.957031 167.40625 320.023438 168.054688 320.152344 C 168.703125 320.277344 169.332031 320.46875 169.941406 320.722656 C 170.550781 320.976562 171.132812 321.285156 171.679688 321.652344 C 172.230469 322.019531 172.738281 322.4375 173.207031 322.902344 C 173.671875 323.371094 174.089844 323.878906 174.457031 324.429688 C 174.824219 324.976562 175.132812 325.558594 175.386719 326.167969 C 175.640625 326.777344 175.832031 327.40625 175.960938 328.054688 C 176.089844 328.703125 176.152344 329.359375 176.152344 330.019531 C 176.152344 330.679688 176.089844 331.332031 175.960938 331.980469 C 175.832031 332.628906 175.640625 333.257812 175.386719 333.867188 C 175.132812 334.480469 174.824219 335.058594 174.457031 335.609375 C 174.089844 336.15625 173.671875 336.664062 173.207031 337.132812 C 172.738281 337.597656 172.230469 338.015625 171.679688 338.382812 C 171.132812 338.75 170.550781 339.058594 169.941406 339.3125 C 169.332031 339.566406 168.703125 339.757812 168.054688 339.886719 C 167.40625 340.015625 166.753906 340.078125 166.089844 340.078125 Z M 166.089844 340.078125 " fill-opacity="1" fill-rule="nonzero"/><g clip-path="url(#97cbe3078c)"><path fill="#13334d" d="M 166.089844 400.445312 L 25.238281 400.445312 C 24.578125 400.445312 23.921875 400.378906 23.273438 400.25 C 22.625 400.121094 21.996094 399.933594 21.386719 399.679688 C 20.777344 399.425781 20.195312 399.117188 19.648438 398.75 C 19.097656 398.382812 18.589844 397.964844 18.125 397.5 C 17.65625 397.03125 17.238281 396.523438 16.871094 395.972656 C 16.503906 395.425781 16.195312 394.84375 15.941406 394.234375 C 15.6875 393.625 15.5 392.996094 15.371094 392.347656 C 15.242188 391.699219 15.175781 391.042969 15.175781 390.382812 C 15.175781 389.722656 15.242188 389.070312 15.371094 388.421875 C 15.5 387.773438 15.6875 387.144531 15.941406 386.535156 C 16.195312 385.921875 16.503906 385.34375 16.871094 384.792969 C 17.238281 384.246094 17.65625 383.738281 18.125 383.269531 C 18.589844 382.804688 19.097656 382.386719 19.648438 382.019531 C 20.195312 381.652344 20.777344 381.34375 21.386719 381.089844 C 21.996094 380.835938 22.625 380.644531 23.273438 380.515625 C 23.921875 380.386719 24.578125 380.324219 25.238281 380.324219 L 166.089844 380.324219 C 166.753906 380.324219 167.40625 380.386719 168.054688 380.515625 C 168.703125 380.644531 169.332031 380.835938 169.941406 381.089844 C 170.550781 381.34375 171.132812 381.652344 171.679688 382.019531 C 172.230469 382.386719 172.738281 382.804688 173.207031 383.269531 C 173.671875 383.738281 174.089844 384.246094 174.457031 384.792969 C 174.824219 385.34375 175.132812 385.921875 175.386719 386.535156 C 175.640625 387.144531 175.832031 387.773438 175.960938 388.421875 C 176.089844 389.070312 176.152344 389.722656 176.152344 390.382812 C 176.152344 391.042969 176.089844 391.699219 175.960938 392.347656 C 175.832031 392.996094 175.640625 393.625 175.386719 394.234375 C 175.132812 394.84375 174.824219 395.425781 174.457031 395.972656 C 174.089844 396.523438 173.671875 397.03125 173.207031 397.5 C 172.738281 397.964844 172.230469 398.382812 171.679688 398.75 C 171.132812 399.117188 170.550781 399.425781 169.941406 399.679688 C 169.332031 399.933594 168.703125 400.121094 168.054688 400.25 C 167.40625 400.378906 166.753906 400.445312 166.089844 400.445312 Z M 166.089844 400.445312 " fill-opacity="1" fill-rule="nonzero"/></g><path fill="#13334d" d="M 387.433594 460.8125 C 385.402344 460.8125 383.542969 460.246094 381.851562 459.121094 L 200.753906 338.390625 C 200.199219 338.023438 199.683594 337.609375 199.210938 337.144531 C 198.734375 336.679688 198.3125 336.171875 197.9375 335.621094 C 197.5625 335.074219 197.25 334.492188 196.988281 333.878906 C 196.730469 333.269531 196.535156 332.636719 196.402344 331.984375 C 196.269531 331.335938 196.199219 330.675781 196.199219 330.011719 C 196.195312 329.347656 196.257812 328.6875 196.382812 328.035156 C 196.511719 327.382812 196.703125 326.75 196.957031 326.136719 C 197.207031 325.523438 197.519531 324.9375 197.886719 324.386719 C 198.257812 323.832031 198.675781 323.320312 199.144531 322.851562 C 199.617188 322.382812 200.125 321.960938 200.679688 321.59375 C 201.234375 321.226562 201.816406 320.914062 202.429688 320.664062 C 203.046875 320.410156 203.679688 320.21875 204.332031 320.09375 C 204.984375 319.964844 205.640625 319.902344 206.304688 319.90625 C 206.972656 319.910156 207.628906 319.976562 208.28125 320.109375 C 208.929688 320.246094 209.5625 320.441406 210.175781 320.699219 C 210.785156 320.957031 211.367188 321.273438 211.917969 321.648438 L 387.433594 438.660156 L 562.953125 321.652344 C 563.5 321.292969 564.082031 320.988281 564.691406 320.742188 C 565.296875 320.496094 565.925781 320.3125 566.570312 320.1875 C 567.214844 320.066406 567.867188 320.007812 568.523438 320.011719 C 569.179688 320.015625 569.832031 320.082031 570.472656 320.214844 C 571.117188 320.347656 571.742188 320.539062 572.347656 320.792969 C 572.953125 321.046875 573.527344 321.359375 574.074219 321.726562 C 574.617188 322.09375 575.121094 322.507812 575.585938 322.972656 C 576.050781 323.4375 576.460938 323.945312 576.828125 324.492188 C 577.191406 325.039062 577.5 325.613281 577.75 326.222656 C 578.003906 326.828125 578.191406 327.453125 578.320312 328.097656 C 578.449219 328.742188 578.515625 329.390625 578.515625 330.046875 C 578.519531 330.703125 578.457031 331.355469 578.332031 332 C 578.203125 332.644531 578.015625 333.269531 577.769531 333.878906 C 577.519531 334.488281 577.214844 335.066406 576.855469 335.613281 C 576.492188 336.160156 576.082031 336.667969 575.621094 337.136719 C 575.160156 337.605469 574.65625 338.023438 574.113281 338.390625 L 393.015625 459.125 C 391.324219 460.25 389.464844 460.8125 387.433594 460.8125 Z M 387.433594 460.8125 " fill-opacity="1" fill-rule="nonzero"/><g clip-path="url(#c2b42f28cc)"><path fill="#13334d" d="M 206.335938 561.421875 C 205.339844 561.421875 204.367188 561.277344 203.414062 560.988281 C 202.464844 560.699219 201.574219 560.277344 200.746094 559.726562 C 199.921875 559.171875 199.191406 558.511719 198.558594 557.742188 C 197.929688 556.972656 197.421875 556.128906 197.042969 555.210938 C 196.660156 554.292969 196.421875 553.335938 196.324219 552.347656 C 196.226562 551.355469 196.277344 550.375 196.46875 549.398438 C 196.664062 548.421875 196.996094 547.496094 197.464844 546.617188 C 197.933594 545.742188 198.519531 544.949219 199.222656 544.246094 L 332.027344 411.441406 C 332.492188 410.960938 333 410.53125 333.546875 410.152344 C 334.097656 409.773438 334.679688 409.449219 335.292969 409.1875 C 335.90625 408.925781 336.542969 408.722656 337.195312 408.585938 C 337.847656 408.449219 338.507812 408.378906 339.175781 408.371094 C 339.84375 408.367188 340.507812 408.425781 341.164062 408.550781 C 341.820312 408.675781 342.457031 408.867188 343.074219 409.121094 C 343.691406 409.371094 344.28125 409.683594 344.835938 410.054688 C 345.390625 410.425781 345.90625 410.84375 346.378906 411.316406 C 346.851562 411.789062 347.273438 412.304688 347.640625 412.859375 C 348.011719 413.417969 348.324219 414.003906 348.574219 414.621094 C 348.828125 415.238281 349.019531 415.878906 349.144531 416.53125 C 349.269531 417.1875 349.332031 417.851562 349.324219 418.519531 C 349.320312 419.1875 349.246094 419.847656 349.109375 420.5 C 348.972656 421.15625 348.773438 421.789062 348.507812 422.402344 C 348.246094 423.015625 347.921875 423.597656 347.542969 424.148438 C 347.164062 424.699219 346.734375 425.203125 346.253906 425.667969 L 213.449219 558.472656 C 212.507812 559.417969 211.417969 560.148438 210.1875 560.65625 C 208.953125 561.167969 207.671875 561.421875 206.335938 561.421875 Z M 206.335938 561.421875 " fill-opacity="1" fill-rule="nonzero"/></g><g clip-path="url(#4136dcde08)"><path fill="#13334d" d="M 568.53125 561.421875 C 567.199219 561.421875 565.914062 561.167969 564.679688 560.65625 C 563.449219 560.148438 562.363281 559.417969 561.417969 558.472656 L 428.613281 425.667969 C 428.132812 425.203125 427.703125 424.699219 427.324219 424.148438 C 426.945312 423.597656 426.621094 423.015625 426.359375 422.402344 C 426.09375 421.789062 425.894531 421.15625 425.757812 420.5 C 425.621094 419.847656 425.546875 419.1875 425.542969 418.519531 C 425.535156 417.851562 425.597656 417.1875 425.722656 416.53125 C 425.847656 415.878906 426.039062 415.238281 426.292969 414.621094 C 426.542969 414.003906 426.855469 413.417969 427.226562 412.859375 C 427.597656 412.304688 428.015625 411.789062 428.488281 411.316406 C 428.960938 410.84375 429.476562 410.425781 430.03125 410.054688 C 430.589844 409.683594 431.175781 409.371094 431.792969 409.121094 C 432.410156 408.867188 433.050781 408.675781 433.703125 408.550781 C 434.359375 408.425781 435.023438 408.363281 435.691406 408.371094 C 436.359375 408.375 437.019531 408.449219 437.671875 408.585938 C 438.328125 408.722656 438.960938 408.921875 439.574219 409.1875 C 440.1875 409.449219 440.769531 409.773438 441.320312 410.152344 C 441.867188 410.53125 442.375 410.960938 442.839844 411.441406 L 575.644531 544.246094 C 576.347656 544.949219 576.933594 545.742188 577.402344 546.617188 C 577.871094 547.496094 578.203125 548.421875 578.398438 549.398438 C 578.59375 550.375 578.640625 551.355469 578.542969 552.347656 C 578.445312 553.335938 578.207031 554.292969 577.824219 555.210938 C 577.445312 556.128906 576.9375 556.972656 576.308594 557.742188 C 575.675781 558.511719 574.949219 559.171875 574.121094 559.726562 C 573.292969 560.277344 572.402344 560.699219 571.453125 560.988281 C 570.5 561.277344 569.527344 561.421875 568.53125 561.421875 Z M 568.53125 561.421875 " fill-opacity="1" fill-rule="nonzero"/></g></svg>