<svg xmlns="http://www.w3.org/2000/svg" xmlns:xlink="http://www.w3.org/1999/xlink" width="793" zoomAndPan="magnify" viewBox="0 0 594.95996 842.24997" height="1122" preserveAspectRatio="xMidYMid meet" version="1.0"><defs><clipPath id="710ec3b6ef"><path d="M 0.246094 0 L 594.675781 0 L 594.675781 841.5 L 0.246094 841.5 Z M 0.246094 0 " clip-rule="nonzero"/></clipPath><clipPath id="fbfcf01970"><path d="M 18.035156 110 L 487 110 L 487 731 L 18.035156 731 Z M 18.035156 110 " clip-rule="nonzero"/></clipPath></defs><g clip-path="url(#710ec3b6ef)"><path fill="#ffffff" d="M 0.246094 0 L 595.214844 0 L 595.214844 841.5 L 0.246094 841.5 Z M 0.246094 0 " fill-opacity="1" fill-rule="nonzero"/><path fill="#ffffff" d="M 0.246094 0 L 595.214844 0 L 595.214844 841.5 L 0.246094 841.5 Z M 0.246094 0 " fill-opacity="1" fill-rule="nonzero"/></g><g clip-path="url(#fbfcf01970)"><path fill="#13334d" d="M 377.515625 243.007812 C 363.613281 243.007812 352.324219 233.414062 352.324219 221.550781 L 352.324219 154.601562 L 444.507812 243.007812 Z M 483.800781 243.007812 C 483.558594 242.609375 483.1875 242.28125 482.859375 241.953125 L 352.324219 116.734375 L 348.957031 113.484375 C 347.148438 111.714844 344.824219 110.660156 342.484375 110.332031 L 71.65625 110.332031 C 66.480469 110.332031 61.417969 110.988281 56.671875 112.214844 C 34.375 117.746094 18.0625 135.226562 18.0625 156.011719 L 18.0625 685.167969 C 18.0625 710.359375 42.085938 730.804688 71.65625 730.804688 L 432.820312 730.804688 C 457.667969 730.804688 478.625 716.363281 484.671875 696.785156 C 485.839844 693.050781 486.410156 689.1875 486.410156 685.167969 L 486.410156 487.804688 L 458.066406 523.320312 L 458.066406 685.167969 C 458.066406 690.226562 455.972656 694.90625 452.492188 698.597656 C 447.875 703.515625 440.773438 706.625 432.820312 706.625 L 71.65625 706.625 C 57.726562 706.625 46.464844 697 46.464844 685.167969 L 46.464844 156.011719 C 46.464844 149.640625 49.6875 143.921875 54.902344 139.972656 C 59.351562 136.566406 65.253906 134.511719 71.65625 134.511719 L 323.949219 134.511719 L 323.949219 221.550781 C 323.949219 246.730469 347.972656 267.191406 377.515625 267.191406 L 458.066406 267.191406 L 458.066406 361.542969 L 469.445312 347.316406 L 486.410156 326.070312 L 486.410156 249.097656 C 486.15625 246.886719 485.285156 244.792969 483.800781 243.007812 " fill-opacity="1" fill-rule="nonzero"/></g><path fill="#13334d" d="M 568.972656 358.277344 L 560.207031 369.269531 L 506.785156 326.65625 L 515.566406 315.648438 C 527.328125 300.921875 548.84375 298.5 563.585938 310.261719 C 570.96875 316.148438 575.246094 324.445312 576.230469 333.15625 C 577.199219 341.855469 574.847656 350.9375 568.972656 358.277344 " fill-opacity="1" fill-rule="nonzero"/><path fill="#13334d" d="M 428.171875 507.335938 C 426.101562 509.933594 422.3125 510.359375 419.703125 508.277344 C 417.09375 506.195312 416.664062 502.417969 418.746094 499.808594 L 519.046875 374.132812 C 521.097656 371.550781 524.917969 371.097656 527.515625 373.175781 C 530.125 375.257812 530.523438 379.078125 528.46875 381.644531 Z M 409.324219 492.28125 C 407.242188 494.890625 403.464844 495.320312 400.855469 493.238281 C 398.246094 491.15625 397.816406 487.378906 399.898438 484.769531 L 500.199219 359.089844 C 502.25 356.511719 506.058594 356.054688 508.667969 358.136719 C 511.277344 360.21875 511.675781 364.039062 509.621094 366.605469 Z M 498.445312 337.121094 L 378.085938 487.933594 L 431.507812 530.5625 L 551.851562 379.734375 L 498.445312 337.121094 " fill-opacity="1" fill-rule="nonzero"/><path fill="#13334d" d="M 348.074219 554.855469 L 373.652344 575.273438 L 343.726562 587.375 Z M 348.074219 554.855469 " fill-opacity="1" fill-rule="nonzero"/><path fill="#13334d" d="M 422.296875 542.082031 L 406.371094 562.042969 L 382.21875 571.824219 L 349.328125 545.5625 L 352.792969 519.625 L 368.890625 499.453125 L 422.296875 542.082031 " fill-opacity="1" fill-rule="nonzero"/><path fill="#13334d" d="M 288.464844 184.511719 L 100.269531 184.511719 C 95.28125 184.511719 91.21875 189.988281 91.21875 196.671875 C 91.21875 203.359375 95.28125 208.835938 100.269531 208.835938 L 288.464844 208.835938 C 293.441406 208.835938 297.503906 203.359375 297.503906 196.671875 C 297.503906 189.988281 293.441406 184.511719 288.464844 184.511719 " fill-opacity="1" fill-rule="nonzero"/><path fill="#13334d" d="M 288.464844 246.046875 L 100.269531 246.046875 C 95.28125 246.046875 91.21875 251.507812 91.21875 258.207031 C 91.21875 264.894531 95.28125 270.355469 100.269531 270.355469 L 288.464844 270.355469 C 293.441406 270.355469 297.503906 264.894531 297.503906 258.207031 C 297.503906 251.507812 293.441406 246.046875 288.464844 246.046875 " fill-opacity="1" fill-rule="nonzero"/><path fill="#13334d" d="M 396.71875 318.429688 L 105.230469 318.429688 C 97.519531 318.429688 91.21875 323.890625 91.21875 330.578125 C 91.21875 337.277344 97.519531 342.738281 105.230469 342.738281 L 396.71875 342.738281 C 404.433594 342.738281 410.734375 337.277344 410.734375 330.578125 C 410.734375 323.890625 404.433594 318.429688 396.71875 318.429688 " fill-opacity="1" fill-rule="nonzero"/><path fill="#13334d" d="M 389.804688 390.8125 L 104.902344 390.8125 C 97.375 390.8125 91.21875 396.273438 91.21875 402.960938 C 91.21875 409.660156 97.375 415.121094 104.902344 415.121094 L 389.804688 415.121094 C 397.332031 415.121094 403.492188 409.660156 403.492188 402.960938 C 403.492188 396.273438 397.332031 390.8125 389.804688 390.8125 " fill-opacity="1" fill-rule="nonzero"/><path fill="#13334d" d="M 348.273438 463.195312 L 103.007812 463.195312 C 96.519531 463.195312 91.21875 468.65625 91.21875 475.359375 C 91.21875 482.046875 96.519531 487.503906 103.007812 487.503906 L 348.273438 487.503906 C 354.761719 487.503906 360.0625 482.046875 360.0625 475.359375 C 360.0625 468.65625 354.761719 463.195312 348.273438 463.195312 " fill-opacity="1" fill-rule="nonzero"/><path fill="#13334d" d="M 317.136719 535.582031 L 101.582031 535.582031 C 95.878906 535.582031 91.21875 541.042969 91.21875 547.742188 C 91.21875 554.414062 95.878906 559.890625 101.582031 559.890625 L 317.136719 559.890625 C 322.839844 559.890625 327.5 554.414062 327.5 547.742188 C 327.5 541.042969 322.839844 535.582031 317.136719 535.582031 " fill-opacity="1" fill-rule="nonzero"/><path fill="#13334d" d="M 389.804688 607.964844 L 104.902344 607.964844 C 97.375 607.964844 91.21875 613.425781 91.21875 620.113281 C 91.21875 626.8125 97.375 632.273438 104.902344 632.273438 L 389.804688 632.273438 C 397.332031 632.273438 403.492188 626.8125 403.492188 620.113281 C 403.492188 613.425781 397.332031 607.964844 389.804688 607.964844 " fill-opacity="1" fill-rule="nonzero"/></svg>