<svg xmlns="http://www.w3.org/2000/svg" xmlns:xlink="http://www.w3.org/1999/xlink" width="1200" zoomAndPan="magnify" viewBox="0 0 900 899.99999" height="1200" preserveAspectRatio="xMidYMid meet" version="1.0"><path fill="#000000" d="M 0 0 L 0 900 L 900 900 L 900 0 Z M 896.835938 179.492188 L 720.507812 179.492188 L 720.507812 3.164062 L 896.835938 3.164062 Z M 361.835938 538.164062 L 361.835938 361.835938 L 538.164062 361.835938 L 538.164062 538.164062 Z M 538.164062 541.328125 L 538.164062 717.65625 L 361.835938 717.65625 L 361.835938 541.328125 Z M 358.671875 538.164062 L 182.660156 538.164062 L 182.660156 361.835938 L 358.988281 361.835938 L 358.988281 538.164062 Z M 361.835938 358.671875 L 361.835938 182.660156 L 538.164062 182.660156 L 538.164062 358.988281 L 361.835938 358.988281 Z M 541.328125 361.835938 L 717.65625 361.835938 L 717.65625 538.164062 L 541.328125 538.164062 Z M 541.328125 358.671875 L 541.328125 182.660156 L 717.65625 182.660156 L 717.65625 358.988281 L 541.328125 358.988281 Z M 541.328125 179.492188 L 541.328125 3.164062 L 717.65625 3.164062 L 717.65625 179.492188 Z M 538.164062 179.492188 L 361.835938 179.492188 L 361.835938 3.164062 L 538.164062 3.164062 Z M 358.671875 179.492188 L 182.660156 179.492188 L 182.660156 3.164062 L 358.988281 3.164062 L 358.988281 179.492188 Z M 358.671875 182.660156 L 358.671875 358.988281 L 182.660156 358.988281 L 182.660156 182.660156 Z M 179.492188 358.671875 L 3.164062 358.671875 L 3.164062 182.660156 L 179.492188 182.660156 Z M 179.492188 361.835938 L 179.492188 538.164062 L 3.164062 538.164062 L 3.164062 361.835938 Z M 179.492188 541.328125 L 179.492188 717.65625 L 3.164062 717.65625 L 3.164062 541.328125 Z M 182.660156 541.328125 L 358.988281 541.328125 L 358.988281 717.65625 L 182.660156 717.65625 Z M 358.671875 720.507812 L 358.671875 896.835938 L 182.660156 896.835938 L 182.660156 720.507812 Z M 361.835938 720.507812 L 538.164062 720.507812 L 538.164062 896.835938 L 361.835938 896.835938 Z M 541.328125 720.507812 L 717.65625 720.507812 L 717.65625 896.835938 L 541.328125 896.835938 Z M 541.328125 717.339844 L 541.328125 541.328125 L 717.65625 541.328125 L 717.65625 717.65625 L 541.328125 717.65625 Z M 720.507812 541.328125 L 896.835938 541.328125 L 896.835938 717.65625 L 720.507812 717.65625 Z M 720.507812 538.164062 L 720.507812 361.835938 L 896.835938 361.835938 L 896.835938 538.164062 Z M 720.507812 358.671875 L 720.507812 182.660156 L 896.835938 182.660156 L 896.835938 358.988281 L 720.507812 358.988281 Z M 179.492188 3.164062 L 179.492188 179.492188 L 3.164062 179.492188 L 3.164062 3.164062 Z M 3.164062 720.507812 L 179.492188 720.507812 L 179.492188 896.835938 L 3.164062 896.835938 Z M 720.507812 896.835938 L 720.507812 720.507812 L 896.835938 720.507812 L 896.835938 896.835938 Z M 720.507812 896.835938 " fill-opacity="1" fill-rule="nonzero"/></svg>