<svg width="226" height="42" viewBox="0 0 226 42" fill="none" xmlns="http://www.w3.org/2000/svg">
<path d="M107.719 33.8682H105.906L102.967 37.1442V33.8682H101.508V41.6143H102.967V38.1829L106.205 41.6143H108.006V41.5255L104.282 37.6192L107.719 33.9126V33.8682Z" fill="#265277"/>
<path d="M117.508 38.7969H114.634L116.071 35.4955L117.508 38.7969ZM118.745 41.6143H120.336L116.867 33.8682H115.276L111.806 41.6143H113.386L114.048 40.1553H118.093L118.745 41.6143Z" fill="#265277"/>
<path d="M129.938 38.672L126.149 33.8684H124.966V41.6143H126.425V36.3921L130.491 41.6143H131.397V33.8684H129.938V38.672Z" fill="#265277"/>
<path d="M142.412 39.6365C141.904 40.1445 141.142 40.4206 140.468 40.4206C138.556 40.4206 137.815 39.0842 137.805 37.8021C137.793 36.5093 138.6 35.1173 140.468 35.1173C141.142 35.1173 141.826 35.3489 142.335 35.8461L143.307 34.9067C142.512 34.1219 141.517 33.725 140.468 33.725C137.672 33.725 136.357 35.7805 136.368 37.8021C136.379 39.8132 137.595 41.7914 140.468 41.7914C141.583 41.7914 142.611 41.4266 143.407 40.6425L142.412 39.6365Z" fill="#265277"/>
<path d="M153.848 40.1784H149.505V38.4321H153.694V37.0736H149.505V35.2828H153.848V33.8684H148.058V41.6143H153.848V40.1784Z" fill="#265277"/>
<path d="M158.83 33.8682V41.6143H164.267V40.2664H160.288V33.8682H158.83Z" fill="#265277"/>
<path d="M174.056 38.7969H171.182L172.619 35.4955L174.056 38.7969ZM175.293 41.6143H176.884L173.415 33.8682H171.823L168.354 41.6143H169.933L170.596 40.1553H174.641L175.293 41.6143Z" fill="#265277"/>
<path d="M185.083 35.227C185.999 35.227 186.408 35.8485 186.408 36.4705C186.408 37.0935 186.01 37.7131 185.083 37.7131H182.861V35.227H185.083ZM188.253 41.5143L185.911 38.8737C187.38 38.5752 187.867 37.5045 187.867 36.4375C187.867 35.0948 186.905 33.8793 185.083 33.8686C183.856 33.8793 182.629 33.8686 181.402 33.8686V41.6138H182.861V39.0291H184.265L186.518 41.6138H188.253V41.5143Z" fill="#265277"/>
<path d="M194.164 33.8684H192.717V41.6143H194.164V33.8684Z" fill="#265277"/>
<path d="M204.296 38.7969H201.423L202.859 35.4955L204.296 38.7969ZM205.534 41.6143H207.125L203.655 33.8682H202.064L198.595 41.6143H200.174L200.838 40.1553H204.882L205.534 41.6143Z" fill="#265277"/>
<path fill-rule="evenodd" clip-rule="evenodd" d="M213.513 8.31178L221.165 17.2551V8.06362H226V26.15H222.826L214.317 16.0685V26.15H209.482V8.06362H213.301L213.513 8.31178ZM193.992 21.7367H204.195V26.15H189.183V8.06362H204.195V12.4268H193.992V15.0082H203.832V19.2523H193.992V21.7367ZM177.328 12.3315H169V8.06362H183.506H184.376H186.117L175.604 21.8575H184.376V26.15H169.125H168.766H166.721L177.328 12.3315ZM158.908 26.15H154.776V12.2353H149.012V8.06362H165.374V12.2353H159.611V26.15H158.908ZM132.614 8.31178L140.267 17.2551V8.06362H145.102V26.15H141.928L133.418 16.0685V26.15H128.583V8.06362H132.403L132.614 8.31178ZM113.093 21.7367H123.297V26.15H108.284V8.06362H123.297V12.4268H113.093V15.0082H122.933V19.2523H113.093V21.7367ZM102.58 26.15H98.4485V15.2959L92.892 22.1838L87.4726 15.3132V26.15H82.6377V8.11121H87.6419L92.9734 14.8595L98.3046 8.11121H103.283V26.15H102.58Z" fill="#265277"/>
<path d="M55.8588 9.50952L77.9633 34.3919V40.873L58.0861 40.8788L49.5577 31.2549V22.0461L49.5725 21.5874L60.9774 34.4536L69.4005 34.4512L53.4632 16.5116C49.3818 21.1643 45.3375 25.774 41.2529 30.4306L40.5099 31.2713L40.5132 31.273L36.7147 35.6033L30.8383 29.0434L19.7434 41.533H0V34.9006L30.628 0.208649L40.5519 11.4064V20.2108L40.5313 21.0286L30.6371 9.90569L8.40754 35.0848H16.8563L30.8064 19.3809L36.6612 25.9179C42.2777 19.5172 47.8696 13.1421 53.4434 6.78916L55.8588 9.50952Z" fill="#265277"/>
</svg>
