<svg xmlns="http://www.w3.org/2000/svg" xmlns:xlink="http://www.w3.org/1999/xlink" width="500" zoomAndPan="magnify" viewBox="0 0 375 374.999991" height="500" preserveAspectRatio="xMidYMid meet" version="1.0"><defs><clipPath id="a1ee896009"><path d="M 33 14.25 L 355 14.25 L 355 336 L 33 336 Z M 33 14.25 " clip-rule="nonzero"/></clipPath></defs><g clip-path="url(#a1ee896009)"><path fill="#ffffff" d="M 318.328125 50.753906 C 294.988281 27.402344 263.960938 14.566406 230.964844 14.566406 C 197.945312 14.566406 166.917969 27.402344 143.566406 50.753906 C 120.214844 74.082031 107.359375 105.132812 107.359375 138.152344 C 107.359375 166.851562 117.109375 194.035156 134.984375 216 L 111.128906 239.855469 L 105.695312 234.421875 L 33.324219 306.769531 L 62.289062 335.738281 L 134.640625 263.390625 L 129.226562 257.953125 L 153.082031 234.097656 C 175.046875 251.992188 202.230469 261.722656 230.929688 261.722656 C 263.949219 261.722656 294.976562 248.867188 318.328125 225.515625 C 366.523438 177.332031 366.523438 98.9375 318.328125 50.753906 Z M 304.988281 212.15625 C 285.203125 231.941406 258.921875 242.820312 230.929688 242.820312 C 202.960938 242.820312 176.679688 231.929688 156.894531 212.15625 C 137.132812 192.390625 126.242188 166.109375 126.242188 138.140625 C 126.242188 110.171875 137.132812 83.867188 156.90625 64.105469 C 176.667969 44.320312 202.953125 33.4375 230.941406 33.4375 C 258.910156 33.4375 285.195312 44.332031 304.976562 64.105469 C 345.792969 104.941406 345.792969 171.363281 304.988281 212.15625 Z M 304.988281 212.15625 " fill-opacity="1" fill-rule="nonzero"/></g><path fill="#ffffff" d="M 230.941406 47.519531 C 206.730469 47.519531 183.992188 56.960938 166.875 74.0625 C 164.296875 76.640625 164.296875 80.839844 166.875 83.417969 C 169.449219 85.992188 173.652344 85.992188 176.226562 83.417969 C 190.847656 68.796875 210.277344 60.765625 230.941406 60.765625 C 251.628906 60.765625 271.046875 68.796875 285.675781 83.417969 C 286.957031 84.714844 288.652344 85.347656 290.359375 85.347656 C 292.035156 85.347656 293.734375 84.714844 295.042969 83.417969 C 297.621094 80.839844 297.621094 76.640625 295.042969 74.0625 C 277.910156 56.960938 255.152344 47.519531 230.941406 47.519531 Z M 230.941406 47.519531 " fill-opacity="1" fill-rule="nonzero"/><path fill="#ffffff" d="M 16.351562 323.761719 C 8.960938 331.128906 8.960938 343.105469 16.351562 350.464844 L 18.597656 352.730469 C 25.988281 360.097656 37.941406 360.097656 45.320312 352.730469 L 55.265625 342.785156 L 26.296875 313.816406 Z M 16.351562 323.761719 " fill-opacity="1" fill-rule="nonzero"/></svg>