<svg xmlns="http://www.w3.org/2000/svg" xmlns:xlink="http://www.w3.org/1999/xlink" width="500" zoomAndPan="magnify" viewBox="0 0 375 374.999991" height="500" preserveAspectRatio="xMidYMid meet" version="1.0"><defs><clipPath id="26f26d9a65"><path d="M 47 11.039062 L 329 11.039062 L 329 256 L 47 256 Z M 47 11.039062 " clip-rule="nonzero"/></clipPath></defs><path fill="#ffffff" d="M 177.214844 104.046875 L 223.597656 104.046875 C 230.101562 104.046875 235.363281 98.785156 235.363281 92.285156 C 235.363281 85.78125 230.101562 80.519531 223.597656 80.519531 L 203.597656 80.519531 L 203.597656 69.859375 C 203.597656 63.355469 198.324219 58.09375 191.828125 58.09375 C 185.328125 58.09375 180.0625 63.355469 180.0625 69.859375 L 180.0625 80.519531 L 177.214844 80.519531 C 157.144531 80.519531 140.8125 96.855469 140.8125 116.925781 C 140.8125 136.996094 157.144531 153.332031 177.214844 153.332031 L 198.960938 153.332031 C 206.054688 153.332031 211.832031 159.101562 211.832031 166.199219 C 211.832031 173.207031 206.054688 178.90625 198.960938 178.90625 L 152.578125 178.90625 C 146.082031 178.90625 140.8125 184.167969 140.8125 190.671875 C 140.8125 197.171875 146.082031 202.433594 152.578125 202.433594 L 180.0625 202.433594 L 180.0625 213.09375 C 180.0625 219.597656 185.328125 224.859375 191.828125 224.859375 C 198.324219 224.859375 203.597656 219.597656 203.597656 213.09375 L 203.597656 201.96875 C 221.464844 199.671875 235.363281 184.597656 235.363281 166.199219 C 235.363281 146.128906 219.035156 129.804688 198.960938 129.804688 L 177.214844 129.804688 C 170.113281 129.804688 164.339844 124.027344 164.339844 116.925781 C 164.339844 109.828125 170.113281 104.046875 177.214844 104.046875 Z M 177.214844 104.046875 " fill-opacity="1" fill-rule="nonzero"/><g clip-path="url(#26f26d9a65)"><path fill="#ffffff" d="M 97.851562 255.75 C 100.902344 255.75 103.953125 254.566406 106.257812 252.214844 C 110.804688 247.570312 110.726562 240.128906 106.082031 235.578125 C 83.367188 213.335938 70.855469 183.582031 70.855469 151.792969 C 70.855469 87.148438 123.441406 34.566406 188.085938 34.566406 C 252.730469 34.566406 305.3125 87.148438 305.3125 151.792969 C 305.3125 156.789062 305.003906 161.789062 304.382812 166.660156 C 303.566406 173.105469 308.128906 178.996094 314.574219 179.8125 C 321.109375 180.558594 326.914062 176.066406 327.726562 169.625 C 328.464844 163.777344 328.84375 157.777344 328.84375 151.792969 C 328.84375 74.179688 265.703125 11.039062 188.085938 11.039062 C 110.472656 11.039062 47.328125 74.179688 47.328125 151.792969 C 47.328125 189.957031 62.347656 225.6875 89.621094 252.398438 C 91.914062 254.636719 94.882812 255.75 97.851562 255.75 Z M 97.851562 255.75 " fill-opacity="1" fill-rule="nonzero"/></g><path fill="#ffffff" d="M 360.730469 207.875 C 360.667969 207.382812 360.753906 206.890625 360.632812 206.410156 C 360.515625 205.96875 360.199219 205.589844 360.03125 205.164062 C 359.617188 204.082031 359.257812 202.976562 358.527344 202.042969 C 356.820312 199.847656 354.320312 198.59375 351.632812 198.019531 C 351.273438 197.941406 350.941406 197.773438 350.570312 197.730469 C 350.308594 197.699219 350.085938 197.542969 349.820312 197.527344 L 266.011719 193.496094 C 259.71875 193.199219 254.019531 198.195312 253.695312 204.6875 C 253.386719 211.175781 258.394531 216.691406 264.886719 217 L 317.019531 219.511719 L 209.078125 303.246094 L 164.59375 243.621094 C 162.691406 241.070312 159.835938 239.402344 156.691406 238.992188 C 153.507812 238.566406 150.34375 239.460938 147.859375 241.425781 L 19.617188 342.972656 C 14.523438 347.003906 13.660156 354.402344 17.691406 359.503906 C 20.019531 362.433594 23.453125 363.960938 26.921875 363.960938 C 29.484375 363.960938 32.058594 363.132812 34.21875 361.421875 L 152.972656 267.390625 L 197.382812 326.921875 C 199.269531 329.460938 202.101562 331.125 205.226562 331.550781 C 208.328125 331.953125 211.523438 331.113281 214.027344 329.183594 L 331.523438 238.042969 L 321.304688 289.261719 C 320.03125 295.628906 324.167969 301.832031 330.542969 303.09375 C 331.3125 303.253906 332.09375 303.324219 332.851562 303.324219 C 338.34375 303.324219 343.261719 299.453125 344.375 293.859375 L 360.792969 211.578125 C 360.8125 211.484375 360.769531 211.390625 360.785156 211.296875 C 360.976562 210.160156 360.878906 209.023438 360.730469 207.875 Z M 360.730469 207.875 " fill-opacity="1" fill-rule="nonzero"/></svg>