<svg xmlns="http://www.w3.org/2000/svg" xmlns:xlink="http://www.w3.org/1999/xlink" width="793" zoomAndPan="magnify" viewBox="0 0 594.95996 842.24997" height="1122" preserveAspectRatio="xMidYMid meet" version="1.0"><defs><clipPath id="511f278c49"><path d="M 0.246094 0 L 594.675781 0 L 594.675781 841.5 L 0.246094 841.5 Z M 0.246094 0 " clip-rule="nonzero"/></clipPath><clipPath id="39237178ea"><path d="M 0.246094 0 L 594.675781 0 L 594.675781 841.136719 L 0.246094 841.136719 Z M 0.246094 0 " clip-rule="nonzero"/></clipPath><linearGradient x1="0.00519078" gradientTransform="matrix(0.74933, 0, 0, 0.74933, 0.240781, 0)" y1="561.26001" x2="793.288289" gradientUnits="userSpaceOnUse" y2="561.26001" id="ffb43b4184"><stop stop-opacity="1" stop-color="rgb(19.198608%, 29.798889%, 38.398743%)" offset="0"/><stop stop-opacity="1" stop-color="rgb(19.239807%, 29.881287%, 38.513184%)" offset="0.0078125"/><stop stop-opacity="1" stop-color="rgb(19.32373%, 30.047607%, 38.743591%)" offset="0.015625"/><stop stop-opacity="1" stop-color="rgb(19.406128%, 30.212402%, 38.972473%)" offset="0.0234375"/><stop stop-opacity="1" stop-color="rgb(19.488525%, 30.378723%, 39.202881%)" offset="0.03125"/><stop stop-opacity="1" stop-color="rgb(19.570923%, 30.543518%, 39.431763%)" offset="0.0390625"/><stop stop-opacity="1" stop-color="rgb(19.654846%, 30.709839%, 39.66217%)" offset="0.046875"/><stop stop-opacity="1" stop-color="rgb(19.737244%, 30.874634%, 39.891052%)" offset="0.0546875"/><stop stop-opacity="1" stop-color="rgb(19.819641%, 31.040955%, 40.12146%)" offset="0.0625"/><stop stop-opacity="1" stop-color="rgb(19.902039%, 31.20575%, 40.350342%)" offset="0.0703125"/><stop stop-opacity="1" stop-color="rgb(19.985962%, 31.37207%, 40.579224%)" offset="0.078125"/><stop stop-opacity="1" stop-color="rgb(20.068359%, 31.536865%, 40.809631%)" offset="0.0859375"/><stop stop-opacity="1" stop-color="rgb(20.150757%, 31.703186%, 41.038513%)" offset="0.09375"/><stop stop-opacity="1" stop-color="rgb(20.233154%, 31.867981%, 41.268921%)" offset="0.101562"/><stop stop-opacity="1" stop-color="rgb(20.317078%, 32.034302%, 41.497803%)" offset="0.109375"/><stop stop-opacity="1" stop-color="rgb(20.399475%, 32.199097%, 41.72821%)" offset="0.117187"/><stop stop-opacity="1" stop-color="rgb(20.481873%, 32.365417%, 41.957092%)" offset="0.125"/><stop stop-opacity="1" stop-color="rgb(20.56427%, 32.530212%, 42.1875%)" offset="0.132812"/><stop stop-opacity="1" stop-color="rgb(20.648193%, 32.696533%, 42.416382%)" offset="0.140625"/><stop stop-opacity="1" stop-color="rgb(20.730591%, 32.861328%, 42.64679%)" offset="0.148438"/><stop stop-opacity="1" stop-color="rgb(20.812988%, 33.027649%, 42.875671%)" offset="0.15625"/><stop stop-opacity="1" stop-color="rgb(20.895386%, 33.192444%, 43.104553%)" offset="0.164062"/><stop stop-opacity="1" stop-color="rgb(20.979309%, 33.358765%, 43.334961%)" offset="0.171875"/><stop stop-opacity="1" stop-color="rgb(21.061707%, 33.52356%, 43.563843%)" offset="0.179688"/><stop stop-opacity="1" stop-color="rgb(21.144104%, 33.68988%, 43.79425%)" offset="0.1875"/><stop stop-opacity="1" stop-color="rgb(21.226501%, 33.854675%, 44.023132%)" offset="0.195312"/><stop stop-opacity="1" stop-color="rgb(21.310425%, 34.01947%, 44.25354%)" offset="0.203125"/><stop stop-opacity="1" stop-color="rgb(21.392822%, 34.185791%, 44.482422%)" offset="0.210938"/><stop stop-opacity="1" stop-color="rgb(21.47522%, 34.350586%, 44.71283%)" offset="0.21875"/><stop stop-opacity="1" stop-color="rgb(21.557617%, 34.516907%, 44.941711%)" offset="0.226562"/><stop stop-opacity="1" stop-color="rgb(21.641541%, 34.681702%, 45.170593%)" offset="0.234375"/><stop stop-opacity="1" stop-color="rgb(21.723938%, 34.848022%, 45.401001%)" offset="0.242188"/><stop stop-opacity="1" stop-color="rgb(21.806335%, 35.012817%, 45.629883%)" offset="0.25"/><stop stop-opacity="1" stop-color="rgb(21.888733%, 35.179138%, 45.860291%)" offset="0.257812"/><stop stop-opacity="1" stop-color="rgb(21.97113%, 35.343933%, 46.089172%)" offset="0.265625"/><stop stop-opacity="1" stop-color="rgb(22.055054%, 35.510254%, 46.31958%)" offset="0.273437"/><stop stop-opacity="1" stop-color="rgb(22.137451%, 35.675049%, 46.548462%)" offset="0.28125"/><stop stop-opacity="1" stop-color="rgb(22.219849%, 35.84137%, 46.77887%)" offset="0.289062"/><stop stop-opacity="1" stop-color="rgb(22.302246%, 36.006165%, 47.007751%)" offset="0.296875"/><stop stop-opacity="1" stop-color="rgb(22.386169%, 36.172485%, 47.238159%)" offset="0.304688"/><stop stop-opacity="1" stop-color="rgb(22.468567%, 36.33728%, 47.467041%)" offset="0.3125"/><stop stop-opacity="1" stop-color="rgb(22.550964%, 36.503601%, 47.695923%)" offset="0.320312"/><stop stop-opacity="1" stop-color="rgb(22.633362%, 36.668396%, 47.926331%)" offset="0.328125"/><stop stop-opacity="1" stop-color="rgb(22.717285%, 36.834717%, 48.155212%)" offset="0.335938"/><stop stop-opacity="1" stop-color="rgb(22.799683%, 36.999512%, 48.38562%)" offset="0.34375"/><stop stop-opacity="1" stop-color="rgb(22.88208%, 37.165833%, 48.614502%)" offset="0.351563"/><stop stop-opacity="1" stop-color="rgb(22.964478%, 37.330627%, 48.84491%)" offset="0.359375"/><stop stop-opacity="1" stop-color="rgb(23.048401%, 37.496948%, 49.073792%)" offset="0.367187"/><stop stop-opacity="1" stop-color="rgb(23.130798%, 37.661743%, 49.304199%)" offset="0.375"/><stop stop-opacity="1" stop-color="rgb(23.213196%, 37.828064%, 49.533081%)" offset="0.382812"/><stop stop-opacity="1" stop-color="rgb(23.295593%, 37.992859%, 49.761963%)" offset="0.390625"/><stop stop-opacity="1" stop-color="rgb(23.379517%, 38.15918%, 49.992371%)" offset="0.398437"/><stop stop-opacity="1" stop-color="rgb(23.461914%, 38.323975%, 50.221252%)" offset="0.40625"/><stop stop-opacity="1" stop-color="rgb(23.544312%, 38.490295%, 50.45166%)" offset="0.414062"/><stop stop-opacity="1" stop-color="rgb(23.626709%, 38.65509%, 50.680542%)" offset="0.421875"/><stop stop-opacity="1" stop-color="rgb(23.710632%, 38.821411%, 50.91095%)" offset="0.429687"/><stop stop-opacity="1" stop-color="rgb(23.79303%, 38.986206%, 51.139832%)" offset="0.4375"/><stop stop-opacity="1" stop-color="rgb(23.875427%, 39.152527%, 51.370239%)" offset="0.445312"/><stop stop-opacity="1" stop-color="rgb(23.957825%, 39.317322%, 51.599121%)" offset="0.453125"/><stop stop-opacity="1" stop-color="rgb(24.041748%, 39.483643%, 51.828003%)" offset="0.460937"/><stop stop-opacity="1" stop-color="rgb(24.124146%, 39.648438%, 52.058411%)" offset="0.46875"/><stop stop-opacity="1" stop-color="rgb(24.206543%, 39.814758%, 52.287292%)" offset="0.476562"/><stop stop-opacity="1" stop-color="rgb(24.28894%, 39.979553%, 52.5177%)" offset="0.484375"/><stop stop-opacity="1" stop-color="rgb(24.372864%, 40.145874%, 52.746582%)" offset="0.492188"/><stop stop-opacity="1" stop-color="rgb(24.455261%, 40.310669%, 52.97699%)" offset="0.5"/><stop stop-opacity="1" stop-color="rgb(24.537659%, 40.475464%, 53.205872%)" offset="0.507812"/><stop stop-opacity="1" stop-color="rgb(24.620056%, 40.641785%, 53.436279%)" offset="0.515625"/><stop stop-opacity="1" stop-color="rgb(24.703979%, 40.80658%, 53.665161%)" offset="0.523438"/><stop stop-opacity="1" stop-color="rgb(24.786377%, 40.9729%, 53.895569%)" offset="0.53125"/><stop stop-opacity="1" stop-color="rgb(24.868774%, 41.137695%, 54.124451%)" offset="0.539062"/><stop stop-opacity="1" stop-color="rgb(24.951172%, 41.304016%, 54.353333%)" offset="0.546875"/><stop stop-opacity="1" stop-color="rgb(25.033569%, 41.468811%, 54.58374%)" offset="0.554688"/><stop stop-opacity="1" stop-color="rgb(25.117493%, 41.635132%, 54.812622%)" offset="0.5625"/><stop stop-opacity="1" stop-color="rgb(25.19989%, 41.799927%, 55.04303%)" offset="0.570312"/><stop stop-opacity="1" stop-color="rgb(25.282288%, 41.966248%, 55.271912%)" offset="0.578125"/><stop stop-opacity="1" stop-color="rgb(25.364685%, 42.131042%, 55.502319%)" offset="0.585938"/><stop stop-opacity="1" stop-color="rgb(25.448608%, 42.297363%, 55.731201%)" offset="0.59375"/><stop stop-opacity="1" stop-color="rgb(25.531006%, 42.462158%, 55.961609%)" offset="0.601562"/><stop stop-opacity="1" stop-color="rgb(25.613403%, 42.628479%, 56.190491%)" offset="0.609375"/><stop stop-opacity="1" stop-color="rgb(25.695801%, 42.793274%, 56.419373%)" offset="0.617188"/><stop stop-opacity="1" stop-color="rgb(25.779724%, 42.959595%, 56.64978%)" offset="0.625"/><stop stop-opacity="1" stop-color="rgb(25.862122%, 43.12439%, 56.878662%)" offset="0.632812"/><stop stop-opacity="1" stop-color="rgb(25.944519%, 43.29071%, 57.10907%)" offset="0.640625"/><stop stop-opacity="1" stop-color="rgb(26.026917%, 43.455505%, 57.337952%)" offset="0.648437"/><stop stop-opacity="1" stop-color="rgb(26.11084%, 43.621826%, 57.568359%)" offset="0.65625"/><stop stop-opacity="1" stop-color="rgb(26.193237%, 43.786621%, 57.797241%)" offset="0.664062"/><stop stop-opacity="1" stop-color="rgb(26.275635%, 43.952942%, 58.027649%)" offset="0.671875"/><stop stop-opacity="1" stop-color="rgb(26.358032%, 44.117737%, 58.256531%)" offset="0.679688"/><stop stop-opacity="1" stop-color="rgb(26.441956%, 44.284058%, 58.485413%)" offset="0.6875"/><stop stop-opacity="1" stop-color="rgb(26.524353%, 44.448853%, 58.71582%)" offset="0.695312"/><stop stop-opacity="1" stop-color="rgb(26.60675%, 44.615173%, 58.944702%)" offset="0.703125"/><stop stop-opacity="1" stop-color="rgb(26.689148%, 44.779968%, 59.17511%)" offset="0.710938"/><stop stop-opacity="1" stop-color="rgb(26.773071%, 44.946289%, 59.403992%)" offset="0.71875"/><stop stop-opacity="1" stop-color="rgb(26.855469%, 45.111084%, 59.634399%)" offset="0.726562"/><stop stop-opacity="1" stop-color="rgb(26.937866%, 45.277405%, 59.863281%)" offset="0.734375"/><stop stop-opacity="1" stop-color="rgb(27.020264%, 45.4422%, 60.093689%)" offset="0.742188"/><stop stop-opacity="1" stop-color="rgb(27.104187%, 45.608521%, 60.322571%)" offset="0.75"/><stop stop-opacity="1" stop-color="rgb(27.186584%, 45.773315%, 60.552979%)" offset="0.757812"/><stop stop-opacity="1" stop-color="rgb(27.268982%, 45.939636%, 60.78186%)" offset="0.765625"/><stop stop-opacity="1" stop-color="rgb(27.351379%, 46.104431%, 61.010742%)" offset="0.773438"/><stop stop-opacity="1" stop-color="rgb(27.435303%, 46.270752%, 61.24115%)" offset="0.78125"/><stop stop-opacity="1" stop-color="rgb(27.5177%, 46.435547%, 61.470032%)" offset="0.789062"/><stop stop-opacity="1" stop-color="rgb(27.600098%, 46.600342%, 61.700439%)" offset="0.796875"/><stop stop-opacity="1" stop-color="rgb(27.682495%, 46.766663%, 61.929321%)" offset="0.804687"/><stop stop-opacity="1" stop-color="rgb(27.766418%, 46.931458%, 62.159729%)" offset="0.8125"/><stop stop-opacity="1" stop-color="rgb(27.848816%, 47.097778%, 62.388611%)" offset="0.820312"/><stop stop-opacity="1" stop-color="rgb(27.931213%, 47.262573%, 62.619019%)" offset="0.828125"/><stop stop-opacity="1" stop-color="rgb(28.013611%, 47.428894%, 62.8479%)" offset="0.835938"/><stop stop-opacity="1" stop-color="rgb(28.097534%, 47.593689%, 63.076782%)" offset="0.84375"/><stop stop-opacity="1" stop-color="rgb(28.179932%, 47.76001%, 63.30719%)" offset="0.851562"/><stop stop-opacity="1" stop-color="rgb(28.262329%, 47.924805%, 63.536072%)" offset="0.859375"/><stop stop-opacity="1" stop-color="rgb(28.344727%, 48.091125%, 63.766479%)" offset="0.867188"/><stop stop-opacity="1" stop-color="rgb(28.427124%, 48.25592%, 63.995361%)" offset="0.875"/><stop stop-opacity="1" stop-color="rgb(28.511047%, 48.422241%, 64.225769%)" offset="0.882812"/><stop stop-opacity="1" stop-color="rgb(28.593445%, 48.587036%, 64.454651%)" offset="0.890625"/><stop stop-opacity="1" stop-color="rgb(28.675842%, 48.753357%, 64.685059%)" offset="0.898437"/><stop stop-opacity="1" stop-color="rgb(28.75824%, 48.918152%, 64.91394%)" offset="0.90625"/><stop stop-opacity="1" stop-color="rgb(28.842163%, 49.084473%, 65.144348%)" offset="0.914062"/><stop stop-opacity="1" stop-color="rgb(28.924561%, 49.249268%, 65.37323%)" offset="0.921875"/><stop stop-opacity="1" stop-color="rgb(29.006958%, 49.415588%, 65.602112%)" offset="0.929688"/><stop stop-opacity="1" stop-color="rgb(29.089355%, 49.580383%, 65.83252%)" offset="0.9375"/><stop stop-opacity="1" stop-color="rgb(29.173279%, 49.746704%, 66.061401%)" offset="0.945313"/><stop stop-opacity="1" stop-color="rgb(29.255676%, 49.911499%, 66.291809%)" offset="0.953125"/><stop stop-opacity="1" stop-color="rgb(29.338074%, 50.07782%, 66.520691%)" offset="0.960938"/><stop stop-opacity="1" stop-color="rgb(29.420471%, 50.242615%, 66.751099%)" offset="0.96875"/><stop stop-opacity="1" stop-color="rgb(29.504395%, 50.408936%, 66.97998%)" offset="0.976562"/><stop stop-opacity="1" stop-color="rgb(29.586792%, 50.57373%, 67.210388%)" offset="0.984375"/><stop stop-opacity="1" stop-color="rgb(29.669189%, 50.740051%, 67.43927%)" offset="0.992188"/><stop stop-opacity="1" stop-color="rgb(29.751587%, 50.904846%, 67.668152%)" offset="1"/></linearGradient><clipPath id="c9869ba42e"><path d="M 33.894531 156.847656 L 561.425781 156.847656 L 561.425781 317.953125 L 33.894531 317.953125 Z M 33.894531 156.847656 " clip-rule="nonzero"/></clipPath><clipPath id="e49ca1d5b7"><path d="M 33.894531 156.847656 L 151.539062 156.847656 L 151.539062 684.378906 L 33.894531 684.378906 Z M 33.894531 156.847656 " clip-rule="nonzero"/></clipPath><clipPath id="c639b8f825"><path d="M 447.359375 156.847656 L 561.257812 156.847656 L 561.257812 684.378906 L 447.359375 684.378906 Z M 447.359375 156.847656 " clip-rule="nonzero"/></clipPath><clipPath id="88fc147b53"><path d="M 33.894531 521.308594 L 561.425781 521.308594 L 561.425781 684.378906 L 33.894531 684.378906 Z M 33.894531 521.308594 " clip-rule="nonzero"/></clipPath><clipPath id="e2ff42ab1a"><path d="M 136 270.753906 L 460 270.753906 L 460 467 L 136 467 Z M 136 270.753906 " clip-rule="nonzero"/></clipPath><clipPath id="2a872db160"><path d="M 135.113281 437 L 460 437 L 460 521.03125 L 135.113281 521.03125 Z M 135.113281 437 " clip-rule="nonzero"/></clipPath><clipPath id="a9a4a512a5"><path d="M 135.113281 383 L 220 383 L 220 482 L 135.113281 482 Z M 135.113281 383 " clip-rule="nonzero"/></clipPath></defs><g clip-path="url(#511f278c49)"><path fill="#ffffff" d="M 0.246094 0 L 595.214844 0 L 595.214844 841.5 L 0.246094 841.5 Z M 0.246094 0 " fill-opacity="1" fill-rule="nonzero"/></g><g clip-path="url(#39237178ea)"><path fill="url(#ffb43b4184)" d="M 0.246094 0 L 0.246094 841.136719 L 594.675781 841.136719 L 594.675781 0 Z M 0.246094 0 " fill-rule="nonzero"/></g><g clip-path="url(#c9869ba42e)"><path fill="#ffffff" d="M 297.589844 167.4375 C 158.035156 167.4375 44.484375 280.980469 44.484375 420.542969 C 44.488281 560.101562 158.03125 673.644531 297.585938 673.644531 C 437.144531 673.644531 550.6875 560.101562 550.6875 420.542969 C 550.691406 280.976562 437.140625 167.4375 297.589844 167.4375 Z M 297.589844 684.230469 C 152.1875 684.230469 33.894531 565.941406 33.894531 420.539062 C 33.894531 275.140625 152.1875 156.847656 297.589844 156.847656 C 442.988281 156.847656 561.28125 275.140625 561.28125 420.539062 C 561.28125 565.9375 442.988281 684.234375 297.589844 684.230469 Z M 297.589844 684.230469 " fill-opacity="1" fill-rule="evenodd"/></g><g clip-path="url(#e49ca1d5b7)"><path fill="#ffffff" d="M 297.589844 167.4375 C 158.035156 167.4375 44.484375 280.980469 44.484375 420.542969 C 44.488281 560.101562 158.03125 673.644531 297.585938 673.644531 C 437.144531 673.644531 550.6875 560.101562 550.6875 420.542969 C 550.691406 280.976562 437.140625 167.4375 297.589844 167.4375 Z M 297.589844 684.230469 C 152.1875 684.230469 33.894531 565.941406 33.894531 420.539062 C 33.894531 275.140625 152.1875 156.847656 297.589844 156.847656 C 442.988281 156.847656 561.28125 275.140625 561.28125 420.539062 C 561.28125 565.9375 442.988281 684.234375 297.589844 684.230469 Z M 297.589844 684.230469 " fill-opacity="1" fill-rule="evenodd"/></g><g clip-path="url(#c639b8f825)"><path fill="#ffffff" d="M 297.589844 167.4375 C 158.035156 167.4375 44.484375 280.980469 44.484375 420.542969 C 44.488281 560.101562 158.03125 673.644531 297.585938 673.644531 C 437.144531 673.644531 550.6875 560.101562 550.6875 420.542969 C 550.691406 280.976562 437.140625 167.4375 297.589844 167.4375 Z M 297.589844 684.230469 C 152.1875 684.230469 33.894531 565.941406 33.894531 420.539062 C 33.894531 275.140625 152.1875 156.847656 297.589844 156.847656 C 442.988281 156.847656 561.28125 275.140625 561.28125 420.539062 C 561.28125 565.9375 442.988281 684.234375 297.589844 684.230469 Z M 297.589844 684.230469 " fill-opacity="1" fill-rule="evenodd"/></g><g clip-path="url(#88fc147b53)"><path fill="#ffffff" d="M 297.589844 167.4375 C 158.035156 167.4375 44.484375 280.980469 44.484375 420.542969 C 44.488281 560.101562 158.03125 673.644531 297.585938 673.644531 C 437.144531 673.644531 550.6875 560.101562 550.6875 420.542969 C 550.691406 280.976562 437.140625 167.4375 297.589844 167.4375 Z M 297.589844 684.230469 C 152.1875 684.230469 33.894531 565.941406 33.894531 420.539062 C 33.894531 275.140625 152.1875 156.847656 297.589844 156.847656 C 442.988281 156.847656 561.28125 275.140625 561.28125 420.539062 C 561.28125 565.9375 442.988281 684.234375 297.589844 684.230469 Z M 297.589844 684.230469 " fill-opacity="1" fill-rule="evenodd"/></g><path fill="#ffffff" d="M 459.839844 481.535156 L 459.839844 383.003906 L 376.089844 432.269531 Z M 459.839844 481.535156 " fill-opacity="1" fill-rule="nonzero"/><g clip-path="url(#e2ff42ab1a)"><path fill="#ffffff" d="M 426.058594 342.1875 L 297.617188 270.753906 L 169.175781 342.1875 C 166.363281 343.59375 164.25 345 161.789062 346.058594 C 149.117188 352.742188 137.507812 358.726562 136.097656 371.042969 L 231.8125 427.695312 L 297.617188 466.402344 L 363.421875 427.695312 L 459.488281 371.042969 C 458.078125 359.078125 446.113281 352.742188 433.800781 346.058594 C 431.335938 345 428.871094 343.945312 426.058594 342.1875 Z M 346.53125 409.398438 C 343.363281 412.566406 339.492188 415.378906 334.917969 417.84375 C 330.34375 419.953125 325.417969 421.714844 320.136719 423.121094 C 314.507812 424.175781 308.878906 424.878906 302.191406 424.878906 C 292.691406 424.878906 283.894531 423.472656 276.152344 421.011719 C 268.410156 418.546875 261.722656 414.675781 256.445312 410.101562 C 251.167969 405.175781 247.296875 399.542969 244.480469 392.859375 C 241.667969 386.171875 240.257812 378.78125 240.257812 371.042969 C 240.257812 362.597656 241.667969 354.855469 244.480469 347.464844 C 247.296875 340.074219 251.167969 333.742188 256.445312 328.460938 C 261.722656 323.183594 268.058594 318.960938 275.800781 315.792969 C 283.542969 312.628906 291.636719 311.21875 300.785156 311.21875 C 308.171875 311.21875 315.210938 312.277344 321.195312 314.386719 C 327.527344 316.5 332.804688 319.664062 337.378906 323.886719 C 341.957031 328.109375 345.121094 332.683594 347.585938 338.316406 C 350.046875 343.945312 351.105469 349.929688 351.105469 356.964844 C 351.105469 362.242188 350.046875 367.523438 348.289062 372.449219 C 346.53125 377.375 343.714844 381.949219 340.195312 386.171875 C 336.675781 390.042969 332.453125 393.210938 327.878906 395.671875 C 322.953125 398.136719 318.027344 399.191406 312.394531 399.191406 C 309.230469 399.191406 306.765625 398.488281 305.007812 397.433594 C 303.246094 396.378906 302.191406 394.617188 301.488281 392.15625 C 297.96875 395.671875 294.097656 397.785156 289.523438 398.488281 C 284.949219 399.542969 280.726562 398.839844 276.503906 397.433594 C 272.632812 396.027344 269.464844 393.210938 267.003906 388.988281 C 264.539062 384.765625 263.132812 379.839844 263.132812 373.855469 C 263.132812 367.523438 264.539062 361.539062 267.003906 355.558594 C 269.816406 349.574219 273.335938 344.648438 278.261719 340.777344 C 283.191406 336.90625 288.820312 335.148438 294.800781 335.148438 C 301.839844 335.148438 307.117188 337.964844 310.285156 343.242188 L 311.691406 336.554688 L 327.175781 336.554688 L 318.378906 378.78125 C 317.675781 381.597656 317.675781 383.359375 317.675781 384.0625 C 317.675781 385.117188 318.027344 385.820312 318.378906 386.171875 C 318.730469 386.523438 319.433594 386.875 320.136719 386.875 C 322.25 386.875 325.066406 385.46875 328.230469 382.652344 C 331.75 379.839844 334.566406 375.96875 337.027344 371.394531 C 339.492188 366.464844 340.898438 361.539062 340.898438 355.558594 C 340.898438 350.984375 339.84375 346.410156 338.085938 342.1875 C 336.324219 337.964844 333.863281 334.445312 330.34375 331.277344 C 326.824219 328.109375 322.953125 325.648438 317.675781 324.238281 C 312.75 322.480469 307.117188 321.777344 300.785156 321.777344 C 294.449219 321.777344 288.46875 322.480469 283.191406 324.238281 C 277.910156 326 272.984375 328.460938 269.113281 331.277344 C 264.890625 334.445312 261.722656 338.316406 258.910156 342.890625 C 256.445312 346.761719 254.6875 351.335938 253.277344 356.261719 C 251.871094 361.1875 251.519531 366.113281 251.519531 371.042969 C 251.519531 377.726562 252.925781 384.0625 255.742188 389.691406 C 258.558594 395.320312 262.429688 399.894531 267.355469 403.765625 C 272.632812 407.636719 278.613281 410.101562 286.003906 411.859375 C 293.394531 413.621094 301.488281 413.621094 310.636719 412.917969 C 318.027344 412.210938 324.007812 410.453125 329.289062 407.988281 C 334.214844 405.527344 338.789062 402.007812 342.308594 397.785156 L 354.976562 397.785156 C 352.511719 402.359375 350.046875 406.230469 346.53125 409.398438 Z M 346.53125 409.398438 " fill-opacity="1" fill-rule="nonzero"/></g><path fill="#ffffff" d="M 304.304688 349.929688 C 303.246094 348.519531 302.191406 347.816406 300.785156 347.113281 C 299.375 346.410156 297.96875 346.058594 296.210938 346.058594 C 292.691406 346.058594 289.523438 347.464844 286.707031 350.28125 C 283.894531 353.09375 281.78125 356.613281 280.375 360.835938 C 278.96875 365.058594 278.261719 369.632812 278.261719 374.207031 C 278.261719 378.78125 279.320312 382.652344 281.078125 385.117188 C 283.191406 387.582031 285.652344 388.988281 288.820312 388.988281 C 292.691406 388.988281 295.859375 387.582031 298.671875 384.414062 C 301.488281 381.597656 303.597656 377.726562 305.007812 373.152344 C 306.414062 368.578125 307.117188 364.355469 307.117188 360.132812 C 307.117188 358.019531 306.765625 356.261719 306.414062 354.503906 C 306.0625 352.742188 305.359375 350.984375 304.304688 349.929688 Z M 304.304688 349.929688 " fill-opacity="1" fill-rule="nonzero"/><g clip-path="url(#2a872db160)"><path fill="#ffffff" d="M 300.433594 476.609375 C 299.023438 477.664062 296.914062 477.664062 295.152344 476.609375 L 229.351562 437.902344 L 135.746094 493.148438 C 136.449219 500.539062 139.617188 507.222656 144.894531 512.148438 C 150.527344 517.78125 158.269531 521.296875 166.714844 521.296875 L 428.871094 521.296875 C 437.316406 521.296875 445.058594 517.78125 450.691406 512.148438 C 455.617188 507.222656 459.136719 500.539062 459.839844 493.148438 L 365.882812 437.902344 Z M 300.433594 476.609375 " fill-opacity="1" fill-rule="nonzero"/></g><g clip-path="url(#a9a4a512a5)"><path fill="#ffffff" d="M 135.394531 383.003906 L 135.394531 481.535156 L 219.144531 432.269531 Z M 135.394531 383.003906 " fill-opacity="1" fill-rule="nonzero"/></g></svg>