<svg xmlns="http://www.w3.org/2000/svg" xmlns:xlink="http://www.w3.org/1999/xlink" width="793" zoomAndPan="magnify" viewBox="0 0 594.95996 842.24997" height="1122" preserveAspectRatio="xMidYMid meet" version="1.0"><defs><clipPath id="8da66a25e1"><path d="M 0.246094 0 L 594.675781 0 L 594.675781 841.5 L 0.246094 841.5 Z M 0.246094 0 " clip-rule="nonzero"/></clipPath><clipPath id="0e21b8e8ff"><path d="M 0.246094 0 L 594.675781 0 L 594.675781 841.136719 L 0.246094 841.136719 Z M 0.246094 0 " clip-rule="nonzero"/></clipPath><linearGradient x1="0.00519078" gradientTransform="matrix(0.74933, 0, 0, 0.74933, 0.240781, 0)" y1="561.26001" x2="793.288226" gradientUnits="userSpaceOnUse" y2="561.26001" id="eba42d5c4a"><stop stop-opacity="1" stop-color="rgb(19.198608%, 29.798889%, 38.398743%)" offset="0"/><stop stop-opacity="1" stop-color="rgb(19.239807%, 29.881287%, 38.513184%)" offset="0.0078125"/><stop stop-opacity="1" stop-color="rgb(19.32373%, 30.047607%, 38.743591%)" offset="0.015625"/><stop stop-opacity="1" stop-color="rgb(19.406128%, 30.212402%, 38.972473%)" offset="0.0234375"/><stop stop-opacity="1" stop-color="rgb(19.488525%, 30.378723%, 39.202881%)" offset="0.03125"/><stop stop-opacity="1" stop-color="rgb(19.570923%, 30.543518%, 39.431763%)" offset="0.0390625"/><stop stop-opacity="1" stop-color="rgb(19.654846%, 30.709839%, 39.66217%)" offset="0.046875"/><stop stop-opacity="1" stop-color="rgb(19.737244%, 30.874634%, 39.891052%)" offset="0.0546875"/><stop stop-opacity="1" stop-color="rgb(19.819641%, 31.040955%, 40.12146%)" offset="0.0625"/><stop stop-opacity="1" stop-color="rgb(19.902039%, 31.20575%, 40.350342%)" offset="0.0703125"/><stop stop-opacity="1" stop-color="rgb(19.985962%, 31.37207%, 40.579224%)" offset="0.078125"/><stop stop-opacity="1" stop-color="rgb(20.068359%, 31.536865%, 40.809631%)" offset="0.0859375"/><stop stop-opacity="1" stop-color="rgb(20.150757%, 31.703186%, 41.038513%)" offset="0.09375"/><stop stop-opacity="1" stop-color="rgb(20.233154%, 31.867981%, 41.268921%)" offset="0.101563"/><stop stop-opacity="1" stop-color="rgb(20.317078%, 32.034302%, 41.497803%)" offset="0.109375"/><stop stop-opacity="1" stop-color="rgb(20.399475%, 32.199097%, 41.72821%)" offset="0.117188"/><stop stop-opacity="1" stop-color="rgb(20.481873%, 32.365417%, 41.957092%)" offset="0.125"/><stop stop-opacity="1" stop-color="rgb(20.56427%, 32.530212%, 42.1875%)" offset="0.132813"/><stop stop-opacity="1" stop-color="rgb(20.648193%, 32.696533%, 42.416382%)" offset="0.140625"/><stop stop-opacity="1" stop-color="rgb(20.730591%, 32.861328%, 42.64679%)" offset="0.148438"/><stop stop-opacity="1" stop-color="rgb(20.812988%, 33.027649%, 42.875671%)" offset="0.15625"/><stop stop-opacity="1" stop-color="rgb(20.895386%, 33.192444%, 43.104553%)" offset="0.164063"/><stop stop-opacity="1" stop-color="rgb(20.979309%, 33.358765%, 43.334961%)" offset="0.171875"/><stop stop-opacity="1" stop-color="rgb(21.061707%, 33.52356%, 43.563843%)" offset="0.179688"/><stop stop-opacity="1" stop-color="rgb(21.144104%, 33.68988%, 43.79425%)" offset="0.1875"/><stop stop-opacity="1" stop-color="rgb(21.226501%, 33.854675%, 44.023132%)" offset="0.195313"/><stop stop-opacity="1" stop-color="rgb(21.310425%, 34.01947%, 44.25354%)" offset="0.203125"/><stop stop-opacity="1" stop-color="rgb(21.392822%, 34.185791%, 44.482422%)" offset="0.210938"/><stop stop-opacity="1" stop-color="rgb(21.47522%, 34.350586%, 44.71283%)" offset="0.21875"/><stop stop-opacity="1" stop-color="rgb(21.557617%, 34.516907%, 44.941711%)" offset="0.226563"/><stop stop-opacity="1" stop-color="rgb(21.641541%, 34.681702%, 45.170593%)" offset="0.234375"/><stop stop-opacity="1" stop-color="rgb(21.723938%, 34.848022%, 45.401001%)" offset="0.242188"/><stop stop-opacity="1" stop-color="rgb(21.806335%, 35.012817%, 45.629883%)" offset="0.25"/><stop stop-opacity="1" stop-color="rgb(21.888733%, 35.179138%, 45.860291%)" offset="0.257812"/><stop stop-opacity="1" stop-color="rgb(21.97113%, 35.343933%, 46.089172%)" offset="0.265625"/><stop stop-opacity="1" stop-color="rgb(22.055054%, 35.510254%, 46.31958%)" offset="0.273438"/><stop stop-opacity="1" stop-color="rgb(22.137451%, 35.675049%, 46.548462%)" offset="0.28125"/><stop stop-opacity="1" stop-color="rgb(22.219849%, 35.84137%, 46.77887%)" offset="0.289062"/><stop stop-opacity="1" stop-color="rgb(22.302246%, 36.006165%, 47.007751%)" offset="0.296875"/><stop stop-opacity="1" stop-color="rgb(22.386169%, 36.172485%, 47.238159%)" offset="0.304688"/><stop stop-opacity="1" stop-color="rgb(22.468567%, 36.33728%, 47.467041%)" offset="0.3125"/><stop stop-opacity="1" stop-color="rgb(22.550964%, 36.503601%, 47.695923%)" offset="0.320312"/><stop stop-opacity="1" stop-color="rgb(22.633362%, 36.668396%, 47.926331%)" offset="0.328125"/><stop stop-opacity="1" stop-color="rgb(22.717285%, 36.834717%, 48.155212%)" offset="0.335937"/><stop stop-opacity="1" stop-color="rgb(22.799683%, 36.999512%, 48.38562%)" offset="0.34375"/><stop stop-opacity="1" stop-color="rgb(22.88208%, 37.165833%, 48.614502%)" offset="0.351562"/><stop stop-opacity="1" stop-color="rgb(22.964478%, 37.330627%, 48.84491%)" offset="0.359375"/><stop stop-opacity="1" stop-color="rgb(23.048401%, 37.496948%, 49.073792%)" offset="0.367187"/><stop stop-opacity="1" stop-color="rgb(23.130798%, 37.661743%, 49.304199%)" offset="0.375"/><stop stop-opacity="1" stop-color="rgb(23.213196%, 37.828064%, 49.533081%)" offset="0.382812"/><stop stop-opacity="1" stop-color="rgb(23.295593%, 37.992859%, 49.761963%)" offset="0.390625"/><stop stop-opacity="1" stop-color="rgb(23.379517%, 38.15918%, 49.992371%)" offset="0.398437"/><stop stop-opacity="1" stop-color="rgb(23.461914%, 38.323975%, 50.221252%)" offset="0.40625"/><stop stop-opacity="1" stop-color="rgb(23.544312%, 38.490295%, 50.45166%)" offset="0.414062"/><stop stop-opacity="1" stop-color="rgb(23.626709%, 38.65509%, 50.680542%)" offset="0.421875"/><stop stop-opacity="1" stop-color="rgb(23.710632%, 38.821411%, 50.91095%)" offset="0.429687"/><stop stop-opacity="1" stop-color="rgb(23.79303%, 38.986206%, 51.139832%)" offset="0.4375"/><stop stop-opacity="1" stop-color="rgb(23.875427%, 39.152527%, 51.370239%)" offset="0.445312"/><stop stop-opacity="1" stop-color="rgb(23.957825%, 39.317322%, 51.599121%)" offset="0.453125"/><stop stop-opacity="1" stop-color="rgb(24.041748%, 39.483643%, 51.828003%)" offset="0.460938"/><stop stop-opacity="1" stop-color="rgb(24.124146%, 39.648438%, 52.058411%)" offset="0.46875"/><stop stop-opacity="1" stop-color="rgb(24.206543%, 39.814758%, 52.287292%)" offset="0.476562"/><stop stop-opacity="1" stop-color="rgb(24.28894%, 39.979553%, 52.5177%)" offset="0.484375"/><stop stop-opacity="1" stop-color="rgb(24.372864%, 40.145874%, 52.746582%)" offset="0.492188"/><stop stop-opacity="1" stop-color="rgb(24.455261%, 40.310669%, 52.97699%)" offset="0.5"/><stop stop-opacity="1" stop-color="rgb(24.537659%, 40.475464%, 53.205872%)" offset="0.507812"/><stop stop-opacity="1" stop-color="rgb(24.620056%, 40.641785%, 53.436279%)" offset="0.515625"/><stop stop-opacity="1" stop-color="rgb(24.703979%, 40.80658%, 53.665161%)" offset="0.523438"/><stop stop-opacity="1" stop-color="rgb(24.786377%, 40.9729%, 53.895569%)" offset="0.53125"/><stop stop-opacity="1" stop-color="rgb(24.868774%, 41.137695%, 54.124451%)" offset="0.539062"/><stop stop-opacity="1" stop-color="rgb(24.951172%, 41.304016%, 54.353333%)" offset="0.546875"/><stop stop-opacity="1" stop-color="rgb(25.033569%, 41.468811%, 54.58374%)" offset="0.554687"/><stop stop-opacity="1" stop-color="rgb(25.117493%, 41.635132%, 54.812622%)" offset="0.5625"/><stop stop-opacity="1" stop-color="rgb(25.19989%, 41.799927%, 55.04303%)" offset="0.570313"/><stop stop-opacity="1" stop-color="rgb(25.282288%, 41.966248%, 55.271912%)" offset="0.578125"/><stop stop-opacity="1" stop-color="rgb(25.364685%, 42.131042%, 55.502319%)" offset="0.585938"/><stop stop-opacity="1" stop-color="rgb(25.448608%, 42.297363%, 55.731201%)" offset="0.59375"/><stop stop-opacity="1" stop-color="rgb(25.531006%, 42.462158%, 55.961609%)" offset="0.601562"/><stop stop-opacity="1" stop-color="rgb(25.613403%, 42.628479%, 56.190491%)" offset="0.609375"/><stop stop-opacity="1" stop-color="rgb(25.695801%, 42.793274%, 56.419373%)" offset="0.617188"/><stop stop-opacity="1" stop-color="rgb(25.779724%, 42.959595%, 56.64978%)" offset="0.625"/><stop stop-opacity="1" stop-color="rgb(25.862122%, 43.12439%, 56.878662%)" offset="0.632812"/><stop stop-opacity="1" stop-color="rgb(25.944519%, 43.29071%, 57.10907%)" offset="0.640625"/><stop stop-opacity="1" stop-color="rgb(26.026917%, 43.455505%, 57.337952%)" offset="0.648438"/><stop stop-opacity="1" stop-color="rgb(26.11084%, 43.621826%, 57.568359%)" offset="0.65625"/><stop stop-opacity="1" stop-color="rgb(26.193237%, 43.786621%, 57.797241%)" offset="0.664062"/><stop stop-opacity="1" stop-color="rgb(26.275635%, 43.952942%, 58.027649%)" offset="0.671875"/><stop stop-opacity="1" stop-color="rgb(26.358032%, 44.117737%, 58.256531%)" offset="0.679688"/><stop stop-opacity="1" stop-color="rgb(26.441956%, 44.284058%, 58.485413%)" offset="0.6875"/><stop stop-opacity="1" stop-color="rgb(26.524353%, 44.448853%, 58.71582%)" offset="0.695313"/><stop stop-opacity="1" stop-color="rgb(26.60675%, 44.615173%, 58.944702%)" offset="0.703125"/><stop stop-opacity="1" stop-color="rgb(26.689148%, 44.779968%, 59.17511%)" offset="0.710938"/><stop stop-opacity="1" stop-color="rgb(26.773071%, 44.946289%, 59.403992%)" offset="0.71875"/><stop stop-opacity="1" stop-color="rgb(26.855469%, 45.111084%, 59.634399%)" offset="0.726562"/><stop stop-opacity="1" stop-color="rgb(26.937866%, 45.277405%, 59.863281%)" offset="0.734375"/><stop stop-opacity="1" stop-color="rgb(27.020264%, 45.4422%, 60.093689%)" offset="0.742188"/><stop stop-opacity="1" stop-color="rgb(27.104187%, 45.608521%, 60.322571%)" offset="0.75"/><stop stop-opacity="1" stop-color="rgb(27.186584%, 45.773315%, 60.552979%)" offset="0.757812"/><stop stop-opacity="1" stop-color="rgb(27.268982%, 45.939636%, 60.78186%)" offset="0.765625"/><stop stop-opacity="1" stop-color="rgb(27.351379%, 46.104431%, 61.010742%)" offset="0.773438"/><stop stop-opacity="1" stop-color="rgb(27.435303%, 46.270752%, 61.24115%)" offset="0.78125"/><stop stop-opacity="1" stop-color="rgb(27.5177%, 46.435547%, 61.470032%)" offset="0.789063"/><stop stop-opacity="1" stop-color="rgb(27.600098%, 46.600342%, 61.700439%)" offset="0.796875"/><stop stop-opacity="1" stop-color="rgb(27.682495%, 46.766663%, 61.929321%)" offset="0.804688"/><stop stop-opacity="1" stop-color="rgb(27.766418%, 46.931458%, 62.159729%)" offset="0.8125"/><stop stop-opacity="1" stop-color="rgb(27.848816%, 47.097778%, 62.388611%)" offset="0.820313"/><stop stop-opacity="1" stop-color="rgb(27.931213%, 47.262573%, 62.619019%)" offset="0.828125"/><stop stop-opacity="1" stop-color="rgb(28.013611%, 47.428894%, 62.8479%)" offset="0.835938"/><stop stop-opacity="1" stop-color="rgb(28.097534%, 47.593689%, 63.076782%)" offset="0.84375"/><stop stop-opacity="1" stop-color="rgb(28.179932%, 47.76001%, 63.30719%)" offset="0.851562"/><stop stop-opacity="1" stop-color="rgb(28.262329%, 47.924805%, 63.536072%)" offset="0.859375"/><stop stop-opacity="1" stop-color="rgb(28.344727%, 48.091125%, 63.766479%)" offset="0.867188"/><stop stop-opacity="1" stop-color="rgb(28.427124%, 48.25592%, 63.995361%)" offset="0.875"/><stop stop-opacity="1" stop-color="rgb(28.511047%, 48.422241%, 64.225769%)" offset="0.882812"/><stop stop-opacity="1" stop-color="rgb(28.593445%, 48.587036%, 64.454651%)" offset="0.890625"/><stop stop-opacity="1" stop-color="rgb(28.675842%, 48.753357%, 64.685059%)" offset="0.898438"/><stop stop-opacity="1" stop-color="rgb(28.75824%, 48.918152%, 64.91394%)" offset="0.90625"/><stop stop-opacity="1" stop-color="rgb(28.842163%, 49.084473%, 65.144348%)" offset="0.914063"/><stop stop-opacity="1" stop-color="rgb(28.924561%, 49.249268%, 65.37323%)" offset="0.921875"/><stop stop-opacity="1" stop-color="rgb(29.006958%, 49.415588%, 65.602112%)" offset="0.929688"/><stop stop-opacity="1" stop-color="rgb(29.089355%, 49.580383%, 65.83252%)" offset="0.9375"/><stop stop-opacity="1" stop-color="rgb(29.173279%, 49.746704%, 66.061401%)" offset="0.945312"/><stop stop-opacity="1" stop-color="rgb(29.255676%, 49.911499%, 66.291809%)" offset="0.953125"/><stop stop-opacity="1" stop-color="rgb(29.338074%, 50.07782%, 66.520691%)" offset="0.960938"/><stop stop-opacity="1" stop-color="rgb(29.420471%, 50.242615%, 66.751099%)" offset="0.96875"/><stop stop-opacity="1" stop-color="rgb(29.504395%, 50.408936%, 66.97998%)" offset="0.976562"/><stop stop-opacity="1" stop-color="rgb(29.586792%, 50.57373%, 67.210388%)" offset="0.984375"/><stop stop-opacity="1" stop-color="rgb(29.669189%, 50.740051%, 67.43927%)" offset="0.992187"/><stop stop-opacity="1" stop-color="rgb(29.751587%, 50.904846%, 67.668152%)" offset="1"/></linearGradient><clipPath id="912e8034e5"><path d="M 144.089844 310.03125 L 449 310.03125 L 449 494 L 144.089844 494 Z M 144.089844 310.03125 " clip-rule="nonzero"/></clipPath><clipPath id="34fea1a703"><path d="M 329 405 L 449 405 L 449 531.082031 L 329 531.082031 Z M 329 405 " clip-rule="nonzero"/></clipPath><clipPath id="193bdb067e"><path d="M 33.894531 156.847656 L 561.425781 156.847656 L 561.425781 317.953125 L 33.894531 317.953125 Z M 33.894531 156.847656 " clip-rule="nonzero"/></clipPath><clipPath id="79a01b1e77"><path d="M 33.894531 156.847656 L 151.539062 156.847656 L 151.539062 684.378906 L 33.894531 684.378906 Z M 33.894531 156.847656 " clip-rule="nonzero"/></clipPath><clipPath id="44dbd4a0a0"><path d="M 447.359375 156.847656 L 561.257812 156.847656 L 561.257812 684.378906 L 447.359375 684.378906 Z M 447.359375 156.847656 " clip-rule="nonzero"/></clipPath><clipPath id="e84a646b73"><path d="M 33.894531 521.308594 L 561.425781 521.308594 L 561.425781 684.378906 L 33.894531 684.378906 Z M 33.894531 521.308594 " clip-rule="nonzero"/></clipPath></defs><g clip-path="url(#8da66a25e1)"><path fill="#ffffff" d="M 0.246094 0 L 595.214844 0 L 595.214844 841.5 L 0.246094 841.5 Z M 0.246094 0 " fill-opacity="1" fill-rule="nonzero"/></g><g clip-path="url(#0e21b8e8ff)"><path fill="url(#eba42d5c4a)" d="M 0.246094 0 L 0.246094 841.136719 L 594.675781 841.136719 L 594.675781 0 Z M 0.246094 0 " fill-rule="nonzero"/></g><g clip-path="url(#912e8034e5)"><path fill="#ffffff" d="M 429.667969 310.03125 L 163.425781 310.03125 C 152.964844 310.03125 144.40625 318.585938 144.40625 329.046875 L 144.40625 474.054688 C 144.40625 484.515625 152.964844 493.070312 163.425781 493.070312 L 345.40625 493.070312 L 342.136719 483.5625 L 163.425781 483.5625 C 158.179688 483.5625 153.914062 479.300781 153.914062 474.054688 L 153.914062 329.046875 C 153.914062 328.308594 154.019531 327.597656 154.179688 326.90625 L 292.53125 418.589844 C 293.328125 419.117188 294.242188 419.378906 295.160156 419.378906 C 296.082031 419.378906 297.007812 419.109375 297.808594 418.570312 L 437.957031 324.484375 C 438.710938 325.847656 439.175781 327.386719 439.175781 329.046875 L 439.175781 474.054688 C 439.175781 476.300781 438.359375 478.34375 437.050781 479.972656 L 443.570312 486.96875 C 446.730469 483.566406 448.683594 479.035156 448.683594 474.054688 L 448.683594 329.046875 C 448.683594 318.585938 440.125 310.03125 429.667969 310.03125 Z M 295.140625 408.910156 L 160.867188 319.929688 C 161.6875 319.703125 162.53125 319.539062 163.425781 319.539062 L 428.269531 319.539062 Z M 295.140625 408.910156 " fill-opacity="1" fill-rule="nonzero"/></g><g clip-path="url(#34fea1a703)"><path fill="#ffffff" d="M 407.828125 462.558594 L 420.578125 456.84375 C 432.800781 450.28125 432.367188 440.640625 419.609375 435.296875 L 346.320312 406.917969 C 343.398438 405.695312 340.792969 405.117188 338.558594 405.117188 C 331.042969 405.117188 327.78125 411.6875 331.152344 422.394531 L 357.417969 498.757812 C 359.730469 506.09375 363.324219 509.816406 367.191406 509.816406 C 370.644531 509.816406 374.316406 506.84375 377.484375 500.828125 L 383.429688 487.390625 L 417.132812 523.558594 C 421.753906 528.515625 427.742188 531.105469 433.300781 531.105469 C 437.335938 531.105469 441.144531 529.742188 444.042969 526.921875 C 450.933594 520.226562 450.046875 507.859375 442.070312 499.304688 Z M 437.414062 520.105469 C 436.398438 521.097656 435.011719 521.597656 433.300781 521.597656 C 430.175781 521.597656 426.730469 519.910156 424.089844 517.074219 L 390.386719 480.90625 L 380.5625 470.367188 L 374.734375 483.542969 L 368.929688 496.660156 C 368.457031 497.539062 368.011719 498.238281 367.613281 498.792969 C 367.257812 498.0625 366.867188 497.109375 366.484375 495.898438 L 366.449219 495.785156 L 366.410156 495.667969 L 340.1875 419.429688 C 339.476562 417.136719 339.328125 415.605469 339.335938 414.691406 C 340.039062 414.796875 341.132812 415.054688 342.644531 415.6875 L 342.765625 415.738281 L 342.886719 415.785156 L 416.046875 444.113281 C 417.769531 444.847656 418.851562 445.558594 419.472656 446.070312 C 418.949219 446.609375 418.003906 447.40625 416.351562 448.316406 L 403.9375 453.882812 L 391.8125 459.316406 L 400.875 469.039062 L 435.117188 505.789062 C 439.886719 510.90625 440.160156 517.441406 437.414062 520.105469 Z M 437.414062 520.105469 " fill-opacity="1" fill-rule="nonzero"/></g><g clip-path="url(#193bdb067e)"><path fill="#ffffff" d="M 297.589844 167.4375 C 158.035156 167.4375 44.484375 280.980469 44.484375 420.542969 C 44.488281 560.101562 158.03125 673.644531 297.585938 673.644531 C 437.144531 673.644531 550.6875 560.101562 550.6875 420.542969 C 550.691406 280.976562 437.140625 167.4375 297.589844 167.4375 Z M 297.589844 684.230469 C 152.1875 684.230469 33.894531 565.941406 33.894531 420.539062 C 33.894531 275.140625 152.1875 156.847656 297.589844 156.847656 C 442.988281 156.847656 561.28125 275.140625 561.28125 420.539062 C 561.28125 565.9375 442.988281 684.234375 297.589844 684.230469 Z M 297.589844 684.230469 " fill-opacity="1" fill-rule="evenodd"/></g><g clip-path="url(#79a01b1e77)"><path fill="#ffffff" d="M 297.589844 167.4375 C 158.035156 167.4375 44.484375 280.980469 44.484375 420.542969 C 44.488281 560.101562 158.03125 673.644531 297.585938 673.644531 C 437.144531 673.644531 550.6875 560.101562 550.6875 420.542969 C 550.691406 280.976562 437.140625 167.4375 297.589844 167.4375 Z M 297.589844 684.230469 C 152.1875 684.230469 33.894531 565.941406 33.894531 420.539062 C 33.894531 275.140625 152.1875 156.847656 297.589844 156.847656 C 442.988281 156.847656 561.28125 275.140625 561.28125 420.539062 C 561.28125 565.9375 442.988281 684.234375 297.589844 684.230469 Z M 297.589844 684.230469 " fill-opacity="1" fill-rule="evenodd"/></g><g clip-path="url(#44dbd4a0a0)"><path fill="#ffffff" d="M 297.589844 167.4375 C 158.035156 167.4375 44.484375 280.980469 44.484375 420.542969 C 44.488281 560.101562 158.03125 673.644531 297.585938 673.644531 C 437.144531 673.644531 550.6875 560.101562 550.6875 420.542969 C 550.691406 280.976562 437.140625 167.4375 297.589844 167.4375 Z M 297.589844 684.230469 C 152.1875 684.230469 33.894531 565.941406 33.894531 420.539062 C 33.894531 275.140625 152.1875 156.847656 297.589844 156.847656 C 442.988281 156.847656 561.28125 275.140625 561.28125 420.539062 C 561.28125 565.9375 442.988281 684.234375 297.589844 684.230469 Z M 297.589844 684.230469 " fill-opacity="1" fill-rule="evenodd"/></g><g clip-path="url(#e84a646b73)"><path fill="#ffffff" d="M 297.589844 167.4375 C 158.035156 167.4375 44.484375 280.980469 44.484375 420.542969 C 44.488281 560.101562 158.03125 673.644531 297.585938 673.644531 C 437.144531 673.644531 550.6875 560.101562 550.6875 420.542969 C 550.691406 280.976562 437.140625 167.4375 297.589844 167.4375 Z M 297.589844 684.230469 C 152.1875 684.230469 33.894531 565.941406 33.894531 420.539062 C 33.894531 275.140625 152.1875 156.847656 297.589844 156.847656 C 442.988281 156.847656 561.28125 275.140625 561.28125 420.539062 C 561.28125 565.9375 442.988281 684.234375 297.589844 684.230469 Z M 297.589844 684.230469 " fill-opacity="1" fill-rule="evenodd"/></g></svg>