<svg xmlns="http://www.w3.org/2000/svg" xmlns:xlink="http://www.w3.org/1999/xlink" width="793" zoomAndPan="magnify" viewBox="0 0 594.95996 842.24997" height="1122" preserveAspectRatio="xMidYMid meet" version="1.0"><defs><clipPath id="dc45c59e6e"><path d="M 0.246094 0 L 594.675781 0 L 594.675781 841.5 L 0.246094 841.5 Z M 0.246094 0 " clip-rule="nonzero"/></clipPath><clipPath id="8b54ddd896"><path d="M 0.246094 0 L 594.675781 0 L 594.675781 841.136719 L 0.246094 841.136719 Z M 0.246094 0 " clip-rule="nonzero"/></clipPath><linearGradient x1="0.00519078" gradientTransform="matrix(0.74933, 0, 0, 0.74933, 0.240781, 0)" y1="561.26001" x2="793.288226" gradientUnits="userSpaceOnUse" y2="561.26001" id="546fa89746"><stop stop-opacity="1" stop-color="rgb(19.198608%, 29.798889%, 38.398743%)" offset="0"/><stop stop-opacity="1" stop-color="rgb(19.239807%, 29.881287%, 38.513184%)" offset="0.0078125"/><stop stop-opacity="1" stop-color="rgb(19.32373%, 30.047607%, 38.743591%)" offset="0.015625"/><stop stop-opacity="1" stop-color="rgb(19.406128%, 30.212402%, 38.972473%)" offset="0.0234375"/><stop stop-opacity="1" stop-color="rgb(19.488525%, 30.378723%, 39.202881%)" offset="0.03125"/><stop stop-opacity="1" stop-color="rgb(19.570923%, 30.543518%, 39.431763%)" offset="0.0390625"/><stop stop-opacity="1" stop-color="rgb(19.654846%, 30.709839%, 39.66217%)" offset="0.046875"/><stop stop-opacity="1" stop-color="rgb(19.737244%, 30.874634%, 39.891052%)" offset="0.0546875"/><stop stop-opacity="1" stop-color="rgb(19.819641%, 31.040955%, 40.12146%)" offset="0.0625"/><stop stop-opacity="1" stop-color="rgb(19.902039%, 31.20575%, 40.350342%)" offset="0.0703125"/><stop stop-opacity="1" stop-color="rgb(19.985962%, 31.37207%, 40.579224%)" offset="0.078125"/><stop stop-opacity="1" stop-color="rgb(20.068359%, 31.536865%, 40.809631%)" offset="0.0859375"/><stop stop-opacity="1" stop-color="rgb(20.150757%, 31.703186%, 41.038513%)" offset="0.09375"/><stop stop-opacity="1" stop-color="rgb(20.233154%, 31.867981%, 41.268921%)" offset="0.101563"/><stop stop-opacity="1" stop-color="rgb(20.317078%, 32.034302%, 41.497803%)" offset="0.109375"/><stop stop-opacity="1" stop-color="rgb(20.399475%, 32.199097%, 41.72821%)" offset="0.117188"/><stop stop-opacity="1" stop-color="rgb(20.481873%, 32.365417%, 41.957092%)" offset="0.125"/><stop stop-opacity="1" stop-color="rgb(20.56427%, 32.530212%, 42.1875%)" offset="0.132813"/><stop stop-opacity="1" stop-color="rgb(20.648193%, 32.696533%, 42.416382%)" offset="0.140625"/><stop stop-opacity="1" stop-color="rgb(20.730591%, 32.861328%, 42.64679%)" offset="0.148438"/><stop stop-opacity="1" stop-color="rgb(20.812988%, 33.027649%, 42.875671%)" offset="0.15625"/><stop stop-opacity="1" stop-color="rgb(20.895386%, 33.192444%, 43.104553%)" offset="0.164063"/><stop stop-opacity="1" stop-color="rgb(20.979309%, 33.358765%, 43.334961%)" offset="0.171875"/><stop stop-opacity="1" stop-color="rgb(21.061707%, 33.52356%, 43.563843%)" offset="0.179688"/><stop stop-opacity="1" stop-color="rgb(21.144104%, 33.68988%, 43.79425%)" offset="0.1875"/><stop stop-opacity="1" stop-color="rgb(21.226501%, 33.854675%, 44.023132%)" offset="0.195313"/><stop stop-opacity="1" stop-color="rgb(21.310425%, 34.01947%, 44.25354%)" offset="0.203125"/><stop stop-opacity="1" stop-color="rgb(21.392822%, 34.185791%, 44.482422%)" offset="0.210938"/><stop stop-opacity="1" stop-color="rgb(21.47522%, 34.350586%, 44.71283%)" offset="0.21875"/><stop stop-opacity="1" stop-color="rgb(21.557617%, 34.516907%, 44.941711%)" offset="0.226563"/><stop stop-opacity="1" stop-color="rgb(21.641541%, 34.681702%, 45.170593%)" offset="0.234375"/><stop stop-opacity="1" stop-color="rgb(21.723938%, 34.848022%, 45.401001%)" offset="0.242188"/><stop stop-opacity="1" stop-color="rgb(21.806335%, 35.012817%, 45.629883%)" offset="0.25"/><stop stop-opacity="1" stop-color="rgb(21.888733%, 35.179138%, 45.860291%)" offset="0.257812"/><stop stop-opacity="1" stop-color="rgb(21.97113%, 35.343933%, 46.089172%)" offset="0.265625"/><stop stop-opacity="1" stop-color="rgb(22.055054%, 35.510254%, 46.31958%)" offset="0.273438"/><stop stop-opacity="1" stop-color="rgb(22.137451%, 35.675049%, 46.548462%)" offset="0.28125"/><stop stop-opacity="1" stop-color="rgb(22.219849%, 35.84137%, 46.77887%)" offset="0.289062"/><stop stop-opacity="1" stop-color="rgb(22.302246%, 36.006165%, 47.007751%)" offset="0.296875"/><stop stop-opacity="1" stop-color="rgb(22.386169%, 36.172485%, 47.238159%)" offset="0.304688"/><stop stop-opacity="1" stop-color="rgb(22.468567%, 36.33728%, 47.467041%)" offset="0.3125"/><stop stop-opacity="1" stop-color="rgb(22.550964%, 36.503601%, 47.695923%)" offset="0.320312"/><stop stop-opacity="1" stop-color="rgb(22.633362%, 36.668396%, 47.926331%)" offset="0.328125"/><stop stop-opacity="1" stop-color="rgb(22.717285%, 36.834717%, 48.155212%)" offset="0.335937"/><stop stop-opacity="1" stop-color="rgb(22.799683%, 36.999512%, 48.38562%)" offset="0.34375"/><stop stop-opacity="1" stop-color="rgb(22.88208%, 37.165833%, 48.614502%)" offset="0.351562"/><stop stop-opacity="1" stop-color="rgb(22.964478%, 37.330627%, 48.84491%)" offset="0.359375"/><stop stop-opacity="1" stop-color="rgb(23.048401%, 37.496948%, 49.073792%)" offset="0.367187"/><stop stop-opacity="1" stop-color="rgb(23.130798%, 37.661743%, 49.304199%)" offset="0.375"/><stop stop-opacity="1" stop-color="rgb(23.213196%, 37.828064%, 49.533081%)" offset="0.382812"/><stop stop-opacity="1" stop-color="rgb(23.295593%, 37.992859%, 49.761963%)" offset="0.390625"/><stop stop-opacity="1" stop-color="rgb(23.379517%, 38.15918%, 49.992371%)" offset="0.398437"/><stop stop-opacity="1" stop-color="rgb(23.461914%, 38.323975%, 50.221252%)" offset="0.40625"/><stop stop-opacity="1" stop-color="rgb(23.544312%, 38.490295%, 50.45166%)" offset="0.414062"/><stop stop-opacity="1" stop-color="rgb(23.626709%, 38.65509%, 50.680542%)" offset="0.421875"/><stop stop-opacity="1" stop-color="rgb(23.710632%, 38.821411%, 50.91095%)" offset="0.429687"/><stop stop-opacity="1" stop-color="rgb(23.79303%, 38.986206%, 51.139832%)" offset="0.4375"/><stop stop-opacity="1" stop-color="rgb(23.875427%, 39.152527%, 51.370239%)" offset="0.445312"/><stop stop-opacity="1" stop-color="rgb(23.957825%, 39.317322%, 51.599121%)" offset="0.453125"/><stop stop-opacity="1" stop-color="rgb(24.041748%, 39.483643%, 51.828003%)" offset="0.460938"/><stop stop-opacity="1" stop-color="rgb(24.124146%, 39.648438%, 52.058411%)" offset="0.46875"/><stop stop-opacity="1" stop-color="rgb(24.206543%, 39.814758%, 52.287292%)" offset="0.476562"/><stop stop-opacity="1" stop-color="rgb(24.28894%, 39.979553%, 52.5177%)" offset="0.484375"/><stop stop-opacity="1" stop-color="rgb(24.372864%, 40.145874%, 52.746582%)" offset="0.492188"/><stop stop-opacity="1" stop-color="rgb(24.455261%, 40.310669%, 52.97699%)" offset="0.5"/><stop stop-opacity="1" stop-color="rgb(24.537659%, 40.475464%, 53.205872%)" offset="0.507812"/><stop stop-opacity="1" stop-color="rgb(24.620056%, 40.641785%, 53.436279%)" offset="0.515625"/><stop stop-opacity="1" stop-color="rgb(24.703979%, 40.80658%, 53.665161%)" offset="0.523438"/><stop stop-opacity="1" stop-color="rgb(24.786377%, 40.9729%, 53.895569%)" offset="0.53125"/><stop stop-opacity="1" stop-color="rgb(24.868774%, 41.137695%, 54.124451%)" offset="0.539062"/><stop stop-opacity="1" stop-color="rgb(24.951172%, 41.304016%, 54.353333%)" offset="0.546875"/><stop stop-opacity="1" stop-color="rgb(25.033569%, 41.468811%, 54.58374%)" offset="0.554687"/><stop stop-opacity="1" stop-color="rgb(25.117493%, 41.635132%, 54.812622%)" offset="0.5625"/><stop stop-opacity="1" stop-color="rgb(25.19989%, 41.799927%, 55.04303%)" offset="0.570313"/><stop stop-opacity="1" stop-color="rgb(25.282288%, 41.966248%, 55.271912%)" offset="0.578125"/><stop stop-opacity="1" stop-color="rgb(25.364685%, 42.131042%, 55.502319%)" offset="0.585938"/><stop stop-opacity="1" stop-color="rgb(25.448608%, 42.297363%, 55.731201%)" offset="0.59375"/><stop stop-opacity="1" stop-color="rgb(25.531006%, 42.462158%, 55.961609%)" offset="0.601562"/><stop stop-opacity="1" stop-color="rgb(25.613403%, 42.628479%, 56.190491%)" offset="0.609375"/><stop stop-opacity="1" stop-color="rgb(25.695801%, 42.793274%, 56.419373%)" offset="0.617188"/><stop stop-opacity="1" stop-color="rgb(25.779724%, 42.959595%, 56.64978%)" offset="0.625"/><stop stop-opacity="1" stop-color="rgb(25.862122%, 43.12439%, 56.878662%)" offset="0.632812"/><stop stop-opacity="1" stop-color="rgb(25.944519%, 43.29071%, 57.10907%)" offset="0.640625"/><stop stop-opacity="1" stop-color="rgb(26.026917%, 43.455505%, 57.337952%)" offset="0.648438"/><stop stop-opacity="1" stop-color="rgb(26.11084%, 43.621826%, 57.568359%)" offset="0.65625"/><stop stop-opacity="1" stop-color="rgb(26.193237%, 43.786621%, 57.797241%)" offset="0.664062"/><stop stop-opacity="1" stop-color="rgb(26.275635%, 43.952942%, 58.027649%)" offset="0.671875"/><stop stop-opacity="1" stop-color="rgb(26.358032%, 44.117737%, 58.256531%)" offset="0.679688"/><stop stop-opacity="1" stop-color="rgb(26.441956%, 44.284058%, 58.485413%)" offset="0.6875"/><stop stop-opacity="1" stop-color="rgb(26.524353%, 44.448853%, 58.71582%)" offset="0.695313"/><stop stop-opacity="1" stop-color="rgb(26.60675%, 44.615173%, 58.944702%)" offset="0.703125"/><stop stop-opacity="1" stop-color="rgb(26.689148%, 44.779968%, 59.17511%)" offset="0.710938"/><stop stop-opacity="1" stop-color="rgb(26.773071%, 44.946289%, 59.403992%)" offset="0.71875"/><stop stop-opacity="1" stop-color="rgb(26.855469%, 45.111084%, 59.634399%)" offset="0.726562"/><stop stop-opacity="1" stop-color="rgb(26.937866%, 45.277405%, 59.863281%)" offset="0.734375"/><stop stop-opacity="1" stop-color="rgb(27.020264%, 45.4422%, 60.093689%)" offset="0.742188"/><stop stop-opacity="1" stop-color="rgb(27.104187%, 45.608521%, 60.322571%)" offset="0.75"/><stop stop-opacity="1" stop-color="rgb(27.186584%, 45.773315%, 60.552979%)" offset="0.757812"/><stop stop-opacity="1" stop-color="rgb(27.268982%, 45.939636%, 60.78186%)" offset="0.765625"/><stop stop-opacity="1" stop-color="rgb(27.351379%, 46.104431%, 61.010742%)" offset="0.773438"/><stop stop-opacity="1" stop-color="rgb(27.435303%, 46.270752%, 61.24115%)" offset="0.78125"/><stop stop-opacity="1" stop-color="rgb(27.5177%, 46.435547%, 61.470032%)" offset="0.789063"/><stop stop-opacity="1" stop-color="rgb(27.600098%, 46.600342%, 61.700439%)" offset="0.796875"/><stop stop-opacity="1" stop-color="rgb(27.682495%, 46.766663%, 61.929321%)" offset="0.804688"/><stop stop-opacity="1" stop-color="rgb(27.766418%, 46.931458%, 62.159729%)" offset="0.8125"/><stop stop-opacity="1" stop-color="rgb(27.848816%, 47.097778%, 62.388611%)" offset="0.820313"/><stop stop-opacity="1" stop-color="rgb(27.931213%, 47.262573%, 62.619019%)" offset="0.828125"/><stop stop-opacity="1" stop-color="rgb(28.013611%, 47.428894%, 62.8479%)" offset="0.835938"/><stop stop-opacity="1" stop-color="rgb(28.097534%, 47.593689%, 63.076782%)" offset="0.84375"/><stop stop-opacity="1" stop-color="rgb(28.179932%, 47.76001%, 63.30719%)" offset="0.851562"/><stop stop-opacity="1" stop-color="rgb(28.262329%, 47.924805%, 63.536072%)" offset="0.859375"/><stop stop-opacity="1" stop-color="rgb(28.344727%, 48.091125%, 63.766479%)" offset="0.867188"/><stop stop-opacity="1" stop-color="rgb(28.427124%, 48.25592%, 63.995361%)" offset="0.875"/><stop stop-opacity="1" stop-color="rgb(28.511047%, 48.422241%, 64.225769%)" offset="0.882812"/><stop stop-opacity="1" stop-color="rgb(28.593445%, 48.587036%, 64.454651%)" offset="0.890625"/><stop stop-opacity="1" stop-color="rgb(28.675842%, 48.753357%, 64.685059%)" offset="0.898438"/><stop stop-opacity="1" stop-color="rgb(28.75824%, 48.918152%, 64.91394%)" offset="0.90625"/><stop stop-opacity="1" stop-color="rgb(28.842163%, 49.084473%, 65.144348%)" offset="0.914063"/><stop stop-opacity="1" stop-color="rgb(28.924561%, 49.249268%, 65.37323%)" offset="0.921875"/><stop stop-opacity="1" stop-color="rgb(29.006958%, 49.415588%, 65.602112%)" offset="0.929688"/><stop stop-opacity="1" stop-color="rgb(29.089355%, 49.580383%, 65.83252%)" offset="0.9375"/><stop stop-opacity="1" stop-color="rgb(29.173279%, 49.746704%, 66.061401%)" offset="0.945312"/><stop stop-opacity="1" stop-color="rgb(29.255676%, 49.911499%, 66.291809%)" offset="0.953125"/><stop stop-opacity="1" stop-color="rgb(29.338074%, 50.07782%, 66.520691%)" offset="0.960938"/><stop stop-opacity="1" stop-color="rgb(29.420471%, 50.242615%, 66.751099%)" offset="0.96875"/><stop stop-opacity="1" stop-color="rgb(29.504395%, 50.408936%, 66.97998%)" offset="0.976562"/><stop stop-opacity="1" stop-color="rgb(29.586792%, 50.57373%, 67.210388%)" offset="0.984375"/><stop stop-opacity="1" stop-color="rgb(29.669189%, 50.740051%, 67.43927%)" offset="0.992187"/><stop stop-opacity="1" stop-color="rgb(29.751587%, 50.904846%, 67.668152%)" offset="1"/></linearGradient><clipPath id="7914ae550c"><path d="M 152.746094 285.578125 L 442.558594 285.578125 L 442.558594 555.335938 L 152.746094 555.335938 Z M 152.746094 285.578125 " clip-rule="nonzero"/></clipPath><clipPath id="4de99d1498"><path d="M 33.894531 156.847656 L 561.425781 156.847656 L 561.425781 317.953125 L 33.894531 317.953125 Z M 33.894531 156.847656 " clip-rule="nonzero"/></clipPath><clipPath id="f5ec5d0129"><path d="M 33.894531 156.847656 L 151.539062 156.847656 L 151.539062 684.378906 L 33.894531 684.378906 Z M 33.894531 156.847656 " clip-rule="nonzero"/></clipPath><clipPath id="14d75d2062"><path d="M 447.359375 156.847656 L 561.257812 156.847656 L 561.257812 684.378906 L 447.359375 684.378906 Z M 447.359375 156.847656 " clip-rule="nonzero"/></clipPath><clipPath id="1706a35a1c"><path d="M 33.894531 521.308594 L 561.425781 521.308594 L 561.425781 684.378906 L 33.894531 684.378906 Z M 33.894531 521.308594 " clip-rule="nonzero"/></clipPath></defs><g clip-path="url(#dc45c59e6e)"><path fill="#ffffff" d="M 0.246094 0 L 595.214844 0 L 595.214844 841.5 L 0.246094 841.5 Z M 0.246094 0 " fill-opacity="1" fill-rule="nonzero"/></g><g clip-path="url(#8b54ddd896)"><path fill="url(#546fa89746)" d="M 0.246094 0 L 0.246094 841.136719 L 594.675781 841.136719 L 594.675781 0 Z M 0.246094 0 " fill-rule="nonzero"/></g><path fill="#ffffff" d="M 295.761719 329.226562 C 296.894531 329.71875 298.128906 329.71875 299.261719 329.226562 L 301.730469 346.746094 L 297.460938 351.710938 L 293.292969 346.746094 Z M 295.761719 323.773438 L 298.898438 323.773438 L 299.878906 326.605469 C 299.980469 326.835938 299.980469 327.09375 299.878906 327.300781 L 299.722656 327.300781 C 298.589844 328.609375 296.636719 328.765625 295.351562 327.660156 C 295.195312 327.554688 295.09375 327.429688 294.988281 327.300781 C 294.886719 327.09375 294.886719 326.835938 294.988281 326.605469 Z M 290.308594 320.429688 C 285.0625 320.457031 280.429688 323.980469 278.992188 329.046875 C 276.265625 338.71875 275.285156 348.828125 276.210938 358.835938 C 276.367188 360.816406 278.117188 362.28125 280.121094 362.101562 C 282.078125 361.921875 283.519531 360.171875 283.363281 358.191406 C 282.539062 349.652344 283.210938 341.007812 285.320312 332.675781 C 285.371094 332.546875 285.472656 332.445312 285.628906 332.496094 C 285.730469 332.519531 285.832031 332.597656 285.832031 332.675781 L 285.832031 344.328125 L 284.339844 345.277344 C 284.339844 345.769531 284.339844 346.28125 284.339844 346.769531 L 285.574219 345.949219 L 293.394531 357.601562 L 279.144531 367.453125 L 271.324219 355.824219 L 274.824219 353.332031 C 274.824219 352.867188 274.824219 352.402344 274.824219 351.941406 L 269.550781 355.515625 L 278.785156 369.097656 L 285.9375 364.183594 L 285.9375 396.339844 C 286.191406 399.320312 288.816406 401.535156 291.800781 401.300781 C 294.425781 401.070312 296.535156 398.988281 296.738281 396.339844 L 296.738281 359.476562 C 296.945312 358.9375 297.5625 358.65625 298.128906 358.886719 C 298.4375 358.988281 298.644531 359.21875 298.746094 359.476562 L 298.746094 396.339844 C 298.746094 399.398438 301.214844 401.84375 304.25 401.84375 C 307.285156 401.84375 309.753906 399.398438 309.753906 396.339844 L 309.753906 332.675781 C 309.859375 332.648438 309.910156 332.648438 310.011719 332.675781 C 312.121094 341.007812 312.789062 349.652344 311.96875 358.191406 L 312.171875 358.191406 C 312.019531 359.992188 313.203125 361.613281 314.949219 362 L 314.949219 363.59375 L 312.480469 363.59375 C 311.863281 363.671875 311.453125 364.183594 311.453125 364.777344 L 311.453125 383.476562 C 311.453125 384.070312 311.863281 384.582031 312.480469 384.660156 L 319.273438 384.660156 C 319.835938 384.558594 320.25 384.070312 320.25 383.476562 L 320.25 364.777344 C 320.25 364.210938 319.835938 363.695312 319.273438 363.59375 L 316.648438 363.59375 L 316.648438 361.871094 C 317.984375 361.457031 318.964844 360.25 319.117188 358.835938 C 320.09375 348.828125 319.167969 338.746094 316.492188 329.046875 C 315.054688 323.957031 310.421875 320.457031 305.175781 320.429688 L 290.308594 320.429688 " fill-opacity="1" fill-rule="nonzero"/><g clip-path="url(#7914ae550c)"><path fill="#ffffff" d="M 251.339844 448.117188 L 293.5 486.210938 C 295.863281 488.246094 299.3125 488.246094 301.679688 486.210938 L 343.65625 448.117188 L 430.445312 547.070312 C 428.539062 548.253906 426.355469 548.898438 424.140625 548.921875 L 170.957031 548.921875 C 168.691406 548.921875 166.429688 548.304688 164.527344 547.070312 Z M 434.816406 365.855469 C 435.640625 367.503906 436.050781 369.304688 436.050781 371.15625 L 436.050781 537.066406 C 436.050781 538.839844 435.589844 540.613281 434.816406 542.234375 L 348.570312 443.796875 Z M 160.359375 365.855469 L 246.605469 443.796875 L 160.203125 542.234375 C 159.484375 540.589844 159.175781 538.839844 159.226562 537.066406 L 159.175781 371.15625 C 159.175781 369.304688 159.640625 367.503906 160.460938 365.882812 Z M 171.007812 359.273438 L 230.761719 359.273438 C 234.875 396.183594 268.1875 422.753906 305.074219 418.613281 C 336.25 415.117188 360.917969 390.5 364.414062 359.273438 L 424.140625 359.273438 C 426.355469 359.273438 428.539062 359.914062 430.445312 361.097656 L 297.511719 481.222656 L 164.785156 361.097656 C 166.636719 359.914062 168.796875 359.296875 171.007812 359.273438 Z M 297.203125 290.851562 C 330.796875 290.671875 358.136719 317.730469 358.34375 351.324219 C 358.34375 351.453125 358.34375 351.605469 358.34375 351.761719 C 358.859375 385.328125 332.03125 412.953125 298.4375 413.46875 C 264.894531 413.984375 237.242188 387.15625 236.730469 353.585938 C 236.730469 352.96875 236.730469 352.351562 236.730469 351.761719 C 236.675781 318.246094 263.738281 291.003906 297.253906 290.851562 Z M 296.945312 285.550781 C 259.980469 285.859375 230.246094 315.902344 230.246094 352.816406 L 171.007812 352.816406 C 160.925781 352.839844 152.746094 361.046875 152.746094 371.15625 L 152.746094 537.066406 C 152.746094 547.148438 160.925781 555.328125 171.007812 555.355469 L 424.195312 555.355469 C 434.355469 555.355469 442.535156 547.175781 442.535156 537.066406 L 442.535156 371.15625 C 442.535156 361.019531 434.355469 352.816406 424.195312 352.816406 L 364.828125 352.816406 C 364.828125 315.671875 334.707031 285.578125 297.5625 285.550781 C 297.355469 285.550781 297.203125 285.550781 296.996094 285.550781 L 296.945312 285.550781 " fill-opacity="1" fill-rule="nonzero"/></g><path fill="#ffffff" d="M 307.027344 308.03125 C 307.363281 302.761719 303.375 298.179688 298.078125 297.820312 C 292.777344 297.460938 288.226562 301.472656 287.863281 306.773438 C 287.839844 307.183594 287.839844 307.621094 287.863281 308.03125 C 287.53125 313.332031 291.515625 317.910156 296.816406 318.269531 C 302.113281 318.605469 306.695312 314.617188 307.027344 309.320312 C 307.078125 308.882812 307.078125 308.46875 307.027344 308.03125 " fill-opacity="1" fill-rule="nonzero"/><path fill="#ffffff" d="M 288.894531 356.417969 L 284.699219 350.65625 C 284.519531 350.476562 284.265625 350.476562 284.082031 350.65625 C 283.929688 350.785156 283.878906 350.964844 283.980469 351.144531 L 288.171875 356.90625 C 288.277344 357.136719 288.558594 357.238281 288.738281 357.136719 C 288.996094 357.035156 289.101562 356.777344 288.996094 356.546875 C 288.945312 356.492188 288.945312 356.441406 288.894531 356.417969 " fill-opacity="1" fill-rule="nonzero"/><path fill="#ffffff" d="M 284.238281 357.652344 L 285.5 359.273438 C 285.574219 359.503906 285.832031 359.605469 286.0625 359.503906 C 286.320312 359.425781 286.425781 359.144531 286.320312 358.9375 C 286.269531 358.886719 286.269531 358.835938 286.21875 358.785156 L 284.238281 355.980469 C 284.238281 356.546875 284.238281 357.085938 284.238281 357.652344 " fill-opacity="1" fill-rule="nonzero"/><g clip-path="url(#4de99d1498)"><path fill="#ffffff" d="M 297.589844 167.4375 C 158.035156 167.4375 44.484375 280.980469 44.484375 420.542969 C 44.488281 560.101562 158.03125 673.644531 297.585938 673.644531 C 437.144531 673.644531 550.6875 560.101562 550.6875 420.542969 C 550.691406 280.976562 437.140625 167.4375 297.589844 167.4375 Z M 297.589844 684.230469 C 152.1875 684.230469 33.894531 565.941406 33.894531 420.539062 C 33.894531 275.140625 152.1875 156.847656 297.589844 156.847656 C 442.988281 156.847656 561.28125 275.140625 561.28125 420.539062 C 561.28125 565.9375 442.988281 684.234375 297.589844 684.230469 Z M 297.589844 684.230469 " fill-opacity="1" fill-rule="evenodd"/></g><g clip-path="url(#f5ec5d0129)"><path fill="#ffffff" d="M 297.589844 167.4375 C 158.035156 167.4375 44.484375 280.980469 44.484375 420.542969 C 44.488281 560.101562 158.03125 673.644531 297.585938 673.644531 C 437.144531 673.644531 550.6875 560.101562 550.6875 420.542969 C 550.691406 280.976562 437.140625 167.4375 297.589844 167.4375 Z M 297.589844 684.230469 C 152.1875 684.230469 33.894531 565.941406 33.894531 420.539062 C 33.894531 275.140625 152.1875 156.847656 297.589844 156.847656 C 442.988281 156.847656 561.28125 275.140625 561.28125 420.539062 C 561.28125 565.9375 442.988281 684.234375 297.589844 684.230469 Z M 297.589844 684.230469 " fill-opacity="1" fill-rule="evenodd"/></g><g clip-path="url(#14d75d2062)"><path fill="#ffffff" d="M 297.589844 167.4375 C 158.035156 167.4375 44.484375 280.980469 44.484375 420.542969 C 44.488281 560.101562 158.03125 673.644531 297.585938 673.644531 C 437.144531 673.644531 550.6875 560.101562 550.6875 420.542969 C 550.691406 280.976562 437.140625 167.4375 297.589844 167.4375 Z M 297.589844 684.230469 C 152.1875 684.230469 33.894531 565.941406 33.894531 420.539062 C 33.894531 275.140625 152.1875 156.847656 297.589844 156.847656 C 442.988281 156.847656 561.28125 275.140625 561.28125 420.539062 C 561.28125 565.9375 442.988281 684.234375 297.589844 684.230469 Z M 297.589844 684.230469 " fill-opacity="1" fill-rule="evenodd"/></g><g clip-path="url(#1706a35a1c)"><path fill="#ffffff" d="M 297.589844 167.4375 C 158.035156 167.4375 44.484375 280.980469 44.484375 420.542969 C 44.488281 560.101562 158.03125 673.644531 297.585938 673.644531 C 437.144531 673.644531 550.6875 560.101562 550.6875 420.542969 C 550.691406 280.976562 437.140625 167.4375 297.589844 167.4375 Z M 297.589844 684.230469 C 152.1875 684.230469 33.894531 565.941406 33.894531 420.539062 C 33.894531 275.140625 152.1875 156.847656 297.589844 156.847656 C 442.988281 156.847656 561.28125 275.140625 561.28125 420.539062 C 561.28125 565.9375 442.988281 684.234375 297.589844 684.230469 Z M 297.589844 684.230469 " fill-opacity="1" fill-rule="evenodd"/></g></svg>