<svg xmlns="http://www.w3.org/2000/svg" xmlns:xlink="http://www.w3.org/1999/xlink" width="793" zoomAndPan="magnify" viewBox="0 0 594.95996 842.24997" height="1122" preserveAspectRatio="xMidYMid meet" version="1.0"><defs><clipPath id="afc2c30cf5"><path d="M 0.246094 0 L 594.675781 0 L 594.675781 841.5 L 0.246094 841.5 Z M 0.246094 0 " clip-rule="nonzero"/></clipPath><clipPath id="9a840946fa"><path d="M 0.246094 0 L 594.675781 0 L 594.675781 841.136719 L 0.246094 841.136719 Z M 0.246094 0 " clip-rule="nonzero"/></clipPath><linearGradient x1="0.00519078" gradientTransform="matrix(0.74933, 0, 0, 0.74933, 0.240781, 0)" y1="561.26001" x2="793.288289" gradientUnits="userSpaceOnUse" y2="561.26001" id="20c079a75a"><stop stop-opacity="1" stop-color="rgb(19.198608%, 29.798889%, 38.398743%)" offset="0"/><stop stop-opacity="1" stop-color="rgb(19.239807%, 29.881287%, 38.513184%)" offset="0.0078125"/><stop stop-opacity="1" stop-color="rgb(19.32373%, 30.047607%, 38.743591%)" offset="0.015625"/><stop stop-opacity="1" stop-color="rgb(19.406128%, 30.212402%, 38.972473%)" offset="0.0234375"/><stop stop-opacity="1" stop-color="rgb(19.488525%, 30.378723%, 39.202881%)" offset="0.03125"/><stop stop-opacity="1" stop-color="rgb(19.570923%, 30.543518%, 39.431763%)" offset="0.0390625"/><stop stop-opacity="1" stop-color="rgb(19.654846%, 30.709839%, 39.66217%)" offset="0.046875"/><stop stop-opacity="1" stop-color="rgb(19.737244%, 30.874634%, 39.891052%)" offset="0.0546875"/><stop stop-opacity="1" stop-color="rgb(19.819641%, 31.040955%, 40.12146%)" offset="0.0625"/><stop stop-opacity="1" stop-color="rgb(19.902039%, 31.20575%, 40.350342%)" offset="0.0703125"/><stop stop-opacity="1" stop-color="rgb(19.985962%, 31.37207%, 40.579224%)" offset="0.078125"/><stop stop-opacity="1" stop-color="rgb(20.068359%, 31.536865%, 40.809631%)" offset="0.0859375"/><stop stop-opacity="1" stop-color="rgb(20.150757%, 31.703186%, 41.038513%)" offset="0.09375"/><stop stop-opacity="1" stop-color="rgb(20.233154%, 31.867981%, 41.268921%)" offset="0.101562"/><stop stop-opacity="1" stop-color="rgb(20.317078%, 32.034302%, 41.497803%)" offset="0.109375"/><stop stop-opacity="1" stop-color="rgb(20.399475%, 32.199097%, 41.72821%)" offset="0.117187"/><stop stop-opacity="1" stop-color="rgb(20.481873%, 32.365417%, 41.957092%)" offset="0.125"/><stop stop-opacity="1" stop-color="rgb(20.56427%, 32.530212%, 42.1875%)" offset="0.132812"/><stop stop-opacity="1" stop-color="rgb(20.648193%, 32.696533%, 42.416382%)" offset="0.140625"/><stop stop-opacity="1" stop-color="rgb(20.730591%, 32.861328%, 42.64679%)" offset="0.148438"/><stop stop-opacity="1" stop-color="rgb(20.812988%, 33.027649%, 42.875671%)" offset="0.15625"/><stop stop-opacity="1" stop-color="rgb(20.895386%, 33.192444%, 43.104553%)" offset="0.164062"/><stop stop-opacity="1" stop-color="rgb(20.979309%, 33.358765%, 43.334961%)" offset="0.171875"/><stop stop-opacity="1" stop-color="rgb(21.061707%, 33.52356%, 43.563843%)" offset="0.179688"/><stop stop-opacity="1" stop-color="rgb(21.144104%, 33.68988%, 43.79425%)" offset="0.1875"/><stop stop-opacity="1" stop-color="rgb(21.226501%, 33.854675%, 44.023132%)" offset="0.195312"/><stop stop-opacity="1" stop-color="rgb(21.310425%, 34.01947%, 44.25354%)" offset="0.203125"/><stop stop-opacity="1" stop-color="rgb(21.392822%, 34.185791%, 44.482422%)" offset="0.210938"/><stop stop-opacity="1" stop-color="rgb(21.47522%, 34.350586%, 44.71283%)" offset="0.21875"/><stop stop-opacity="1" stop-color="rgb(21.557617%, 34.516907%, 44.941711%)" offset="0.226562"/><stop stop-opacity="1" stop-color="rgb(21.641541%, 34.681702%, 45.170593%)" offset="0.234375"/><stop stop-opacity="1" stop-color="rgb(21.723938%, 34.848022%, 45.401001%)" offset="0.242188"/><stop stop-opacity="1" stop-color="rgb(21.806335%, 35.012817%, 45.629883%)" offset="0.25"/><stop stop-opacity="1" stop-color="rgb(21.888733%, 35.179138%, 45.860291%)" offset="0.257812"/><stop stop-opacity="1" stop-color="rgb(21.97113%, 35.343933%, 46.089172%)" offset="0.265625"/><stop stop-opacity="1" stop-color="rgb(22.055054%, 35.510254%, 46.31958%)" offset="0.273437"/><stop stop-opacity="1" stop-color="rgb(22.137451%, 35.675049%, 46.548462%)" offset="0.28125"/><stop stop-opacity="1" stop-color="rgb(22.219849%, 35.84137%, 46.77887%)" offset="0.289062"/><stop stop-opacity="1" stop-color="rgb(22.302246%, 36.006165%, 47.007751%)" offset="0.296875"/><stop stop-opacity="1" stop-color="rgb(22.386169%, 36.172485%, 47.238159%)" offset="0.304688"/><stop stop-opacity="1" stop-color="rgb(22.468567%, 36.33728%, 47.467041%)" offset="0.3125"/><stop stop-opacity="1" stop-color="rgb(22.550964%, 36.503601%, 47.695923%)" offset="0.320312"/><stop stop-opacity="1" stop-color="rgb(22.633362%, 36.668396%, 47.926331%)" offset="0.328125"/><stop stop-opacity="1" stop-color="rgb(22.717285%, 36.834717%, 48.155212%)" offset="0.335938"/><stop stop-opacity="1" stop-color="rgb(22.799683%, 36.999512%, 48.38562%)" offset="0.34375"/><stop stop-opacity="1" stop-color="rgb(22.88208%, 37.165833%, 48.614502%)" offset="0.351563"/><stop stop-opacity="1" stop-color="rgb(22.964478%, 37.330627%, 48.84491%)" offset="0.359375"/><stop stop-opacity="1" stop-color="rgb(23.048401%, 37.496948%, 49.073792%)" offset="0.367187"/><stop stop-opacity="1" stop-color="rgb(23.130798%, 37.661743%, 49.304199%)" offset="0.375"/><stop stop-opacity="1" stop-color="rgb(23.213196%, 37.828064%, 49.533081%)" offset="0.382812"/><stop stop-opacity="1" stop-color="rgb(23.295593%, 37.992859%, 49.761963%)" offset="0.390625"/><stop stop-opacity="1" stop-color="rgb(23.379517%, 38.15918%, 49.992371%)" offset="0.398437"/><stop stop-opacity="1" stop-color="rgb(23.461914%, 38.323975%, 50.221252%)" offset="0.40625"/><stop stop-opacity="1" stop-color="rgb(23.544312%, 38.490295%, 50.45166%)" offset="0.414062"/><stop stop-opacity="1" stop-color="rgb(23.626709%, 38.65509%, 50.680542%)" offset="0.421875"/><stop stop-opacity="1" stop-color="rgb(23.710632%, 38.821411%, 50.91095%)" offset="0.429687"/><stop stop-opacity="1" stop-color="rgb(23.79303%, 38.986206%, 51.139832%)" offset="0.4375"/><stop stop-opacity="1" stop-color="rgb(23.875427%, 39.152527%, 51.370239%)" offset="0.445312"/><stop stop-opacity="1" stop-color="rgb(23.957825%, 39.317322%, 51.599121%)" offset="0.453125"/><stop stop-opacity="1" stop-color="rgb(24.041748%, 39.483643%, 51.828003%)" offset="0.460937"/><stop stop-opacity="1" stop-color="rgb(24.124146%, 39.648438%, 52.058411%)" offset="0.46875"/><stop stop-opacity="1" stop-color="rgb(24.206543%, 39.814758%, 52.287292%)" offset="0.476562"/><stop stop-opacity="1" stop-color="rgb(24.28894%, 39.979553%, 52.5177%)" offset="0.484375"/><stop stop-opacity="1" stop-color="rgb(24.372864%, 40.145874%, 52.746582%)" offset="0.492188"/><stop stop-opacity="1" stop-color="rgb(24.455261%, 40.310669%, 52.97699%)" offset="0.5"/><stop stop-opacity="1" stop-color="rgb(24.537659%, 40.475464%, 53.205872%)" offset="0.507812"/><stop stop-opacity="1" stop-color="rgb(24.620056%, 40.641785%, 53.436279%)" offset="0.515625"/><stop stop-opacity="1" stop-color="rgb(24.703979%, 40.80658%, 53.665161%)" offset="0.523438"/><stop stop-opacity="1" stop-color="rgb(24.786377%, 40.9729%, 53.895569%)" offset="0.53125"/><stop stop-opacity="1" stop-color="rgb(24.868774%, 41.137695%, 54.124451%)" offset="0.539062"/><stop stop-opacity="1" stop-color="rgb(24.951172%, 41.304016%, 54.353333%)" offset="0.546875"/><stop stop-opacity="1" stop-color="rgb(25.033569%, 41.468811%, 54.58374%)" offset="0.554688"/><stop stop-opacity="1" stop-color="rgb(25.117493%, 41.635132%, 54.812622%)" offset="0.5625"/><stop stop-opacity="1" stop-color="rgb(25.19989%, 41.799927%, 55.04303%)" offset="0.570312"/><stop stop-opacity="1" stop-color="rgb(25.282288%, 41.966248%, 55.271912%)" offset="0.578125"/><stop stop-opacity="1" stop-color="rgb(25.364685%, 42.131042%, 55.502319%)" offset="0.585938"/><stop stop-opacity="1" stop-color="rgb(25.448608%, 42.297363%, 55.731201%)" offset="0.59375"/><stop stop-opacity="1" stop-color="rgb(25.531006%, 42.462158%, 55.961609%)" offset="0.601562"/><stop stop-opacity="1" stop-color="rgb(25.613403%, 42.628479%, 56.190491%)" offset="0.609375"/><stop stop-opacity="1" stop-color="rgb(25.695801%, 42.793274%, 56.419373%)" offset="0.617188"/><stop stop-opacity="1" stop-color="rgb(25.779724%, 42.959595%, 56.64978%)" offset="0.625"/><stop stop-opacity="1" stop-color="rgb(25.862122%, 43.12439%, 56.878662%)" offset="0.632812"/><stop stop-opacity="1" stop-color="rgb(25.944519%, 43.29071%, 57.10907%)" offset="0.640625"/><stop stop-opacity="1" stop-color="rgb(26.026917%, 43.455505%, 57.337952%)" offset="0.648437"/><stop stop-opacity="1" stop-color="rgb(26.11084%, 43.621826%, 57.568359%)" offset="0.65625"/><stop stop-opacity="1" stop-color="rgb(26.193237%, 43.786621%, 57.797241%)" offset="0.664062"/><stop stop-opacity="1" stop-color="rgb(26.275635%, 43.952942%, 58.027649%)" offset="0.671875"/><stop stop-opacity="1" stop-color="rgb(26.358032%, 44.117737%, 58.256531%)" offset="0.679688"/><stop stop-opacity="1" stop-color="rgb(26.441956%, 44.284058%, 58.485413%)" offset="0.6875"/><stop stop-opacity="1" stop-color="rgb(26.524353%, 44.448853%, 58.71582%)" offset="0.695312"/><stop stop-opacity="1" stop-color="rgb(26.60675%, 44.615173%, 58.944702%)" offset="0.703125"/><stop stop-opacity="1" stop-color="rgb(26.689148%, 44.779968%, 59.17511%)" offset="0.710938"/><stop stop-opacity="1" stop-color="rgb(26.773071%, 44.946289%, 59.403992%)" offset="0.71875"/><stop stop-opacity="1" stop-color="rgb(26.855469%, 45.111084%, 59.634399%)" offset="0.726562"/><stop stop-opacity="1" stop-color="rgb(26.937866%, 45.277405%, 59.863281%)" offset="0.734375"/><stop stop-opacity="1" stop-color="rgb(27.020264%, 45.4422%, 60.093689%)" offset="0.742188"/><stop stop-opacity="1" stop-color="rgb(27.104187%, 45.608521%, 60.322571%)" offset="0.75"/><stop stop-opacity="1" stop-color="rgb(27.186584%, 45.773315%, 60.552979%)" offset="0.757812"/><stop stop-opacity="1" stop-color="rgb(27.268982%, 45.939636%, 60.78186%)" offset="0.765625"/><stop stop-opacity="1" stop-color="rgb(27.351379%, 46.104431%, 61.010742%)" offset="0.773438"/><stop stop-opacity="1" stop-color="rgb(27.435303%, 46.270752%, 61.24115%)" offset="0.78125"/><stop stop-opacity="1" stop-color="rgb(27.5177%, 46.435547%, 61.470032%)" offset="0.789062"/><stop stop-opacity="1" stop-color="rgb(27.600098%, 46.600342%, 61.700439%)" offset="0.796875"/><stop stop-opacity="1" stop-color="rgb(27.682495%, 46.766663%, 61.929321%)" offset="0.804687"/><stop stop-opacity="1" stop-color="rgb(27.766418%, 46.931458%, 62.159729%)" offset="0.8125"/><stop stop-opacity="1" stop-color="rgb(27.848816%, 47.097778%, 62.388611%)" offset="0.820312"/><stop stop-opacity="1" stop-color="rgb(27.931213%, 47.262573%, 62.619019%)" offset="0.828125"/><stop stop-opacity="1" stop-color="rgb(28.013611%, 47.428894%, 62.8479%)" offset="0.835938"/><stop stop-opacity="1" stop-color="rgb(28.097534%, 47.593689%, 63.076782%)" offset="0.84375"/><stop stop-opacity="1" stop-color="rgb(28.179932%, 47.76001%, 63.30719%)" offset="0.851562"/><stop stop-opacity="1" stop-color="rgb(28.262329%, 47.924805%, 63.536072%)" offset="0.859375"/><stop stop-opacity="1" stop-color="rgb(28.344727%, 48.091125%, 63.766479%)" offset="0.867188"/><stop stop-opacity="1" stop-color="rgb(28.427124%, 48.25592%, 63.995361%)" offset="0.875"/><stop stop-opacity="1" stop-color="rgb(28.511047%, 48.422241%, 64.225769%)" offset="0.882812"/><stop stop-opacity="1" stop-color="rgb(28.593445%, 48.587036%, 64.454651%)" offset="0.890625"/><stop stop-opacity="1" stop-color="rgb(28.675842%, 48.753357%, 64.685059%)" offset="0.898437"/><stop stop-opacity="1" stop-color="rgb(28.75824%, 48.918152%, 64.91394%)" offset="0.90625"/><stop stop-opacity="1" stop-color="rgb(28.842163%, 49.084473%, 65.144348%)" offset="0.914062"/><stop stop-opacity="1" stop-color="rgb(28.924561%, 49.249268%, 65.37323%)" offset="0.921875"/><stop stop-opacity="1" stop-color="rgb(29.006958%, 49.415588%, 65.602112%)" offset="0.929688"/><stop stop-opacity="1" stop-color="rgb(29.089355%, 49.580383%, 65.83252%)" offset="0.9375"/><stop stop-opacity="1" stop-color="rgb(29.173279%, 49.746704%, 66.061401%)" offset="0.945313"/><stop stop-opacity="1" stop-color="rgb(29.255676%, 49.911499%, 66.291809%)" offset="0.953125"/><stop stop-opacity="1" stop-color="rgb(29.338074%, 50.07782%, 66.520691%)" offset="0.960938"/><stop stop-opacity="1" stop-color="rgb(29.420471%, 50.242615%, 66.751099%)" offset="0.96875"/><stop stop-opacity="1" stop-color="rgb(29.504395%, 50.408936%, 66.97998%)" offset="0.976562"/><stop stop-opacity="1" stop-color="rgb(29.586792%, 50.57373%, 67.210388%)" offset="0.984375"/><stop stop-opacity="1" stop-color="rgb(29.669189%, 50.740051%, 67.43927%)" offset="0.992188"/><stop stop-opacity="1" stop-color="rgb(29.751587%, 50.904846%, 67.668152%)" offset="1"/></linearGradient><clipPath id="093b7bb2e3"><path d="M 34.609375 182.429688 L 560.640625 182.429688 L 560.640625 659 L 34.609375 659 Z M 34.609375 182.429688 " clip-rule="nonzero"/></clipPath></defs><g clip-path="url(#afc2c30cf5)"><path fill="#ffffff" d="M 0.246094 0 L 595.214844 0 L 595.214844 841.5 L 0.246094 841.5 Z M 0.246094 0 " fill-opacity="1" fill-rule="nonzero"/></g><g clip-path="url(#9a840946fa)"><path fill="url(#20c079a75a)" d="M 0.246094 0 L 0.246094 841.136719 L 594.675781 841.136719 L 594.675781 0 Z M 0.246094 0 " fill-rule="nonzero"/></g><g clip-path="url(#093b7bb2e3)"><path fill="#ffffff" d="M 542.957031 183.710938 L 41.996094 409.144531 C 41.417969 409.402344 40.863281 409.703125 40.328125 410.050781 C 39.796875 410.394531 39.292969 410.777344 38.816406 411.199219 C 38.34375 411.617188 37.902344 412.074219 37.496094 412.5625 C 37.089844 413.050781 36.726562 413.566406 36.398438 414.109375 C 36.070312 414.652344 35.785156 415.21875 35.546875 415.804688 C 35.304688 416.390625 35.109375 416.996094 34.960938 417.609375 C 34.808594 418.226562 34.707031 418.851562 34.652344 419.484375 C 34.597656 420.117188 34.59375 420.75 34.632812 421.382812 C 34.675781 422.015625 34.765625 422.644531 34.902344 423.261719 C 35.039062 423.882812 35.222656 424.488281 35.453125 425.078125 C 35.679688 425.671875 35.953125 426.242188 36.269531 426.792969 C 36.585938 427.34375 36.941406 427.867188 37.335938 428.363281 C 37.730469 428.859375 38.164062 429.324219 38.628906 429.753906 C 39.09375 430.183594 39.589844 430.578125 40.117188 430.933594 C 40.644531 431.285156 41.191406 431.601562 41.765625 431.871094 C 42.339844 432.144531 42.929688 432.371094 43.539062 432.550781 L 213.078125 483.40625 L 260.519531 649.449219 C 260.835938 650.542969 261.289062 651.574219 261.882812 652.542969 C 262.480469 653.511719 263.191406 654.386719 264.027344 655.160156 C 264.859375 655.9375 265.78125 656.585938 266.789062 657.113281 C 267.800781 657.636719 268.859375 658.019531 269.972656 658.253906 C 270.828125 658.425781 271.695312 658.515625 272.566406 658.519531 C 273.484375 658.519531 274.390625 658.421875 275.289062 658.222656 C 276.183594 658.023438 277.046875 657.730469 277.878906 657.339844 C 278.710938 656.949219 279.492188 656.476562 280.21875 655.917969 C 280.945312 655.355469 281.601562 654.722656 282.191406 654.019531 L 376.550781 540.761719 L 543.445312 607.519531 C 544.9375 608.125 546.484375 608.425781 548.09375 608.425781 C 548.917969 608.425781 549.730469 608.34375 550.539062 608.183594 C 551.34375 608.023438 552.128906 607.785156 552.886719 607.472656 C 553.648438 607.15625 554.367188 606.769531 555.050781 606.3125 C 555.734375 605.855469 556.367188 605.339844 556.949219 604.757812 C 557.53125 604.175781 558.050781 603.542969 558.507812 602.859375 C 558.964844 602.175781 559.351562 601.453125 559.664062 600.695312 C 559.980469 599.933594 560.21875 599.152344 560.378906 598.34375 C 560.539062 597.539062 560.617188 596.722656 560.617188 595.902344 L 560.617188 195.132812 C 560.617188 194.613281 560.585938 194.09375 560.519531 193.578125 C 560.457031 193.058594 560.359375 192.550781 560.230469 192.042969 C 560.101562 191.539062 559.945312 191.042969 559.753906 190.558594 C 559.5625 190.074219 559.34375 189.605469 559.09375 189.148438 C 558.847656 188.6875 558.570312 188.25 558.265625 187.824219 C 557.960938 187.402344 557.632812 187 557.277344 186.617188 C 556.925781 186.238281 556.546875 185.878906 556.148438 185.542969 C 555.75 185.207031 555.332031 184.898438 554.894531 184.617188 C 554.457031 184.332031 554.003906 184.078125 553.535156 183.851562 C 553.066406 183.625 552.585938 183.429688 552.09375 183.265625 C 551.597656 183.097656 551.097656 182.964844 550.585938 182.859375 C 550.074219 182.753906 549.5625 182.683594 549.042969 182.644531 C 548.523438 182.605469 548.003906 182.597656 547.484375 182.625 C 546.960938 182.648438 546.445312 182.707031 545.933594 182.796875 C 545.421875 182.886719 544.914062 183.007812 544.417969 183.160156 C 543.917969 183.3125 543.433594 183.496094 542.957031 183.710938 Z M 82.882812 418.214844 L 470.085938 243.964844 L 217.375 458.5625 Z M 278.105469 619.800781 L 236.730469 474.992188 L 446.863281 296.527344 L 287.976562 487.710938 C 287.660156 488.085938 287.371094 488.484375 287.101562 488.894531 C 286.835938 489.308594 286.589844 489.734375 286.375 490.175781 C 286.15625 490.617188 285.964844 491.070312 285.800781 491.535156 C 285.636719 491.996094 285.5 492.46875 285.390625 492.949219 C 285.285156 493.429688 285.203125 493.914062 285.152344 494.402344 C 285.101562 494.890625 285.078125 495.382812 285.085938 495.875 C 285.089844 496.367188 285.125 496.855469 285.191406 497.34375 C 285.253906 497.832031 285.347656 498.3125 285.46875 498.789062 C 285.589844 499.265625 285.738281 499.734375 285.917969 500.195312 C 286.09375 500.652344 286.296875 501.101562 286.523438 501.535156 C 286.753906 501.972656 287.007812 502.390625 287.289062 502.796875 C 287.566406 503.203125 287.867188 503.589844 288.191406 503.960938 C 288.515625 504.328125 288.863281 504.679688 289.226562 505.007812 C 289.59375 505.335938 289.976562 505.640625 290.378906 505.925781 C 290.78125 506.210938 291.199219 506.46875 291.632812 506.703125 C 292.066406 506.9375 292.507812 507.144531 292.964844 507.328125 L 352.101562 530.980469 Z M 535.570312 577.410156 L 318.246094 490.472656 L 535.570312 228.988281 Z M 535.570312 577.410156 " fill-opacity="1" fill-rule="nonzero"/></g></svg>