<svg xmlns="http://www.w3.org/2000/svg" xmlns:xlink="http://www.w3.org/1999/xlink" width="793" zoomAndPan="magnify" viewBox="0 0 594.95996 842.24997" height="1122" preserveAspectRatio="xMidYMid meet" version="1.0"><defs><clipPath id="e18e96748d"><path d="M 0.246094 0 L 594.675781 0 L 594.675781 841.5 L 0.246094 841.5 Z M 0.246094 0 " clip-rule="nonzero"/></clipPath><clipPath id="559c8cd33a"><path d="M 0.246094 0 L 594.675781 0 L 594.675781 841.136719 L 0.246094 841.136719 Z M 0.246094 0 " clip-rule="nonzero"/></clipPath><linearGradient x1="0.00519078" gradientTransform="matrix(0.74933, 0, 0, 0.74933, 0.240781, 0)" y1="561.26001" x2="793.288289" gradientUnits="userSpaceOnUse" y2="561.26001" id="0453db93c7"><stop stop-opacity="1" stop-color="rgb(19.198608%, 29.798889%, 38.398743%)" offset="0"/><stop stop-opacity="1" stop-color="rgb(19.239807%, 29.881287%, 38.513184%)" offset="0.0078125"/><stop stop-opacity="1" stop-color="rgb(19.32373%, 30.047607%, 38.743591%)" offset="0.015625"/><stop stop-opacity="1" stop-color="rgb(19.406128%, 30.212402%, 38.972473%)" offset="0.0234375"/><stop stop-opacity="1" stop-color="rgb(19.488525%, 30.378723%, 39.202881%)" offset="0.03125"/><stop stop-opacity="1" stop-color="rgb(19.570923%, 30.543518%, 39.431763%)" offset="0.0390625"/><stop stop-opacity="1" stop-color="rgb(19.654846%, 30.709839%, 39.66217%)" offset="0.046875"/><stop stop-opacity="1" stop-color="rgb(19.737244%, 30.874634%, 39.891052%)" offset="0.0546875"/><stop stop-opacity="1" stop-color="rgb(19.819641%, 31.040955%, 40.12146%)" offset="0.0625"/><stop stop-opacity="1" stop-color="rgb(19.902039%, 31.20575%, 40.350342%)" offset="0.0703125"/><stop stop-opacity="1" stop-color="rgb(19.985962%, 31.37207%, 40.579224%)" offset="0.078125"/><stop stop-opacity="1" stop-color="rgb(20.068359%, 31.536865%, 40.809631%)" offset="0.0859375"/><stop stop-opacity="1" stop-color="rgb(20.150757%, 31.703186%, 41.038513%)" offset="0.09375"/><stop stop-opacity="1" stop-color="rgb(20.233154%, 31.867981%, 41.268921%)" offset="0.101562"/><stop stop-opacity="1" stop-color="rgb(20.317078%, 32.034302%, 41.497803%)" offset="0.109375"/><stop stop-opacity="1" stop-color="rgb(20.399475%, 32.199097%, 41.72821%)" offset="0.117187"/><stop stop-opacity="1" stop-color="rgb(20.481873%, 32.365417%, 41.957092%)" offset="0.125"/><stop stop-opacity="1" stop-color="rgb(20.56427%, 32.530212%, 42.1875%)" offset="0.132812"/><stop stop-opacity="1" stop-color="rgb(20.648193%, 32.696533%, 42.416382%)" offset="0.140625"/><stop stop-opacity="1" stop-color="rgb(20.730591%, 32.861328%, 42.64679%)" offset="0.148438"/><stop stop-opacity="1" stop-color="rgb(20.812988%, 33.027649%, 42.875671%)" offset="0.15625"/><stop stop-opacity="1" stop-color="rgb(20.895386%, 33.192444%, 43.104553%)" offset="0.164062"/><stop stop-opacity="1" stop-color="rgb(20.979309%, 33.358765%, 43.334961%)" offset="0.171875"/><stop stop-opacity="1" stop-color="rgb(21.061707%, 33.52356%, 43.563843%)" offset="0.179688"/><stop stop-opacity="1" stop-color="rgb(21.144104%, 33.68988%, 43.79425%)" offset="0.1875"/><stop stop-opacity="1" stop-color="rgb(21.226501%, 33.854675%, 44.023132%)" offset="0.195312"/><stop stop-opacity="1" stop-color="rgb(21.310425%, 34.01947%, 44.25354%)" offset="0.203125"/><stop stop-opacity="1" stop-color="rgb(21.392822%, 34.185791%, 44.482422%)" offset="0.210938"/><stop stop-opacity="1" stop-color="rgb(21.47522%, 34.350586%, 44.71283%)" offset="0.21875"/><stop stop-opacity="1" stop-color="rgb(21.557617%, 34.516907%, 44.941711%)" offset="0.226562"/><stop stop-opacity="1" stop-color="rgb(21.641541%, 34.681702%, 45.170593%)" offset="0.234375"/><stop stop-opacity="1" stop-color="rgb(21.723938%, 34.848022%, 45.401001%)" offset="0.242188"/><stop stop-opacity="1" stop-color="rgb(21.806335%, 35.012817%, 45.629883%)" offset="0.25"/><stop stop-opacity="1" stop-color="rgb(21.888733%, 35.179138%, 45.860291%)" offset="0.257812"/><stop stop-opacity="1" stop-color="rgb(21.97113%, 35.343933%, 46.089172%)" offset="0.265625"/><stop stop-opacity="1" stop-color="rgb(22.055054%, 35.510254%, 46.31958%)" offset="0.273437"/><stop stop-opacity="1" stop-color="rgb(22.137451%, 35.675049%, 46.548462%)" offset="0.28125"/><stop stop-opacity="1" stop-color="rgb(22.219849%, 35.84137%, 46.77887%)" offset="0.289062"/><stop stop-opacity="1" stop-color="rgb(22.302246%, 36.006165%, 47.007751%)" offset="0.296875"/><stop stop-opacity="1" stop-color="rgb(22.386169%, 36.172485%, 47.238159%)" offset="0.304688"/><stop stop-opacity="1" stop-color="rgb(22.468567%, 36.33728%, 47.467041%)" offset="0.3125"/><stop stop-opacity="1" stop-color="rgb(22.550964%, 36.503601%, 47.695923%)" offset="0.320312"/><stop stop-opacity="1" stop-color="rgb(22.633362%, 36.668396%, 47.926331%)" offset="0.328125"/><stop stop-opacity="1" stop-color="rgb(22.717285%, 36.834717%, 48.155212%)" offset="0.335938"/><stop stop-opacity="1" stop-color="rgb(22.799683%, 36.999512%, 48.38562%)" offset="0.34375"/><stop stop-opacity="1" stop-color="rgb(22.88208%, 37.165833%, 48.614502%)" offset="0.351563"/><stop stop-opacity="1" stop-color="rgb(22.964478%, 37.330627%, 48.84491%)" offset="0.359375"/><stop stop-opacity="1" stop-color="rgb(23.048401%, 37.496948%, 49.073792%)" offset="0.367187"/><stop stop-opacity="1" stop-color="rgb(23.130798%, 37.661743%, 49.304199%)" offset="0.375"/><stop stop-opacity="1" stop-color="rgb(23.213196%, 37.828064%, 49.533081%)" offset="0.382812"/><stop stop-opacity="1" stop-color="rgb(23.295593%, 37.992859%, 49.761963%)" offset="0.390625"/><stop stop-opacity="1" stop-color="rgb(23.379517%, 38.15918%, 49.992371%)" offset="0.398437"/><stop stop-opacity="1" stop-color="rgb(23.461914%, 38.323975%, 50.221252%)" offset="0.40625"/><stop stop-opacity="1" stop-color="rgb(23.544312%, 38.490295%, 50.45166%)" offset="0.414062"/><stop stop-opacity="1" stop-color="rgb(23.626709%, 38.65509%, 50.680542%)" offset="0.421875"/><stop stop-opacity="1" stop-color="rgb(23.710632%, 38.821411%, 50.91095%)" offset="0.429687"/><stop stop-opacity="1" stop-color="rgb(23.79303%, 38.986206%, 51.139832%)" offset="0.4375"/><stop stop-opacity="1" stop-color="rgb(23.875427%, 39.152527%, 51.370239%)" offset="0.445312"/><stop stop-opacity="1" stop-color="rgb(23.957825%, 39.317322%, 51.599121%)" offset="0.453125"/><stop stop-opacity="1" stop-color="rgb(24.041748%, 39.483643%, 51.828003%)" offset="0.460937"/><stop stop-opacity="1" stop-color="rgb(24.124146%, 39.648438%, 52.058411%)" offset="0.46875"/><stop stop-opacity="1" stop-color="rgb(24.206543%, 39.814758%, 52.287292%)" offset="0.476562"/><stop stop-opacity="1" stop-color="rgb(24.28894%, 39.979553%, 52.5177%)" offset="0.484375"/><stop stop-opacity="1" stop-color="rgb(24.372864%, 40.145874%, 52.746582%)" offset="0.492188"/><stop stop-opacity="1" stop-color="rgb(24.455261%, 40.310669%, 52.97699%)" offset="0.5"/><stop stop-opacity="1" stop-color="rgb(24.537659%, 40.475464%, 53.205872%)" offset="0.507812"/><stop stop-opacity="1" stop-color="rgb(24.620056%, 40.641785%, 53.436279%)" offset="0.515625"/><stop stop-opacity="1" stop-color="rgb(24.703979%, 40.80658%, 53.665161%)" offset="0.523438"/><stop stop-opacity="1" stop-color="rgb(24.786377%, 40.9729%, 53.895569%)" offset="0.53125"/><stop stop-opacity="1" stop-color="rgb(24.868774%, 41.137695%, 54.124451%)" offset="0.539062"/><stop stop-opacity="1" stop-color="rgb(24.951172%, 41.304016%, 54.353333%)" offset="0.546875"/><stop stop-opacity="1" stop-color="rgb(25.033569%, 41.468811%, 54.58374%)" offset="0.554688"/><stop stop-opacity="1" stop-color="rgb(25.117493%, 41.635132%, 54.812622%)" offset="0.5625"/><stop stop-opacity="1" stop-color="rgb(25.19989%, 41.799927%, 55.04303%)" offset="0.570312"/><stop stop-opacity="1" stop-color="rgb(25.282288%, 41.966248%, 55.271912%)" offset="0.578125"/><stop stop-opacity="1" stop-color="rgb(25.364685%, 42.131042%, 55.502319%)" offset="0.585938"/><stop stop-opacity="1" stop-color="rgb(25.448608%, 42.297363%, 55.731201%)" offset="0.59375"/><stop stop-opacity="1" stop-color="rgb(25.531006%, 42.462158%, 55.961609%)" offset="0.601562"/><stop stop-opacity="1" stop-color="rgb(25.613403%, 42.628479%, 56.190491%)" offset="0.609375"/><stop stop-opacity="1" stop-color="rgb(25.695801%, 42.793274%, 56.419373%)" offset="0.617188"/><stop stop-opacity="1" stop-color="rgb(25.779724%, 42.959595%, 56.64978%)" offset="0.625"/><stop stop-opacity="1" stop-color="rgb(25.862122%, 43.12439%, 56.878662%)" offset="0.632812"/><stop stop-opacity="1" stop-color="rgb(25.944519%, 43.29071%, 57.10907%)" offset="0.640625"/><stop stop-opacity="1" stop-color="rgb(26.026917%, 43.455505%, 57.337952%)" offset="0.648437"/><stop stop-opacity="1" stop-color="rgb(26.11084%, 43.621826%, 57.568359%)" offset="0.65625"/><stop stop-opacity="1" stop-color="rgb(26.193237%, 43.786621%, 57.797241%)" offset="0.664062"/><stop stop-opacity="1" stop-color="rgb(26.275635%, 43.952942%, 58.027649%)" offset="0.671875"/><stop stop-opacity="1" stop-color="rgb(26.358032%, 44.117737%, 58.256531%)" offset="0.679688"/><stop stop-opacity="1" stop-color="rgb(26.441956%, 44.284058%, 58.485413%)" offset="0.6875"/><stop stop-opacity="1" stop-color="rgb(26.524353%, 44.448853%, 58.71582%)" offset="0.695312"/><stop stop-opacity="1" stop-color="rgb(26.60675%, 44.615173%, 58.944702%)" offset="0.703125"/><stop stop-opacity="1" stop-color="rgb(26.689148%, 44.779968%, 59.17511%)" offset="0.710938"/><stop stop-opacity="1" stop-color="rgb(26.773071%, 44.946289%, 59.403992%)" offset="0.71875"/><stop stop-opacity="1" stop-color="rgb(26.855469%, 45.111084%, 59.634399%)" offset="0.726562"/><stop stop-opacity="1" stop-color="rgb(26.937866%, 45.277405%, 59.863281%)" offset="0.734375"/><stop stop-opacity="1" stop-color="rgb(27.020264%, 45.4422%, 60.093689%)" offset="0.742188"/><stop stop-opacity="1" stop-color="rgb(27.104187%, 45.608521%, 60.322571%)" offset="0.75"/><stop stop-opacity="1" stop-color="rgb(27.186584%, 45.773315%, 60.552979%)" offset="0.757812"/><stop stop-opacity="1" stop-color="rgb(27.268982%, 45.939636%, 60.78186%)" offset="0.765625"/><stop stop-opacity="1" stop-color="rgb(27.351379%, 46.104431%, 61.010742%)" offset="0.773438"/><stop stop-opacity="1" stop-color="rgb(27.435303%, 46.270752%, 61.24115%)" offset="0.78125"/><stop stop-opacity="1" stop-color="rgb(27.5177%, 46.435547%, 61.470032%)" offset="0.789062"/><stop stop-opacity="1" stop-color="rgb(27.600098%, 46.600342%, 61.700439%)" offset="0.796875"/><stop stop-opacity="1" stop-color="rgb(27.682495%, 46.766663%, 61.929321%)" offset="0.804687"/><stop stop-opacity="1" stop-color="rgb(27.766418%, 46.931458%, 62.159729%)" offset="0.8125"/><stop stop-opacity="1" stop-color="rgb(27.848816%, 47.097778%, 62.388611%)" offset="0.820312"/><stop stop-opacity="1" stop-color="rgb(27.931213%, 47.262573%, 62.619019%)" offset="0.828125"/><stop stop-opacity="1" stop-color="rgb(28.013611%, 47.428894%, 62.8479%)" offset="0.835938"/><stop stop-opacity="1" stop-color="rgb(28.097534%, 47.593689%, 63.076782%)" offset="0.84375"/><stop stop-opacity="1" stop-color="rgb(28.179932%, 47.76001%, 63.30719%)" offset="0.851562"/><stop stop-opacity="1" stop-color="rgb(28.262329%, 47.924805%, 63.536072%)" offset="0.859375"/><stop stop-opacity="1" stop-color="rgb(28.344727%, 48.091125%, 63.766479%)" offset="0.867188"/><stop stop-opacity="1" stop-color="rgb(28.427124%, 48.25592%, 63.995361%)" offset="0.875"/><stop stop-opacity="1" stop-color="rgb(28.511047%, 48.422241%, 64.225769%)" offset="0.882812"/><stop stop-opacity="1" stop-color="rgb(28.593445%, 48.587036%, 64.454651%)" offset="0.890625"/><stop stop-opacity="1" stop-color="rgb(28.675842%, 48.753357%, 64.685059%)" offset="0.898437"/><stop stop-opacity="1" stop-color="rgb(28.75824%, 48.918152%, 64.91394%)" offset="0.90625"/><stop stop-opacity="1" stop-color="rgb(28.842163%, 49.084473%, 65.144348%)" offset="0.914062"/><stop stop-opacity="1" stop-color="rgb(28.924561%, 49.249268%, 65.37323%)" offset="0.921875"/><stop stop-opacity="1" stop-color="rgb(29.006958%, 49.415588%, 65.602112%)" offset="0.929688"/><stop stop-opacity="1" stop-color="rgb(29.089355%, 49.580383%, 65.83252%)" offset="0.9375"/><stop stop-opacity="1" stop-color="rgb(29.173279%, 49.746704%, 66.061401%)" offset="0.945313"/><stop stop-opacity="1" stop-color="rgb(29.255676%, 49.911499%, 66.291809%)" offset="0.953125"/><stop stop-opacity="1" stop-color="rgb(29.338074%, 50.07782%, 66.520691%)" offset="0.960938"/><stop stop-opacity="1" stop-color="rgb(29.420471%, 50.242615%, 66.751099%)" offset="0.96875"/><stop stop-opacity="1" stop-color="rgb(29.504395%, 50.408936%, 66.97998%)" offset="0.976562"/><stop stop-opacity="1" stop-color="rgb(29.586792%, 50.57373%, 67.210388%)" offset="0.984375"/><stop stop-opacity="1" stop-color="rgb(29.669189%, 50.740051%, 67.43927%)" offset="0.992188"/><stop stop-opacity="1" stop-color="rgb(29.751587%, 50.904846%, 67.668152%)" offset="1"/></linearGradient><clipPath id="1458d36d2f"><path d="M 33.894531 156.847656 L 561.425781 156.847656 L 561.425781 317.953125 L 33.894531 317.953125 Z M 33.894531 156.847656 " clip-rule="nonzero"/></clipPath><clipPath id="87c5f7dde2"><path d="M 33.894531 156.847656 L 151.539062 156.847656 L 151.539062 684.378906 L 33.894531 684.378906 Z M 33.894531 156.847656 " clip-rule="nonzero"/></clipPath><clipPath id="8706281347"><path d="M 447.359375 156.847656 L 561.257812 156.847656 L 561.257812 684.378906 L 447.359375 684.378906 Z M 447.359375 156.847656 " clip-rule="nonzero"/></clipPath><clipPath id="a621369384"><path d="M 33.894531 521.308594 L 561.425781 521.308594 L 561.425781 684.378906 L 33.894531 684.378906 Z M 33.894531 521.308594 " clip-rule="nonzero"/></clipPath><clipPath id="919a69c93d"><path d="M 150.261719 273.214844 L 444.75 273.214844 L 444.75 567.703125 L 150.261719 567.703125 Z M 150.261719 273.214844 " clip-rule="nonzero"/></clipPath></defs><g clip-path="url(#e18e96748d)"><path fill="#ffffff" d="M 0.246094 0 L 595.214844 0 L 595.214844 841.5 L 0.246094 841.5 Z M 0.246094 0 " fill-opacity="1" fill-rule="nonzero"/></g><g clip-path="url(#559c8cd33a)"><path fill="url(#0453db93c7)" d="M 0.246094 0 L 0.246094 841.136719 L 594.675781 841.136719 L 594.675781 0 Z M 0.246094 0 " fill-rule="nonzero"/></g><g clip-path="url(#1458d36d2f)"><path fill="#ffffff" d="M 297.589844 167.4375 C 158.035156 167.4375 44.484375 280.980469 44.484375 420.542969 C 44.488281 560.101562 158.03125 673.644531 297.585938 673.644531 C 437.144531 673.644531 550.6875 560.101562 550.6875 420.542969 C 550.691406 280.976562 437.140625 167.4375 297.589844 167.4375 Z M 297.589844 684.230469 C 152.1875 684.230469 33.894531 565.941406 33.894531 420.539062 C 33.894531 275.140625 152.1875 156.847656 297.589844 156.847656 C 442.988281 156.847656 561.28125 275.140625 561.28125 420.539062 C 561.28125 565.9375 442.988281 684.234375 297.589844 684.230469 Z M 297.589844 684.230469 " fill-opacity="1" fill-rule="evenodd"/></g><g clip-path="url(#87c5f7dde2)"><path fill="#ffffff" d="M 297.589844 167.4375 C 158.035156 167.4375 44.484375 280.980469 44.484375 420.542969 C 44.488281 560.101562 158.03125 673.644531 297.585938 673.644531 C 437.144531 673.644531 550.6875 560.101562 550.6875 420.542969 C 550.691406 280.976562 437.140625 167.4375 297.589844 167.4375 Z M 297.589844 684.230469 C 152.1875 684.230469 33.894531 565.941406 33.894531 420.539062 C 33.894531 275.140625 152.1875 156.847656 297.589844 156.847656 C 442.988281 156.847656 561.28125 275.140625 561.28125 420.539062 C 561.28125 565.9375 442.988281 684.234375 297.589844 684.230469 Z M 297.589844 684.230469 " fill-opacity="1" fill-rule="evenodd"/></g><g clip-path="url(#8706281347)"><path fill="#ffffff" d="M 297.589844 167.4375 C 158.035156 167.4375 44.484375 280.980469 44.484375 420.542969 C 44.488281 560.101562 158.03125 673.644531 297.585938 673.644531 C 437.144531 673.644531 550.6875 560.101562 550.6875 420.542969 C 550.691406 280.976562 437.140625 167.4375 297.589844 167.4375 Z M 297.589844 684.230469 C 152.1875 684.230469 33.894531 565.941406 33.894531 420.539062 C 33.894531 275.140625 152.1875 156.847656 297.589844 156.847656 C 442.988281 156.847656 561.28125 275.140625 561.28125 420.539062 C 561.28125 565.9375 442.988281 684.234375 297.589844 684.230469 Z M 297.589844 684.230469 " fill-opacity="1" fill-rule="evenodd"/></g><g clip-path="url(#a621369384)"><path fill="#ffffff" d="M 297.589844 167.4375 C 158.035156 167.4375 44.484375 280.980469 44.484375 420.542969 C 44.488281 560.101562 158.03125 673.644531 297.585938 673.644531 C 437.144531 673.644531 550.6875 560.101562 550.6875 420.542969 C 550.691406 280.976562 437.140625 167.4375 297.589844 167.4375 Z M 297.589844 684.230469 C 152.1875 684.230469 33.894531 565.941406 33.894531 420.539062 C 33.894531 275.140625 152.1875 156.847656 297.589844 156.847656 C 442.988281 156.847656 561.28125 275.140625 561.28125 420.539062 C 561.28125 565.9375 442.988281 684.234375 297.589844 684.230469 Z M 297.589844 684.230469 " fill-opacity="1" fill-rule="evenodd"/></g><g clip-path="url(#919a69c93d)"><path fill="#ffffff" d="M 337.933594 448.097656 C 336.644531 448.097656 335.597656 449.148438 335.597656 450.4375 C 335.597656 471.128906 360.125 487.964844 390.277344 487.964844 C 420.433594 487.964844 444.960938 471.128906 444.960938 450.4375 C 444.960938 449.148438 443.914062 448.097656 442.625 448.097656 L 428.679688 448.097656 L 401.132812 349.085938 C 407.761719 343.570312 412.285156 336.59375 412.285156 329.261719 C 412.285156 321.898438 406.292969 315.90625 398.929688 315.90625 C 391.566406 315.90625 385.574219 321.898438 385.574219 329.261719 C 385.574219 330.910156 385.902344 332.511719 386.472656 334.007812 C 384.941406 335.75 380.46875 339.527344 370.53125 339.527344 C 362.964844 339.527344 356.289062 335.941406 349.832031 332.476562 C 344.726562 329.738281 339.449219 326.902344 333.832031 325.941406 C 324.503906 324.34375 314.589844 326.820312 309.804688 328.316406 L 309.804688 319.976562 C 314.347656 315.023438 317.058594 307.480469 317.058594 299.503906 C 317.054688 285.011719 308.332031 273.214844 297.613281 273.214844 C 286.894531 273.214844 278.167969 285.011719 278.167969 299.507812 C 278.167969 307.484375 280.878906 315.027344 285.425781 319.980469 L 285.425781 328.316406 C 280.636719 326.820312 270.726562 324.34375 261.394531 325.941406 C 255.78125 326.90625 250.5 329.738281 245.398438 332.476562 C 238.941406 335.941406 232.265625 339.527344 224.699219 339.527344 C 214.761719 339.527344 210.289062 335.746094 208.753906 334.007812 C 209.328125 332.511719 209.652344 330.910156 209.652344 329.261719 C 209.652344 321.898438 203.660156 315.90625 196.296875 315.90625 C 188.933594 315.90625 182.945312 321.898438 182.945312 329.261719 C 182.945312 336.59375 187.464844 343.570312 194.097656 349.085938 L 166.546875 448.097656 L 152.601562 448.097656 C 151.3125 448.097656 150.261719 449.148438 150.261719 450.4375 C 150.261719 471.128906 174.792969 487.964844 204.945312 487.964844 C 235.097656 487.964844 259.628906 471.128906 259.628906 450.4375 C 259.628906 449.148438 258.582031 448.097656 257.289062 448.097656 L 243.347656 448.097656 L 218.917969 360.300781 C 220.875 360.597656 222.816406 360.761719 224.699219 360.761719 C 235.074219 360.761719 243.15625 357.632812 250.285156 354.871094 C 255.75 352.753906 260.476562 350.921875 265.339844 350.765625 C 274.378906 350.4375 282.792969 355.894531 285.429688 357.78125 L 285.429688 514.890625 L 259.125 514.890625 C 257.835938 514.890625 256.789062 515.941406 256.789062 517.230469 L 256.789062 528.625 L 235.554688 528.625 C 229.152344 528.625 223.421875 532.917969 221.632812 539.066406 L 219.640625 545.898438 L 185.640625 545.898438 C 179.164062 545.898438 173.375 550.242188 171.566406 556.464844 L 169.109375 564.925781 C 168.90625 565.632812 169.042969 566.394531 169.484375 566.980469 C 169.925781 567.570312 170.621094 567.914062 171.359375 567.914062 L 423.871094 567.914062 C 424.605469 567.914062 425.300781 567.570312 425.742188 566.980469 C 426.183594 566.394531 426.320312 565.628906 426.117188 564.925781 L 423.660156 556.464844 C 421.851562 550.242188 416.0625 545.898438 409.585938 545.898438 L 375.585938 545.898438 L 373.59375 539.066406 C 371.800781 532.917969 366.078125 528.625 359.671875 528.625 L 338.4375 528.625 L 338.4375 517.230469 C 338.4375 515.941406 337.390625 514.890625 336.097656 514.890625 L 309.796875 514.890625 L 309.796875 357.78125 C 312.417969 355.898438 320.777344 350.484375 329.886719 350.765625 C 334.75 350.921875 339.472656 352.753906 344.945312 354.871094 C 352.074219 357.632812 360.152344 360.761719 370.527344 360.761719 C 372.414062 360.761719 374.347656 360.597656 376.308594 360.300781 L 351.882812 448.097656 Z M 390.277344 483.289062 C 363.902344 483.289062 342.230469 469.804688 340.398438 452.777344 L 353.648438 452.777344 C 353.652344 452.777344 353.65625 452.777344 353.660156 452.777344 C 353.660156 452.777344 353.664062 452.777344 353.667969 452.777344 L 426.890625 452.777344 C 426.894531 452.777344 426.898438 452.777344 426.898438 452.777344 C 426.902344 452.777344 426.902344 452.777344 426.910156 452.777344 L 440.15625 452.777344 C 438.328125 469.804688 416.65625 483.289062 390.277344 483.289062 Z M 423.824219 448.097656 L 392.617188 448.097656 L 392.617188 354.765625 C 394.167969 353.941406 395.667969 353.042969 397.105469 352.082031 Z M 305.121094 329.292969 L 290.105469 329.292969 L 290.105469 321.429688 L 305.121094 321.429688 Z M 297.613281 277.894531 C 305.753906 277.894531 312.378906 287.589844 312.378906 299.507812 C 312.378906 306.300781 310.152344 312.648438 306.421875 316.753906 L 288.804688 316.753906 C 285.074219 312.648438 282.847656 306.300781 282.847656 299.507812 C 282.851562 287.589844 289.472656 277.894531 297.613281 277.894531 Z M 198.117188 352.082031 C 199.554688 353.042969 201.058594 353.941406 202.605469 354.765625 L 202.605469 448.097656 L 171.402344 448.097656 Z M 204.945312 483.289062 C 178.570312 483.289062 156.898438 469.804688 155.066406 452.777344 L 168.316406 452.777344 C 168.320312 452.777344 168.320312 452.777344 168.328125 452.777344 C 168.328125 452.777344 168.332031 452.777344 168.332031 452.777344 L 241.558594 452.777344 C 241.5625 452.777344 241.5625 452.777344 241.566406 452.777344 C 241.570312 452.777344 241.570312 452.777344 241.574219 452.777344 L 254.824219 452.777344 C 252.992188 469.804688 231.320312 483.289062 204.945312 483.289062 Z M 238.488281 448.097656 L 207.285156 448.097656 L 207.285156 356.984375 C 209.410156 357.871094 211.582031 358.621094 213.757812 359.210938 Z M 265.183594 346.089844 C 259.527344 346.277344 254.214844 348.332031 248.59375 350.507812 C 241.515625 353.246094 234.199219 356.082031 224.699219 356.082031 C 207.371094 356.082031 187.621094 341.792969 187.621094 329.261719 C 187.621094 324.476562 191.515625 320.585938 196.296875 320.585938 C 201.082031 320.585938 204.972656 324.476562 204.972656 329.261719 C 204.972656 332.367188 203.300781 335.253906 200.601562 336.796875 C 199.480469 337.441406 199.09375 338.871094 199.734375 339.992188 C 200.375 341.113281 201.804688 341.5 202.925781 340.859375 C 204.203125 340.125 205.308594 339.183594 206.257812 338.109375 C 209.007812 340.679688 214.605469 344.207031 224.695312 344.207031 C 233.4375 344.207031 240.640625 340.34375 247.609375 336.601562 C 252.601562 333.921875 257.316406 331.390625 262.183594 330.554688 C 271.519531 328.957031 281.953125 332.066406 285.425781 333.242188 L 285.425781 352.175781 C 281.082031 349.503906 273.519531 345.8125 265.183594 346.089844 Z M 419.164062 557.769531 L 420.753906 563.238281 L 174.472656 563.238281 L 176.0625 557.769531 C 177.292969 553.53125 181.230469 550.574219 185.640625 550.574219 L 409.589844 550.574219 C 413.996094 550.574219 417.933594 553.53125 419.164062 557.769531 Z M 369.101562 540.375 L 370.710938 545.898438 L 224.511719 545.898438 L 226.121094 540.375 C 227.335938 536.207031 231.21875 533.300781 235.554688 533.300781 L 359.671875 533.300781 C 364.007812 533.300781 367.890625 536.207031 369.101562 540.375 Z M 333.761719 528.625 L 261.464844 528.625 L 261.464844 519.570312 L 333.761719 519.570312 Z M 290.105469 514.890625 L 290.105469 333.972656 L 305.121094 333.972656 L 305.121094 514.890625 Z M 346.632812 350.507812 C 341.011719 348.332031 335.699219 346.273438 330.042969 346.089844 C 321.707031 345.835938 314.144531 349.519531 309.800781 352.179688 L 309.800781 333.242188 C 313.269531 332.066406 323.707031 328.953125 333.042969 330.554688 C 337.910156 331.386719 342.625 333.917969 347.617188 336.601562 C 354.585938 340.339844 361.785156 344.207031 370.53125 344.207031 C 380.625 344.207031 386.21875 340.679688 388.96875 338.109375 C 389.917969 339.179688 391.023438 340.125 392.300781 340.855469 C 393.421875 341.496094 394.847656 341.109375 395.492188 339.988281 C 396.136719 338.867188 395.746094 337.441406 394.625 336.796875 C 391.929688 335.25 390.25 332.363281 390.25 329.261719 C 390.25 324.476562 394.144531 320.582031 398.929688 320.582031 C 403.710938 320.582031 407.601562 324.476562 407.601562 329.261719 C 407.601562 341.792969 387.855469 356.082031 370.527344 356.082031 C 361.027344 356.082031 353.707031 353.25 346.632812 350.507812 Z M 381.464844 359.210938 C 383.644531 358.621094 385.8125 357.871094 387.941406 356.984375 L 387.941406 448.097656 L 356.738281 448.097656 Z M 381.464844 359.210938 " fill-opacity="1" fill-rule="nonzero"/></g></svg>