<svg xmlns="http://www.w3.org/2000/svg" xmlns:xlink="http://www.w3.org/1999/xlink" width="1014" zoomAndPan="magnify" viewBox="0 0 760.5 816.74997" height="1089" preserveAspectRatio="xMidYMid meet" version="1.0"><defs><clipPath id="8fe515b328"><path d="M 23 208 L 737 208 L 737 673.046875 L 23 673.046875 Z M 23 208 " clip-rule="nonzero"/></clipPath></defs><path fill="#13334d" d="M 380.117188 616.828125 C 378.402344 616.828125 376.683594 616.433594 375.105469 615.636719 L 367.808594 611.960938 C 284.070312 569.757812 185.445312 563.769531 97.21875 595.53125 C 93.804688 596.757812 90.011719 596.25 87.042969 594.164062 C 84.078125 592.082031 82.3125 588.679688 82.3125 585.054688 L 82.3125 177.539062 C 82.3125 172.84375 85.257812 168.652344 89.675781 167.0625 C 136.644531 150.152344 185.726562 143.113281 235.554688 146.140625 C 285.382812 149.164062 333.25 162.089844 377.832031 184.554688 L 385.128906 188.234375 C 388.882812 190.128906 391.25 193.972656 391.25 198.179688 L 391.25 605.695312 C 391.25 609.5625 389.246094 613.148438 385.953125 615.175781 C 384.167969 616.273438 382.144531 616.828125 380.117188 616.828125 Z M 213.109375 552.976562 C 220.574219 552.976562 228.050781 553.203125 235.554688 553.65625 C 282.101562 556.484375 326.9375 567.949219 368.980469 587.761719 L 368.980469 205.035156 L 367.808594 204.441406 C 286.390625 163.410156 190.902344 156.609375 104.578125 185.460938 L 104.578125 569.570312 C 139.851562 558.535156 176.222656 552.976562 213.109375 552.976562 Z M 213.109375 552.976562 " fill-opacity="1" fill-rule="nonzero"/><path fill="#13334d" d="M 305.023438 420.40625 C 304.378906 420.40625 303.726562 420.347656 303.074219 420.230469 C 259.636719 412.558594 214.984375 410.542969 170.355469 414.253906 C 164.226562 414.769531 158.847656 410.210938 158.335938 404.082031 C 157.824219 397.957031 162.382812 392.574219 168.507812 392.0625 C 215.046875 388.195312 261.625 390.296875 306.945312 398.304688 C 313 399.375 317.042969 405.148438 315.972656 411.203125 C 315.019531 416.605469 310.324219 420.40625 305.023438 420.40625 Z M 305.023438 420.40625 " fill-opacity="1" fill-rule="nonzero"/><path fill="#13334d" d="M 304.699219 465.628906 C 304.054688 465.628906 303.402344 465.570312 302.746094 465.457031 C 259.3125 457.777344 214.660156 455.769531 170.03125 459.480469 C 163.90625 459.988281 158.519531 455.433594 158.011719 449.304688 C 157.503906 443.179688 162.058594 437.796875 168.1875 437.289062 C 214.726562 433.417969 261.304688 435.519531 306.625 443.527344 C 312.679688 444.597656 316.71875 450.375 315.648438 456.429688 C 314.695312 461.828125 310 465.628906 304.699219 465.628906 Z M 304.699219 465.628906 " fill-opacity="1" fill-rule="nonzero"/><path fill="#13334d" d="M 304.375 510.851562 C 303.730469 510.851562 303.082031 510.796875 302.425781 510.679688 C 258.988281 503.003906 214.335938 500.992188 169.707031 504.703125 C 163.585938 505.207031 158.199219 500.660156 157.691406 494.53125 C 157.179688 488.402344 161.734375 483.023438 167.863281 482.511719 C 214.402344 478.644531 260.980469 480.742188 306.300781 488.753906 C 312.355469 489.824219 316.394531 495.601562 315.328125 501.65625 C 314.371094 507.054688 309.675781 510.851562 304.375 510.851562 Z M 304.375 510.851562 " fill-opacity="1" fill-rule="nonzero"/><path fill="#13334d" d="M 455.046875 420.40625 C 449.746094 420.40625 445.050781 416.605469 444.097656 411.207031 C 443.023438 405.152344 447.066406 399.375 453.121094 398.304688 C 498.445312 390.296875 545.019531 388.195312 591.558594 392.066406 C 597.6875 392.574219 602.242188 397.957031 601.734375 404.085938 C 601.222656 410.210938 595.851562 414.773438 589.714844 414.257812 C 545.085938 410.546875 500.433594 412.558594 457 420.234375 C 456.339844 420.347656 455.6875 420.40625 455.046875 420.40625 Z M 455.046875 420.40625 " fill-opacity="1" fill-rule="nonzero"/><path fill="#13334d" d="M 455.371094 465.628906 C 450.070312 465.628906 445.375 461.828125 444.421875 456.429688 C 443.351562 450.371094 447.390625 444.597656 453.449219 443.527344 C 498.765625 435.515625 545.34375 433.417969 591.886719 437.285156 C 598.011719 437.796875 602.566406 443.175781 602.058594 449.304688 C 601.546875 455.429688 596.171875 459.980469 590.039062 459.476562 C 545.410156 455.765625 500.757812 457.777344 457.324219 465.453125 C 456.664062 465.574219 456.011719 465.628906 455.371094 465.628906 Z M 455.371094 465.628906 " fill-opacity="1" fill-rule="nonzero"/><path fill="#13334d" d="M 455.695312 510.851562 C 450.394531 510.851562 445.695312 507.054688 444.742188 501.652344 C 443.671875 495.597656 447.714844 489.820312 453.769531 488.75 C 499.09375 480.742188 545.671875 478.640625 592.207031 482.511719 C 598.335938 483.023438 602.890625 488.402344 602.378906 494.527344 C 601.871094 500.65625 596.496094 505.207031 590.363281 504.703125 C 545.734375 500.992188 501.082031 503.003906 457.644531 510.679688 C 456.988281 510.796875 456.335938 510.851562 455.695312 510.851562 Z M 455.695312 510.851562 " fill-opacity="1" fill-rule="nonzero"/><g clip-path="url(#8fe515b328)"><path fill="#13334d" d="M 380.117188 673.324219 C 366.851562 673.324219 353.582031 670.277344 341.488281 664.179688 C 333.746094 660.277344 325.699219 656.679688 317.570312 653.492188 C 284.613281 640.566406 248.59375 633.730469 213.402344 633.730469 C 180.457031 633.730469 148.03125 639.390625 117.023438 650.554688 L 64.667969 669.398438 C 55.335938 672.761719 44.914062 671.363281 36.796875 665.65625 C 28.679688 659.949219 23.835938 650.621094 23.835938 640.699219 L 23.835938 219.925781 C 23.835938 213.777344 28.820312 208.792969 34.96875 208.792969 L 90.914062 208.792969 C 97.0625 208.792969 102.046875 213.777344 102.046875 219.925781 C 102.046875 226.074219 97.0625 231.0625 90.914062 231.0625 L 46.101562 231.0625 L 46.101562 640.699219 C 46.101562 643.417969 47.378906 645.875 49.605469 647.4375 C 51.828125 649 54.570312 649.367188 57.128906 648.449219 L 109.484375 629.601562 C 142.917969 617.566406 177.878906 611.464844 213.40625 611.464844 C 251.347656 611.464844 290.179688 618.828125 325.703125 632.761719 C 334.472656 636.199219 343.15625 640.082031 351.515625 644.296875 C 369.421875 653.320312 390.808594 653.324219 408.71875 644.292969 C 417.074219 640.078125 425.757812 636.199219 434.53125 632.757812 C 470.054688 618.828125 508.882812 611.460938 546.828125 611.460938 C 582.351562 611.460938 617.316406 617.566406 650.75 629.601562 L 703.105469 648.449219 C 705.660156 649.371094 708.40625 649 710.628906 647.4375 C 712.855469 645.875 714.128906 643.417969 714.128906 640.699219 L 714.128906 231.0625 L 670.050781 231.0625 C 663.902344 231.0625 658.914062 226.074219 658.914062 219.925781 C 658.914062 213.777344 663.902344 208.792969 670.050781 208.792969 L 725.265625 208.792969 C 731.414062 208.792969 736.398438 213.777344 736.398438 219.925781 L 736.398438 640.699219 C 736.398438 650.621094 731.550781 659.949219 723.433594 665.65625 C 715.320312 671.363281 704.898438 672.757812 695.5625 669.398438 L 643.207031 650.554688 C 612.203125 639.390625 579.773438 633.730469 546.828125 633.730469 C 511.644531 633.730469 475.621094 640.566406 442.660156 653.492188 C 434.535156 656.679688 426.488281 660.273438 418.746094 664.179688 C 406.648438 670.277344 393.382812 673.324219 380.117188 673.324219 Z M 380.117188 673.324219 " fill-opacity="1" fill-rule="nonzero"/></g><path fill="#13334d" d="M 380.117188 616.828125 C 378.085938 616.828125 376.0625 616.273438 374.277344 615.175781 C 370.984375 613.148438 368.980469 609.558594 368.980469 605.695312 L 368.980469 198.175781 C 368.980469 193.972656 371.347656 190.125 375.101562 188.234375 L 382.398438 184.554688 C 426.976562 162.089844 474.84375 149.164062 524.675781 146.140625 C 574.503906 143.113281 623.582031 150.152344 670.554688 167.0625 C 674.96875 168.652344 677.917969 172.84375 677.917969 177.539062 L 677.917969 585.054688 C 677.917969 588.683594 676.152344 592.082031 673.183594 594.167969 C 670.21875 596.25 666.421875 596.761719 663.011719 595.53125 C 574.785156 563.773438 476.160156 569.761719 392.421875 611.960938 L 385.125 615.640625 C 383.546875 616.433594 381.832031 616.828125 380.117188 616.828125 Z M 391.25 205.035156 L 391.25 587.761719 C 433.292969 567.949219 478.128906 556.484375 524.675781 553.65625 C 569.261719 550.953125 613.242188 556.300781 655.652344 569.566406 L 655.652344 185.460938 C 569.328125 156.613281 473.839844 163.410156 392.421875 204.441406 Z M 391.25 205.035156 " fill-opacity="1" fill-rule="nonzero"/><path fill="#13334d" d="M 522.152344 362.074219 C 478.394531 362.074219 442.796875 326.476562 442.796875 282.71875 C 442.796875 238.960938 478.394531 203.363281 522.152344 203.363281 C 565.910156 203.363281 601.507812 238.960938 601.507812 282.71875 C 601.511719 326.476562 565.910156 362.074219 522.152344 362.074219 Z M 522.152344 225.628906 C 490.671875 225.628906 465.0625 251.238281 465.0625 282.71875 C 465.0625 314.195312 490.671875 339.804688 522.152344 339.804688 C 553.632812 339.804688 579.242188 314.195312 579.242188 282.71875 C 579.242188 251.238281 553.632812 225.628906 522.152344 225.628906 Z M 522.152344 225.628906 " fill-opacity="1" fill-rule="nonzero"/><path fill="#13334d" d="M 502.644531 313.363281 C 499.792969 313.363281 496.945312 312.277344 494.769531 310.101562 C 490.421875 305.75 490.421875 298.703125 494.769531 294.355469 L 533.789062 255.335938 C 538.140625 250.988281 545.1875 250.988281 549.535156 255.335938 C 553.882812 259.683594 553.882812 266.734375 549.535156 271.082031 L 510.515625 310.101562 C 508.339844 312.277344 505.492188 313.363281 502.644531 313.363281 Z M 502.644531 313.363281 " fill-opacity="1" fill-rule="nonzero"/><path fill="#13334d" d="M 541.664062 313.363281 C 538.8125 313.363281 535.964844 312.277344 533.789062 310.101562 L 494.769531 271.082031 C 490.421875 266.730469 490.421875 259.683594 494.769531 255.335938 C 499.117188 250.988281 506.167969 250.988281 510.515625 255.335938 L 549.535156 294.355469 C 553.882812 298.703125 553.882812 305.753906 549.535156 310.101562 C 547.363281 312.277344 544.511719 313.363281 541.664062 313.363281 Z M 541.664062 313.363281 " fill-opacity="1" fill-rule="nonzero"/><path fill="#13334d" d="M 238.078125 362.074219 C 194.320312 362.074219 158.722656 326.476562 158.722656 282.71875 C 158.722656 238.960938 194.320312 203.363281 238.078125 203.363281 C 281.835938 203.363281 317.4375 238.960938 317.4375 282.71875 C 317.4375 326.476562 281.835938 362.074219 238.078125 362.074219 Z M 238.078125 225.628906 C 206.597656 225.628906 180.988281 251.238281 180.988281 282.71875 C 180.988281 314.195312 206.597656 339.804688 238.078125 339.804688 C 269.558594 339.804688 295.167969 314.195312 295.167969 282.71875 C 295.167969 251.238281 269.558594 225.628906 238.078125 225.628906 Z M 238.078125 225.628906 " fill-opacity="1" fill-rule="nonzero"/><path fill="#13334d" d="M 226.410156 317.246094 C 223.5625 317.246094 220.714844 316.160156 218.539062 313.984375 L 202.851562 298.296875 C 198.503906 293.949219 198.503906 286.902344 202.851562 282.554688 C 207.199219 278.207031 214.25 278.207031 218.597656 282.554688 L 226.410156 290.367188 L 257.558594 259.21875 C 261.90625 254.871094 268.957031 254.871094 273.304688 259.21875 C 277.652344 263.566406 277.652344 270.617188 273.304688 274.964844 L 234.285156 313.984375 C 232.109375 316.160156 229.261719 317.246094 226.410156 317.246094 Z M 226.410156 317.246094 " fill-opacity="1" fill-rule="nonzero"/></svg>