<svg xmlns="http://www.w3.org/2000/svg" xmlns:xlink="http://www.w3.org/1999/xlink" width="793" zoomAndPan="magnify" viewBox="0 0 594.95996 842.24997" height="1122" preserveAspectRatio="xMidYMid meet" version="1.0"><defs><clipPath id="479377d988"><path d="M 0.246094 0 L 594.675781 0 L 594.675781 841.5 L 0.246094 841.5 Z M 0.246094 0 " clip-rule="nonzero"/></clipPath><clipPath id="4ed54c52eb"><path d="M 0.246094 0 L 594.675781 0 L 594.675781 841.136719 L 0.246094 841.136719 Z M 0.246094 0 " clip-rule="nonzero"/></clipPath><linearGradient x1="0.00519078" gradientTransform="matrix(0.74933, 0, 0, 0.74933, 0.240781, 0)" y1="561.26001" x2="793.288289" gradientUnits="userSpaceOnUse" y2="561.26001" id="27419135fc"><stop stop-opacity="1" stop-color="rgb(19.198608%, 29.798889%, 38.398743%)" offset="0"/><stop stop-opacity="1" stop-color="rgb(19.239807%, 29.881287%, 38.513184%)" offset="0.0078125"/><stop stop-opacity="1" stop-color="rgb(19.32373%, 30.047607%, 38.743591%)" offset="0.015625"/><stop stop-opacity="1" stop-color="rgb(19.406128%, 30.212402%, 38.972473%)" offset="0.0234375"/><stop stop-opacity="1" stop-color="rgb(19.488525%, 30.378723%, 39.202881%)" offset="0.03125"/><stop stop-opacity="1" stop-color="rgb(19.570923%, 30.543518%, 39.431763%)" offset="0.0390625"/><stop stop-opacity="1" stop-color="rgb(19.654846%, 30.709839%, 39.66217%)" offset="0.046875"/><stop stop-opacity="1" stop-color="rgb(19.737244%, 30.874634%, 39.891052%)" offset="0.0546875"/><stop stop-opacity="1" stop-color="rgb(19.819641%, 31.040955%, 40.12146%)" offset="0.0625"/><stop stop-opacity="1" stop-color="rgb(19.902039%, 31.20575%, 40.350342%)" offset="0.0703125"/><stop stop-opacity="1" stop-color="rgb(19.985962%, 31.37207%, 40.579224%)" offset="0.078125"/><stop stop-opacity="1" stop-color="rgb(20.068359%, 31.536865%, 40.809631%)" offset="0.0859375"/><stop stop-opacity="1" stop-color="rgb(20.150757%, 31.703186%, 41.038513%)" offset="0.09375"/><stop stop-opacity="1" stop-color="rgb(20.233154%, 31.867981%, 41.268921%)" offset="0.101562"/><stop stop-opacity="1" stop-color="rgb(20.317078%, 32.034302%, 41.497803%)" offset="0.109375"/><stop stop-opacity="1" stop-color="rgb(20.399475%, 32.199097%, 41.72821%)" offset="0.117187"/><stop stop-opacity="1" stop-color="rgb(20.481873%, 32.365417%, 41.957092%)" offset="0.125"/><stop stop-opacity="1" stop-color="rgb(20.56427%, 32.530212%, 42.1875%)" offset="0.132812"/><stop stop-opacity="1" stop-color="rgb(20.648193%, 32.696533%, 42.416382%)" offset="0.140625"/><stop stop-opacity="1" stop-color="rgb(20.730591%, 32.861328%, 42.64679%)" offset="0.148438"/><stop stop-opacity="1" stop-color="rgb(20.812988%, 33.027649%, 42.875671%)" offset="0.15625"/><stop stop-opacity="1" stop-color="rgb(20.895386%, 33.192444%, 43.104553%)" offset="0.164062"/><stop stop-opacity="1" stop-color="rgb(20.979309%, 33.358765%, 43.334961%)" offset="0.171875"/><stop stop-opacity="1" stop-color="rgb(21.061707%, 33.52356%, 43.563843%)" offset="0.179688"/><stop stop-opacity="1" stop-color="rgb(21.144104%, 33.68988%, 43.79425%)" offset="0.1875"/><stop stop-opacity="1" stop-color="rgb(21.226501%, 33.854675%, 44.023132%)" offset="0.195312"/><stop stop-opacity="1" stop-color="rgb(21.310425%, 34.01947%, 44.25354%)" offset="0.203125"/><stop stop-opacity="1" stop-color="rgb(21.392822%, 34.185791%, 44.482422%)" offset="0.210938"/><stop stop-opacity="1" stop-color="rgb(21.47522%, 34.350586%, 44.71283%)" offset="0.21875"/><stop stop-opacity="1" stop-color="rgb(21.557617%, 34.516907%, 44.941711%)" offset="0.226562"/><stop stop-opacity="1" stop-color="rgb(21.641541%, 34.681702%, 45.170593%)" offset="0.234375"/><stop stop-opacity="1" stop-color="rgb(21.723938%, 34.848022%, 45.401001%)" offset="0.242188"/><stop stop-opacity="1" stop-color="rgb(21.806335%, 35.012817%, 45.629883%)" offset="0.25"/><stop stop-opacity="1" stop-color="rgb(21.888733%, 35.179138%, 45.860291%)" offset="0.257812"/><stop stop-opacity="1" stop-color="rgb(21.97113%, 35.343933%, 46.089172%)" offset="0.265625"/><stop stop-opacity="1" stop-color="rgb(22.055054%, 35.510254%, 46.31958%)" offset="0.273437"/><stop stop-opacity="1" stop-color="rgb(22.137451%, 35.675049%, 46.548462%)" offset="0.28125"/><stop stop-opacity="1" stop-color="rgb(22.219849%, 35.84137%, 46.77887%)" offset="0.289062"/><stop stop-opacity="1" stop-color="rgb(22.302246%, 36.006165%, 47.007751%)" offset="0.296875"/><stop stop-opacity="1" stop-color="rgb(22.386169%, 36.172485%, 47.238159%)" offset="0.304688"/><stop stop-opacity="1" stop-color="rgb(22.468567%, 36.33728%, 47.467041%)" offset="0.3125"/><stop stop-opacity="1" stop-color="rgb(22.550964%, 36.503601%, 47.695923%)" offset="0.320312"/><stop stop-opacity="1" stop-color="rgb(22.633362%, 36.668396%, 47.926331%)" offset="0.328125"/><stop stop-opacity="1" stop-color="rgb(22.717285%, 36.834717%, 48.155212%)" offset="0.335938"/><stop stop-opacity="1" stop-color="rgb(22.799683%, 36.999512%, 48.38562%)" offset="0.34375"/><stop stop-opacity="1" stop-color="rgb(22.88208%, 37.165833%, 48.614502%)" offset="0.351563"/><stop stop-opacity="1" stop-color="rgb(22.964478%, 37.330627%, 48.84491%)" offset="0.359375"/><stop stop-opacity="1" stop-color="rgb(23.048401%, 37.496948%, 49.073792%)" offset="0.367187"/><stop stop-opacity="1" stop-color="rgb(23.130798%, 37.661743%, 49.304199%)" offset="0.375"/><stop stop-opacity="1" stop-color="rgb(23.213196%, 37.828064%, 49.533081%)" offset="0.382812"/><stop stop-opacity="1" stop-color="rgb(23.295593%, 37.992859%, 49.761963%)" offset="0.390625"/><stop stop-opacity="1" stop-color="rgb(23.379517%, 38.15918%, 49.992371%)" offset="0.398437"/><stop stop-opacity="1" stop-color="rgb(23.461914%, 38.323975%, 50.221252%)" offset="0.40625"/><stop stop-opacity="1" stop-color="rgb(23.544312%, 38.490295%, 50.45166%)" offset="0.414062"/><stop stop-opacity="1" stop-color="rgb(23.626709%, 38.65509%, 50.680542%)" offset="0.421875"/><stop stop-opacity="1" stop-color="rgb(23.710632%, 38.821411%, 50.91095%)" offset="0.429687"/><stop stop-opacity="1" stop-color="rgb(23.79303%, 38.986206%, 51.139832%)" offset="0.4375"/><stop stop-opacity="1" stop-color="rgb(23.875427%, 39.152527%, 51.370239%)" offset="0.445312"/><stop stop-opacity="1" stop-color="rgb(23.957825%, 39.317322%, 51.599121%)" offset="0.453125"/><stop stop-opacity="1" stop-color="rgb(24.041748%, 39.483643%, 51.828003%)" offset="0.460937"/><stop stop-opacity="1" stop-color="rgb(24.124146%, 39.648438%, 52.058411%)" offset="0.46875"/><stop stop-opacity="1" stop-color="rgb(24.206543%, 39.814758%, 52.287292%)" offset="0.476562"/><stop stop-opacity="1" stop-color="rgb(24.28894%, 39.979553%, 52.5177%)" offset="0.484375"/><stop stop-opacity="1" stop-color="rgb(24.372864%, 40.145874%, 52.746582%)" offset="0.492188"/><stop stop-opacity="1" stop-color="rgb(24.455261%, 40.310669%, 52.97699%)" offset="0.5"/><stop stop-opacity="1" stop-color="rgb(24.537659%, 40.475464%, 53.205872%)" offset="0.507812"/><stop stop-opacity="1" stop-color="rgb(24.620056%, 40.641785%, 53.436279%)" offset="0.515625"/><stop stop-opacity="1" stop-color="rgb(24.703979%, 40.80658%, 53.665161%)" offset="0.523438"/><stop stop-opacity="1" stop-color="rgb(24.786377%, 40.9729%, 53.895569%)" offset="0.53125"/><stop stop-opacity="1" stop-color="rgb(24.868774%, 41.137695%, 54.124451%)" offset="0.539062"/><stop stop-opacity="1" stop-color="rgb(24.951172%, 41.304016%, 54.353333%)" offset="0.546875"/><stop stop-opacity="1" stop-color="rgb(25.033569%, 41.468811%, 54.58374%)" offset="0.554688"/><stop stop-opacity="1" stop-color="rgb(25.117493%, 41.635132%, 54.812622%)" offset="0.5625"/><stop stop-opacity="1" stop-color="rgb(25.19989%, 41.799927%, 55.04303%)" offset="0.570312"/><stop stop-opacity="1" stop-color="rgb(25.282288%, 41.966248%, 55.271912%)" offset="0.578125"/><stop stop-opacity="1" stop-color="rgb(25.364685%, 42.131042%, 55.502319%)" offset="0.585938"/><stop stop-opacity="1" stop-color="rgb(25.448608%, 42.297363%, 55.731201%)" offset="0.59375"/><stop stop-opacity="1" stop-color="rgb(25.531006%, 42.462158%, 55.961609%)" offset="0.601562"/><stop stop-opacity="1" stop-color="rgb(25.613403%, 42.628479%, 56.190491%)" offset="0.609375"/><stop stop-opacity="1" stop-color="rgb(25.695801%, 42.793274%, 56.419373%)" offset="0.617188"/><stop stop-opacity="1" stop-color="rgb(25.779724%, 42.959595%, 56.64978%)" offset="0.625"/><stop stop-opacity="1" stop-color="rgb(25.862122%, 43.12439%, 56.878662%)" offset="0.632812"/><stop stop-opacity="1" stop-color="rgb(25.944519%, 43.29071%, 57.10907%)" offset="0.640625"/><stop stop-opacity="1" stop-color="rgb(26.026917%, 43.455505%, 57.337952%)" offset="0.648437"/><stop stop-opacity="1" stop-color="rgb(26.11084%, 43.621826%, 57.568359%)" offset="0.65625"/><stop stop-opacity="1" stop-color="rgb(26.193237%, 43.786621%, 57.797241%)" offset="0.664062"/><stop stop-opacity="1" stop-color="rgb(26.275635%, 43.952942%, 58.027649%)" offset="0.671875"/><stop stop-opacity="1" stop-color="rgb(26.358032%, 44.117737%, 58.256531%)" offset="0.679688"/><stop stop-opacity="1" stop-color="rgb(26.441956%, 44.284058%, 58.485413%)" offset="0.6875"/><stop stop-opacity="1" stop-color="rgb(26.524353%, 44.448853%, 58.71582%)" offset="0.695312"/><stop stop-opacity="1" stop-color="rgb(26.60675%, 44.615173%, 58.944702%)" offset="0.703125"/><stop stop-opacity="1" stop-color="rgb(26.689148%, 44.779968%, 59.17511%)" offset="0.710938"/><stop stop-opacity="1" stop-color="rgb(26.773071%, 44.946289%, 59.403992%)" offset="0.71875"/><stop stop-opacity="1" stop-color="rgb(26.855469%, 45.111084%, 59.634399%)" offset="0.726562"/><stop stop-opacity="1" stop-color="rgb(26.937866%, 45.277405%, 59.863281%)" offset="0.734375"/><stop stop-opacity="1" stop-color="rgb(27.020264%, 45.4422%, 60.093689%)" offset="0.742188"/><stop stop-opacity="1" stop-color="rgb(27.104187%, 45.608521%, 60.322571%)" offset="0.75"/><stop stop-opacity="1" stop-color="rgb(27.186584%, 45.773315%, 60.552979%)" offset="0.757812"/><stop stop-opacity="1" stop-color="rgb(27.268982%, 45.939636%, 60.78186%)" offset="0.765625"/><stop stop-opacity="1" stop-color="rgb(27.351379%, 46.104431%, 61.010742%)" offset="0.773438"/><stop stop-opacity="1" stop-color="rgb(27.435303%, 46.270752%, 61.24115%)" offset="0.78125"/><stop stop-opacity="1" stop-color="rgb(27.5177%, 46.435547%, 61.470032%)" offset="0.789062"/><stop stop-opacity="1" stop-color="rgb(27.600098%, 46.600342%, 61.700439%)" offset="0.796875"/><stop stop-opacity="1" stop-color="rgb(27.682495%, 46.766663%, 61.929321%)" offset="0.804687"/><stop stop-opacity="1" stop-color="rgb(27.766418%, 46.931458%, 62.159729%)" offset="0.8125"/><stop stop-opacity="1" stop-color="rgb(27.848816%, 47.097778%, 62.388611%)" offset="0.820312"/><stop stop-opacity="1" stop-color="rgb(27.931213%, 47.262573%, 62.619019%)" offset="0.828125"/><stop stop-opacity="1" stop-color="rgb(28.013611%, 47.428894%, 62.8479%)" offset="0.835938"/><stop stop-opacity="1" stop-color="rgb(28.097534%, 47.593689%, 63.076782%)" offset="0.84375"/><stop stop-opacity="1" stop-color="rgb(28.179932%, 47.76001%, 63.30719%)" offset="0.851562"/><stop stop-opacity="1" stop-color="rgb(28.262329%, 47.924805%, 63.536072%)" offset="0.859375"/><stop stop-opacity="1" stop-color="rgb(28.344727%, 48.091125%, 63.766479%)" offset="0.867188"/><stop stop-opacity="1" stop-color="rgb(28.427124%, 48.25592%, 63.995361%)" offset="0.875"/><stop stop-opacity="1" stop-color="rgb(28.511047%, 48.422241%, 64.225769%)" offset="0.882812"/><stop stop-opacity="1" stop-color="rgb(28.593445%, 48.587036%, 64.454651%)" offset="0.890625"/><stop stop-opacity="1" stop-color="rgb(28.675842%, 48.753357%, 64.685059%)" offset="0.898437"/><stop stop-opacity="1" stop-color="rgb(28.75824%, 48.918152%, 64.91394%)" offset="0.90625"/><stop stop-opacity="1" stop-color="rgb(28.842163%, 49.084473%, 65.144348%)" offset="0.914062"/><stop stop-opacity="1" stop-color="rgb(28.924561%, 49.249268%, 65.37323%)" offset="0.921875"/><stop stop-opacity="1" stop-color="rgb(29.006958%, 49.415588%, 65.602112%)" offset="0.929688"/><stop stop-opacity="1" stop-color="rgb(29.089355%, 49.580383%, 65.83252%)" offset="0.9375"/><stop stop-opacity="1" stop-color="rgb(29.173279%, 49.746704%, 66.061401%)" offset="0.945313"/><stop stop-opacity="1" stop-color="rgb(29.255676%, 49.911499%, 66.291809%)" offset="0.953125"/><stop stop-opacity="1" stop-color="rgb(29.338074%, 50.07782%, 66.520691%)" offset="0.960938"/><stop stop-opacity="1" stop-color="rgb(29.420471%, 50.242615%, 66.751099%)" offset="0.96875"/><stop stop-opacity="1" stop-color="rgb(29.504395%, 50.408936%, 66.97998%)" offset="0.976562"/><stop stop-opacity="1" stop-color="rgb(29.586792%, 50.57373%, 67.210388%)" offset="0.984375"/><stop stop-opacity="1" stop-color="rgb(29.669189%, 50.740051%, 67.43927%)" offset="0.992188"/><stop stop-opacity="1" stop-color="rgb(29.751587%, 50.904846%, 67.668152%)" offset="1"/></linearGradient><clipPath id="fed0d67305"><path d="M 33.894531 156.847656 L 561.425781 156.847656 L 561.425781 317.953125 L 33.894531 317.953125 Z M 33.894531 156.847656 " clip-rule="nonzero"/></clipPath><clipPath id="42a121f768"><path d="M 33.894531 156.847656 L 151.539062 156.847656 L 151.539062 684.378906 L 33.894531 684.378906 Z M 33.894531 156.847656 " clip-rule="nonzero"/></clipPath><clipPath id="0fed7e4e27"><path d="M 447.359375 156.847656 L 561.257812 156.847656 L 561.257812 684.378906 L 447.359375 684.378906 Z M 447.359375 156.847656 " clip-rule="nonzero"/></clipPath><clipPath id="180220f6de"><path d="M 33.894531 521.308594 L 561.425781 521.308594 L 561.425781 684.378906 L 33.894531 684.378906 Z M 33.894531 521.308594 " clip-rule="nonzero"/></clipPath><clipPath id="b0e2611025"><path d="M 160 274.445312 L 445 274.445312 L 445 549.449219 L 160 549.449219 Z M 160 274.445312 " clip-rule="nonzero"/></clipPath></defs><g clip-path="url(#479377d988)"><path fill="#ffffff" d="M 0.246094 0 L 595.214844 0 L 595.214844 841.5 L 0.246094 841.5 Z M 0.246094 0 " fill-opacity="1" fill-rule="nonzero"/></g><g clip-path="url(#4ed54c52eb)"><path fill="url(#27419135fc)" d="M 0.246094 0 L 0.246094 841.136719 L 594.675781 841.136719 L 594.675781 0 Z M 0.246094 0 " fill-rule="nonzero"/></g><g clip-path="url(#fed0d67305)"><path fill="#ffffff" d="M 297.589844 167.4375 C 158.035156 167.4375 44.484375 280.980469 44.484375 420.542969 C 44.488281 560.101562 158.03125 673.644531 297.585938 673.644531 C 437.144531 673.644531 550.6875 560.101562 550.6875 420.542969 C 550.691406 280.976562 437.140625 167.4375 297.589844 167.4375 Z M 297.589844 684.230469 C 152.1875 684.230469 33.894531 565.941406 33.894531 420.539062 C 33.894531 275.140625 152.1875 156.847656 297.589844 156.847656 C 442.988281 156.847656 561.28125 275.140625 561.28125 420.539062 C 561.28125 565.9375 442.988281 684.234375 297.589844 684.230469 Z M 297.589844 684.230469 " fill-opacity="1" fill-rule="evenodd"/></g><g clip-path="url(#42a121f768)"><path fill="#ffffff" d="M 297.589844 167.4375 C 158.035156 167.4375 44.484375 280.980469 44.484375 420.542969 C 44.488281 560.101562 158.03125 673.644531 297.585938 673.644531 C 437.144531 673.644531 550.6875 560.101562 550.6875 420.542969 C 550.691406 280.976562 437.140625 167.4375 297.589844 167.4375 Z M 297.589844 684.230469 C 152.1875 684.230469 33.894531 565.941406 33.894531 420.539062 C 33.894531 275.140625 152.1875 156.847656 297.589844 156.847656 C 442.988281 156.847656 561.28125 275.140625 561.28125 420.539062 C 561.28125 565.9375 442.988281 684.234375 297.589844 684.230469 Z M 297.589844 684.230469 " fill-opacity="1" fill-rule="evenodd"/></g><g clip-path="url(#0fed7e4e27)"><path fill="#ffffff" d="M 297.589844 167.4375 C 158.035156 167.4375 44.484375 280.980469 44.484375 420.542969 C 44.488281 560.101562 158.03125 673.644531 297.585938 673.644531 C 437.144531 673.644531 550.6875 560.101562 550.6875 420.542969 C 550.691406 280.976562 437.140625 167.4375 297.589844 167.4375 Z M 297.589844 684.230469 C 152.1875 684.230469 33.894531 565.941406 33.894531 420.539062 C 33.894531 275.140625 152.1875 156.847656 297.589844 156.847656 C 442.988281 156.847656 561.28125 275.140625 561.28125 420.539062 C 561.28125 565.9375 442.988281 684.234375 297.589844 684.230469 Z M 297.589844 684.230469 " fill-opacity="1" fill-rule="evenodd"/></g><g clip-path="url(#180220f6de)"><path fill="#ffffff" d="M 297.589844 167.4375 C 158.035156 167.4375 44.484375 280.980469 44.484375 420.542969 C 44.488281 560.101562 158.03125 673.644531 297.585938 673.644531 C 437.144531 673.644531 550.6875 560.101562 550.6875 420.542969 C 550.691406 280.976562 437.140625 167.4375 297.589844 167.4375 Z M 297.589844 684.230469 C 152.1875 684.230469 33.894531 565.941406 33.894531 420.539062 C 33.894531 275.140625 152.1875 156.847656 297.589844 156.847656 C 442.988281 156.847656 561.28125 275.140625 561.28125 420.539062 C 561.28125 565.9375 442.988281 684.234375 297.589844 684.230469 Z M 297.589844 684.230469 " fill-opacity="1" fill-rule="evenodd"/></g><g clip-path="url(#b0e2611025)"><path fill="#ffffff" d="M 432.804688 475.429688 C 424.039062 465.820312 410.414062 455.816406 393.996094 447.671875 L 393.78125 447.5625 C 392.183594 446.773438 390.59375 446.03125 389.003906 445.296875 L 389.003906 304.007812 C 389.003906 295.054688 380.695312 287.339844 367.257812 282.113281 C 355.101562 277.378906 338.410156 274.445312 320.074219 274.445312 C 301.742188 274.445312 285.050781 277.378906 272.886719 282.109375 C 259.457031 287.335938 251.144531 295.046875 251.144531 304 L 251.144531 364.121094 C 244.183594 363.15625 236.710938 362.625 228.9375 362.625 C 210.601562 362.625 193.914062 365.554688 181.746094 370.285156 C 168.320312 375.519531 160.011719 383.230469 160.011719 392.1875 L 160.011719 520.152344 C 160.011719 529.109375 168.320312 536.820312 181.753906 542.046875 C 193.917969 546.785156 210.609375 549.710938 228.945312 549.710938 C 247.28125 549.710938 263.96875 546.777344 276.132812 542.046875 C 287.628906 537.574219 295.371094 531.273438 297.359375 523.9375 C 300.179688 524.335938 303.066406 524.679688 306.042969 524.925781 C 310.589844 525.308594 315.28125 525.507812 320.074219 525.507812 C 324.371094 525.507812 328.621094 525.34375 332.773438 525.027344 C 336.367188 524.757812 339.925781 524.34375 343.417969 523.832031 C 346.605469 525.6875 349.921875 527.488281 353.375 529.203125 L 353.585938 529.308594 C 369.984375 537.417969 386.210938 542.183594 399.179688 543.332031 C 413.515625 544.605469 424.375 541.378906 428.34375 533.355469 L 442.539062 504.6875 C 446.523438 496.65625 442.503906 486.066406 432.804688 475.429688 Z M 389.984375 455.609375 C 405.414062 463.257812 418.132812 472.5625 426.222656 481.421875 C 433.394531 489.285156 436.746094 496.34375 434.574219 500.730469 L 434.566406 500.738281 C 432.386719 505.128906 424.738281 506.738281 414.148438 505.796875 C 402.210938 504.738281 387.09375 500.25 371.609375 492.578125 C 356.171875 484.929688 343.445312 475.621094 335.359375 466.75 C 328.1875 458.890625 324.839844 451.832031 327.015625 447.441406 C 329.1875 443.054688 336.835938 441.433594 347.429688 442.378906 C 357.488281 443.273438 369.808594 446.605469 382.6875 452.214844 C 382.761719 452.25 382.832031 452.277344 382.902344 452.308594 C 385.238281 453.328125 387.589844 454.417969 389.953125 455.589844 Z M 304.824219 472.183594 C 303.109375 475.636719 302.882812 479.570312 303.949219 483.765625 C 303.429688 483.710938 302.910156 483.667969 302.402344 483.609375 C 300.875 483.433594 299.367188 483.234375 297.871094 483.015625 L 297.871094 460.027344 C 300.050781 460.324219 302.308594 460.585938 304.660156 460.808594 C 306.492188 460.976562 308.359375 461.113281 310.253906 461.226562 Z M 380.082031 431.960938 C 380.082031 433.296875 379.585938 434.644531 378.648438 435.988281 C 377.773438 437.246094 376.546875 438.472656 375.011719 439.667969 C 365.328125 436.308594 356.144531 434.234375 348.191406 433.53125 C 333.851562 432.261719 322.996094 435.484375 319.023438 443.507812 L 314.566406 452.511719 C 311.460938 452.40625 308.421875 452.214844 305.460938 451.945312 C 302.917969 451.710938 300.382812 451.390625 297.871094 451.023438 L 297.871094 428.035156 C 300.527344 428.402344 303.246094 428.714844 306.042969 428.949219 C 310.589844 429.335938 315.28125 429.53125 320.074219 429.53125 C 338.410156 429.53125 355.101562 426.601562 367.265625 421.871094 C 372.320312 419.902344 376.644531 417.582031 380.082031 414.980469 Z M 380.082031 399.976562 C 380.082031 404.882812 373.960938 409.71875 364.054688 413.578125 C 352.890625 417.921875 337.347656 420.613281 320.074219 420.613281 C 315.488281 420.613281 311.042969 420.421875 306.773438 420.066406 C 303.714844 419.8125 300.746094 419.464844 297.871094 419.039062 L 297.871094 396.058594 C 300.511719 396.417969 303.21875 396.730469 305.992188 396.964844 C 310.546875 397.347656 315.261719 397.554688 320.070312 397.554688 C 338.40625 397.554688 355.09375 394.621094 367.257812 389.894531 C 372.3125 387.925781 376.640625 385.605469 380.074219 383.003906 L 380.074219 399.976562 Z M 380.082031 335.992188 C 380.082031 340.898438 373.960938 345.738281 364.054688 349.59375 C 352.890625 353.9375 337.347656 356.628906 320.074219 356.628906 C 302.804688 356.628906 287.261719 353.9375 276.097656 349.59375 C 266.199219 345.738281 260.070312 340.898438 260.070312 335.992188 L 260.070312 319.015625 C 263.507812 321.621094 267.832031 323.933594 272.886719 325.902344 C 285.050781 330.640625 301.742188 333.566406 320.074219 333.566406 C 338.410156 333.566406 355.101562 330.632812 367.265625 325.902344 C 372.320312 323.933594 376.644531 321.613281 380.082031 319.015625 Z M 259.898438 365.628906 C 259.664062 361.109375 259.699219 355.941406 259.804688 350.792969 C 263.285156 353.484375 267.703125 355.871094 272.886719 357.894531 C 285.050781 362.628906 301.742188 365.554688 320.074219 365.554688 C 338.410156 365.554688 355.101562 362.625 367.265625 357.894531 C 372.320312 355.925781 376.644531 353.605469 380.082031 351.003906 L 380.082031 367.992188 C 380.082031 372.898438 373.960938 377.734375 364.054688 381.589844 C 352.890625 385.9375 337.347656 388.628906 320.074219 388.628906 C 315.472656 388.628906 311.007812 388.4375 306.734375 388.074219 C 303.332031 387.789062 300.035156 387.394531 296.867188 386.894531 C 294.285156 380.207031 286.835938 374.460938 276.132812 370.292969 C 271.359375 368.433594 265.886719 366.855469 259.898438 365.628906 Z M 288.945312 424.179688 C 288.945312 429.085938 282.820312 433.921875 272.914062 437.777344 C 261.753906 442.125 246.207031 444.816406 228.9375 444.816406 C 211.664062 444.816406 196.121094 442.125 184.957031 437.777344 C 175.058594 433.921875 168.929688 429.085938 168.929688 424.179688 L 168.929688 407.191406 C 172.367188 409.796875 176.691406 412.113281 181.746094 414.082031 C 193.914062 418.816406 210.601562 421.742188 228.9375 421.742188 C 247.273438 421.742188 263.960938 418.808594 276.125 414.082031 C 281.183594 412.113281 285.507812 409.792969 288.945312 407.191406 Z M 181.753906 446.074219 C 193.917969 450.808594 210.609375 453.734375 228.945312 453.734375 C 247.28125 453.734375 263.96875 450.800781 276.132812 446.074219 C 281.1875 444.105469 285.511719 441.78125 288.949219 439.183594 L 288.949219 456.171875 C 288.949219 461.078125 282.828125 465.914062 272.921875 469.769531 C 261.757812 474.117188 246.214844 476.808594 228.945312 476.808594 C 211.671875 476.808594 196.128906 474.117188 184.964844 469.769531 C 175.066406 465.914062 168.9375 461.078125 168.9375 456.171875 L 168.9375 439.183594 C 172.367188 441.78125 176.699219 444.105469 181.753906 446.074219 Z M 168.9375 488.15625 L 168.9375 471.167969 C 172.375 473.773438 176.699219 476.089844 181.753906 478.058594 C 193.917969 482.792969 210.609375 485.71875 228.945312 485.71875 C 247.28125 485.71875 263.96875 482.785156 276.132812 478.058594 C 281.1875 476.089844 285.511719 473.769531 288.949219 471.167969 L 288.949219 488.15625 C 288.949219 493.0625 282.828125 497.898438 272.921875 501.753906 C 261.757812 506.101562 246.214844 508.792969 228.945312 508.792969 C 211.671875 508.792969 196.128906 506.101562 184.964844 501.753906 C 175.058594 497.898438 168.9375 493.0625 168.9375 488.15625 Z M 276.089844 290.410156 C 287.253906 286.0625 302.796875 283.371094 320.070312 283.371094 C 337.339844 283.371094 352.882812 286.0625 364.046875 290.410156 C 373.949219 294.265625 380.074219 299.101562 380.074219 304.007812 C 380.074219 308.914062 373.953125 313.75 364.046875 317.609375 C 352.882812 321.953125 337.339844 324.644531 320.070312 324.644531 C 302.796875 324.644531 287.253906 321.953125 276.089844 317.609375 C 266.191406 313.75 260.0625 308.914062 260.0625 304.007812 C 260.070312 299.101562 266.191406 294.257812 276.089844 290.410156 Z M 184.957031 378.585938 C 196.121094 374.242188 211.664062 371.550781 228.9375 371.550781 C 238.148438 371.550781 246.851562 372.324219 254.679688 373.695312 C 254.722656 373.703125 254.757812 373.707031 254.800781 373.714844 C 261.601562 374.917969 267.738281 376.570312 272.921875 378.585938 C 282.820312 382.445312 288.949219 387.28125 288.949219 392.1875 C 288.949219 397.09375 282.828125 401.929688 272.921875 405.785156 C 261.757812 410.132812 246.214844 412.824219 228.945312 412.824219 C 211.671875 412.824219 196.128906 410.132812 184.964844 405.785156 C 175.066406 401.929688 168.9375 397.09375 168.9375 392.1875 C 168.9375 387.28125 175.058594 382.445312 184.957031 378.585938 Z M 272.921875 533.746094 C 261.757812 538.09375 246.214844 540.785156 228.945312 540.785156 C 211.671875 540.785156 196.128906 538.09375 184.964844 533.746094 C 175.066406 529.890625 168.9375 525.054688 168.9375 520.148438 L 168.9375 503.160156 C 172.375 505.765625 176.699219 508.082031 181.753906 510.050781 C 193.917969 514.785156 210.609375 517.710938 228.945312 517.710938 C 247.28125 517.710938 263.96875 514.777344 276.132812 510.050781 C 281.1875 508.082031 285.511719 505.757812 288.949219 503.160156 L 288.949219 520.148438 C 288.945312 525.046875 282.820312 529.890625 272.921875 533.746094 Z M 320.074219 516.574219 C 315.488281 516.574219 311.042969 516.382812 306.773438 516.027344 C 303.714844 515.773438 300.746094 515.425781 297.871094 515 L 297.871094 492.019531 C 299.027344 492.175781 300.191406 492.332031 301.390625 492.464844 C 303.566406 492.714844 305.808594 492.921875 308.132812 493.082031 C 309.855469 495.832031 312.015625 498.628906 314.566406 501.433594 C 319.046875 506.34375 324.796875 511.355469 331.539062 516.171875 C 327.859375 516.433594 324.03125 516.574219 320.074219 516.574219 Z M 420.371094 529.40625 C 418.195312 533.796875 410.546875 535.414062 399.953125 534.472656 C 388.015625 533.414062 372.898438 528.925781 357.429688 521.269531 L 357.394531 521.253906 C 341.960938 513.605469 329.242188 504.304688 321.15625 495.441406 C 318.515625 492.550781 316.398438 489.765625 314.886719 487.183594 C 314.734375 486.792969 314.53125 486.429688 314.28125 486.101562 C 312.15625 482.117188 311.546875 478.667969 312.8125 476.117188 L 320.347656 460.898438 C 322.261719 464.757812 325.109375 468.753906 328.761719 472.757812 C 337.546875 482.382812 351.207031 492.417969 367.675781 500.574219 C 384.117188 508.714844 400.378906 513.5 413.375 514.65625 C 418.777344 515.140625 423.6875 514.976562 427.917969 514.167969 Z M 420.371094 529.40625 " fill-opacity="1" fill-rule="nonzero"/></g></svg>