<svg xmlns="http://www.w3.org/2000/svg" xmlns:xlink="http://www.w3.org/1999/xlink" width="1014" zoomAndPan="magnify" viewBox="0 0 760.5 816.74997" height="1089" preserveAspectRatio="xMidYMid meet" version="1.0"><defs><clipPath id="09e1d1b125"><path d="M 312 39.445312 L 686 39.445312 L 686 386 L 312 386 Z M 312 39.445312 " clip-rule="nonzero"/></clipPath><clipPath id="dca4cbde83"><path d="M 335 368 L 744 368 L 744 776.960938 L 335 776.960938 Z M 335 368 " clip-rule="nonzero"/></clipPath></defs><path fill="#13334d" d="M 295.226562 324.972656 C 299.457031 331.492188 301.589844 339.113281 301.589844 347.878906 C 301.554688 361.296875 297.207031 372.5 288.441406 381.457031 C 279.675781 390.414062 267.023438 395.671875 250.484375 397.234375 L 250.484375 420.253906 L 229.40625 420.253906 L 229.40625 397.386719 C 201.8125 394.796875 184.777344 380.160156 178.183594 353.519531 L 210.769531 345.746094 C 213.820312 362.515625 223.804688 370.859375 240.765625 370.859375 C 248.691406 370.859375 254.558594 369.109375 258.296875 365.488281 C 262.03125 361.90625 263.898438 357.597656 263.898438 352.53125 C 263.898438 347.269531 262.03125 343.269531 258.296875 340.601562 C 254.558594 337.855469 246.253906 334.425781 233.371094 330.273438 C 221.785156 326.613281 212.714844 322.992188 206.195312 319.371094 C 199.679688 315.828125 194.382812 310.796875 190.304688 304.355469 C 186.261719 297.875 184.207031 290.332031 184.207031 281.753906 C 184.207031 270.511719 187.863281 260.375 195.105469 251.378906 C 202.386719 242.421875 213.820312 236.898438 229.40625 234.914062 L 229.40625 217.15625 L 250.484375 217.15625 L 250.484375 234.914062 C 274.035156 237.507812 289.320312 249.625 296.21875 271.386719 L 267.214844 282.289062 C 261.535156 267.347656 252.769531 259.917969 240.917969 259.917969 C 234.972656 259.917969 230.167969 261.554688 226.625 264.910156 C 223.003906 268.226562 221.175781 272.265625 221.175781 277.027344 C 221.175781 281.871094 222.925781 285.566406 226.394531 288.15625 C 229.863281 290.75 237.332031 293.914062 248.691406 297.761719 C 261.230469 301.917969 271.023438 305.878906 278.152344 309.578125 C 285.277344 313.3125 290.957031 318.417969 295.226562 324.972656 " fill-opacity="1" fill-rule="nonzero"/><g clip-path="url(#09e1d1b125)"><path fill="#13334d" d="M 547.71875 274.933594 C 538.953125 283.890625 526.339844 289.1875 509.796875 290.75 L 509.796875 313.769531 L 488.722656 313.769531 L 488.722656 290.902344 C 461.128906 288.308594 444.054688 273.675781 437.5 246.996094 L 470.085938 239.261719 C 473.097656 256.027344 483.121094 264.375 500.078125 264.375 C 508.007812 264.375 513.875 262.585938 517.609375 259 C 521.347656 255.417969 523.214844 251.113281 523.214844 246.003906 C 523.214844 240.785156 521.347656 236.78125 517.609375 234.078125 C 513.875 231.371094 505.53125 227.941406 492.648438 223.785156 C 481.0625 220.089844 472.027344 216.507812 465.511719 212.886719 C 458.957031 209.304688 453.660156 204.273438 449.617188 197.832031 C 445.539062 191.390625 443.519531 183.84375 443.519531 175.269531 C 443.519531 164.027344 447.140625 153.886719 454.421875 144.894531 C 461.664062 135.898438 473.097656 130.410156 488.722656 128.429688 L 488.722656 110.667969 L 509.796875 110.667969 L 509.796875 128.429688 C 533.351562 130.984375 548.597656 143.140625 555.53125 164.902344 L 526.492188 175.765625 C 520.8125 160.863281 512.085938 153.394531 500.230469 153.394531 C 494.25 153.394531 489.484375 155.070312 485.902344 158.421875 C 482.28125 161.738281 480.488281 165.78125 480.488281 170.503906 C 480.488281 175.34375 482.242188 179.082031 485.710938 181.671875 C 489.179688 184.226562 496.609375 187.425781 508.007812 191.277344 C 520.507812 195.429688 530.339844 199.394531 537.46875 203.089844 C 544.59375 206.789062 550.234375 211.933594 554.503906 218.449219 C 558.773438 225.003906 560.867188 232.628906 560.867188 241.394531 C 560.867188 254.808594 556.484375 265.976562 547.71875 274.933594 Z M 499.164062 39.359375 C 431.859375 39.359375 372.898438 75.074219 340.199219 128.582031 C 334.140625 138.492188 328.992188 148.972656 324.839844 159.988281 C 317.179688 180.375 312.949219 202.480469 312.949219 225.617188 C 312.949219 293.226562 349.003906 352.414062 402.929688 385.039062 C 438.71875 355.007812 485.0625 336.941406 536.019531 336.902344 C 569.0625 336.863281 600.503906 345.136719 628.363281 359.734375 C 663.542969 325.851562 685.417969 278.285156 685.417969 225.617188 C 685.417969 122.75 602.03125 39.359375 499.164062 39.359375 " fill-opacity="1" fill-rule="nonzero"/></g><path fill="#13334d" d="M 594.941406 579.070312 C 599.210938 585.585938 601.34375 593.246094 601.34375 601.972656 C 601.304688 615.390625 596.921875 626.59375 588.15625 635.550781 C 579.429688 644.507812 566.777344 649.765625 550.234375 651.367188 L 550.234375 674.347656 L 529.160156 674.347656 L 529.160156 651.480469 C 501.566406 648.890625 484.53125 634.253906 477.9375 607.613281 L 510.523438 599.878906 C 513.570312 616.609375 523.554688 624.992188 540.515625 624.992188 C 548.445312 624.992188 554.3125 623.203125 558.046875 619.621094 C 561.78125 616 563.652344 611.691406 563.652344 606.625 C 563.652344 601.363281 561.78125 597.363281 558.046875 594.695312 C 554.3125 591.988281 546.003906 588.519531 533.121094 584.367188 C 521.535156 580.707031 512.464844 577.085938 505.949219 573.464844 C 499.429688 569.921875 494.132812 564.890625 490.054688 558.449219 C 486.015625 551.96875 483.957031 544.460938 483.957031 535.886719 C 483.957031 524.605469 487.617188 514.507812 494.859375 505.511719 C 502.136719 496.515625 513.570312 491.027344 529.160156 489.007812 L 529.160156 471.285156 L 550.234375 471.285156 L 550.234375 489.007812 C 573.789062 491.601562 589.035156 503.757812 595.96875 525.519531 L 566.929688 536.382812 C 561.289062 521.441406 552.523438 514.011719 540.667969 514.011719 C 534.722656 514.011719 529.921875 515.6875 526.339844 519.003906 C 522.757812 522.355469 520.925781 526.359375 520.925781 531.125 C 520.925781 535.964844 522.679688 539.660156 526.148438 542.253906 C 529.617188 544.84375 537.046875 548.046875 548.445312 551.855469 C 560.984375 556.046875 570.777344 559.972656 577.90625 563.671875 C 585.03125 567.40625 590.710938 572.550781 594.941406 579.070312 " fill-opacity="1" fill-rule="nonzero"/><g clip-path="url(#dca4cbde83)"><path fill="#13334d" d="M 539.21875 742.035156 C 632.75 742.113281 708.742188 666.460938 708.859375 573.160156 C 708.972656 479.632812 633.28125 403.714844 539.90625 403.601562 C 446.265625 403.484375 370.574219 478.910156 370.421875 572.476562 C 370.269531 666.117188 445.730469 741.921875 539.21875 742.035156 Z M 541.089844 368.5 C 651.347656 368.347656 743.808594 460.769531 743.921875 571.21875 C 744.074219 684.90625 653.023438 776.910156 540.097656 777.136719 C 427.246094 777.367188 335.433594 685.933594 335.320312 573.160156 C 335.207031 459.585938 426.636719 368.613281 541.089844 368.5 " fill-opacity="1" fill-rule="nonzero"/></g><path fill="#13334d" d="M 291.644531 115.890625 C 207.910156 107.847656 140.871094 137.84375 94.183594 207.894531 C 16.550781 324.289062 81.835938 485.882812 218.164062 517.363281 C 247.128906 524.035156 276.132812 524.492188 305.324219 519.078125 C 310.472656 518.125 313.480469 516.183594 314.738281 510.582031 C 317.253906 499.453125 321.449219 488.820312 326.171875 478.148438 C 234.324219 502.652344 160.195312 479.214844 114.804688 393.804688 C 81.265625 330.691406 90.753906 267.769531 134.773438 211.363281 C 157.945312 181.597656 189.046875 162.996094 225.746094 154.039062 C 252.3125 147.5625 278.378906 147.675781 304.21875 153.8125 C 306.394531 141.882812 311.765625 130.832031 319.578125 121.1875 C 310.433594 118.558594 301.09375 116.804688 291.644531 115.890625 " fill-opacity="1" fill-rule="nonzero"/></svg>