<svg xmlns="http://www.w3.org/2000/svg" xmlns:xlink="http://www.w3.org/1999/xlink" width="793" zoomAndPan="magnify" viewBox="0 0 595.5 842.249979" height="1122" preserveAspectRatio="xMidYMid meet" version="1.0"><defs><clipPath id="7985ef4966"><path d="M 16.492188 264.320312 L 578 264.320312 L 578 576.792969 L 16.492188 576.792969 Z M 16.492188 264.320312 " clip-rule="nonzero"/></clipPath></defs><g clip-path="url(#7985ef4966)"><path fill="#13334d" d="M 414.8125 397.214844 L 304.789062 432.230469 L 179.699219 394.566406 C 179.699219 394.566406 179.695312 394.566406 179.691406 394.566406 L 56.664062 357.519531 L 297.324219 282.929688 L 538.753906 357.761719 Z M 408.511719 461.863281 C 393.875 476.457031 352.820312 489.089844 297.324219 489.089844 C 241.820312 489.089844 200.769531 476.457031 186.136719 461.863281 L 186.136719 415.398438 L 302.257812 450.359375 C 302.6875 450.488281 303.125 450.582031 303.570312 450.648438 C 303.6875 450.667969 303.804688 450.664062 303.917969 450.675781 C 304.234375 450.707031 304.546875 450.742188 304.863281 450.742188 C 304.875 450.742188 304.890625 450.742188 304.90625 450.738281 C 305.15625 450.738281 305.40625 450.703125 305.660156 450.683594 C 305.863281 450.664062 306.066406 450.664062 306.273438 450.628906 C 306.71875 450.558594 307.167969 450.453125 307.605469 450.316406 L 408.511719 418.199219 Z M 379.679688 508.375 C 357.808594 515.109375 328.5625 518.820312 297.324219 518.820312 C 266.085938 518.820312 236.835938 515.109375 214.96875 508.375 C 193.8125 501.863281 186.136719 494.320312 186.136719 490.835938 L 186.136719 489.21875 C 192.167969 493.792969 199.839844 497.871094 209.027344 501.332031 C 226.921875 508.066406 249.59375 512.195312 274.59375 513.265625 C 274.664062 513.273438 274.730469 513.277344 274.800781 513.277344 C 277.351562 513.277344 279.472656 511.265625 279.582031 508.691406 C 279.695312 506.046875 277.648438 503.816406 275.003906 503.703125 C 233.300781 501.910156 199.492188 491.269531 186.136719 476.410156 L 186.136719 470.308594 C 192.320312 475.019531 200.757812 479.296875 211.253906 482.972656 C 234.289062 491.035156 264.859375 495.476562 297.324219 495.476562 C 329.789062 495.476562 360.355469 491.035156 383.394531 482.972656 C 393.890625 479.296875 402.328125 475.019531 408.511719 470.308594 L 408.511719 490.835938 C 408.511719 494.320312 400.828125 501.863281 379.679688 508.375 Z M 97.109375 567.203125 C 91.007812 567.203125 85.042969 565.351562 80.023438 561.941406 L 91.089844 519.839844 C 91.15625 519.871094 91.222656 519.890625 91.289062 519.925781 C 91.40625 519.988281 91.53125 520.046875 91.652344 520.105469 L 86.679688 550.363281 C 86.394531 552.101562 87.570312 553.746094 89.3125 554.03125 C 89.488281 554.058594 89.660156 554.074219 89.832031 554.074219 C 91.371094 554.074219 92.71875 552.964844 92.976562 551.398438 L 97.925781 521.300781 C 98.144531 521.289062 98.367188 521.277344 98.585938 521.25 C 98.738281 521.234375 98.886719 521.207031 99.042969 521.179688 C 99.375 521.132812 99.703125 521.074219 100.027344 520.992188 C 100.195312 520.957031 100.355469 520.910156 100.523438 520.863281 C 100.832031 520.78125 101.136719 520.683594 101.4375 520.574219 C 101.585938 520.519531 101.734375 520.46875 101.886719 520.40625 C 102.246094 520.261719 102.597656 520.101562 102.941406 519.921875 C 103.003906 519.890625 103.070312 519.867188 103.128906 519.839844 L 114.195312 561.941406 C 109.179688 565.351562 103.214844 567.203125 97.109375 567.203125 Z M 97.109375 511.765625 C 95.339844 511.765625 93.898438 510.324219 93.898438 508.550781 C 93.898438 506.78125 95.339844 505.335938 97.109375 505.335938 C 98.882812 505.335938 100.328125 506.78125 100.328125 508.550781 C 100.328125 510.324219 98.882812 511.765625 97.109375 511.765625 Z M 571.609375 349.007812 L 300 264.820312 C 298.257812 264.28125 296.386719 264.28125 294.648438 264.820312 L 23.039062 349.007812 C 19.238281 350.183594 16.652344 353.710938 16.667969 357.683594 C 16.6875 361.660156 19.296875 365.160156 23.109375 366.308594 L 92.320312 387.148438 L 92.320312 496.699219 C 87.863281 498.507812 84.660156 502.761719 84.359375 507.785156 L 69.949219 562.609375 C 69.476562 564.40625 70.085938 566.3125 71.511719 567.503906 C 78.679688 573.484375 87.773438 576.777344 97.109375 576.777344 C 106.449219 576.777344 115.539062 573.484375 122.710938 567.503906 C 124.136719 566.3125 124.746094 564.40625 124.273438 562.609375 L 109.859375 507.785156 C 109.5625 502.761719 106.355469 498.507812 101.898438 496.699219 L 101.898438 390.03125 L 168.046875 409.949219 L 168.046875 490.835938 C 168.046875 500.882812 175.261719 515.074219 209.644531 525.660156 C 233.191406 532.914062 264.332031 536.90625 297.324219 536.90625 C 330.316406 536.90625 361.453125 532.914062 385 525.660156 C 419.382812 515.074219 426.597656 500.882812 426.597656 490.835938 L 426.597656 412.441406 L 571.675781 366.265625 C 575.4375 365.070312 577.988281 361.566406 577.976562 357.613281 C 577.960938 353.664062 575.382812 350.175781 571.609375 349.007812 " fill-opacity="1" fill-rule="nonzero"/></g><path fill="#13334d" d="M 187.296875 378.871094 L 98.453125 352.984375 C 95.914062 352.242188 93.253906 353.703125 92.511719 356.242188 C 91.773438 358.78125 93.230469 361.4375 95.769531 362.175781 L 184.613281 388.066406 C 185.0625 388.195312 185.511719 388.257812 185.957031 388.257812 C 188.03125 388.257812 189.941406 386.898438 190.550781 384.808594 C 191.289062 382.265625 189.832031 379.613281 187.296875 378.871094 " fill-opacity="1" fill-rule="nonzero"/><path fill="#13334d" d="M 242.535156 394.808594 L 205.296875 384.699219 C 202.75 384.003906 200.113281 385.511719 199.421875 388.066406 C 198.730469 390.617188 200.238281 393.25 202.789062 393.9375 L 240.03125 404.046875 C 240.449219 404.164062 240.871094 404.214844 241.285156 404.214844 C 243.390625 404.214844 245.324219 402.8125 245.902344 400.679688 C 246.597656 398.128906 245.085938 395.496094 242.535156 394.808594 " fill-opacity="1" fill-rule="nonzero"/><path fill="#13334d" d="M 181.023438 371.605469 L 217.730469 381.183594 C 218.132812 381.289062 218.542969 381.339844 218.941406 381.339844 C 221.070312 381.339844 223.011719 379.914062 223.570312 377.757812 C 224.242188 375.203125 222.707031 372.585938 220.144531 371.917969 L 183.4375 362.34375 C 180.882812 361.675781 178.265625 363.207031 177.597656 365.765625 C 176.929688 368.324219 178.464844 370.941406 181.023438 371.605469 " fill-opacity="1" fill-rule="nonzero"/><path fill="#13334d" d="M 392.023438 328.988281 L 448.945312 346.542969 C 449.417969 346.691406 449.890625 346.761719 450.359375 346.761719 C 452.40625 346.761719 454.300781 345.4375 454.933594 343.382812 C 455.714844 340.855469 454.296875 338.175781 451.769531 337.398438 L 394.84375 319.839844 C 392.320312 319.0625 389.636719 320.476562 388.859375 323.003906 C 388.078125 325.53125 389.496094 328.210938 392.023438 328.988281 " fill-opacity="1" fill-rule="nonzero"/><path fill="#13334d" d="M 470.734375 352.390625 L 489.355469 358.246094 C 489.832031 358.394531 490.3125 358.464844 490.792969 358.464844 C 492.824219 358.464844 494.714844 357.15625 495.355469 355.109375 C 496.148438 352.585938 494.75 349.898438 492.226562 349.109375 L 473.605469 343.257812 C 471.078125 342.464844 468.394531 343.867188 467.601562 346.386719 C 466.808594 348.910156 468.210938 351.597656 470.734375 352.390625 " fill-opacity="1" fill-rule="nonzero"/><path fill="#13334d" d="M 100.292969 530.445312 C 100.277344 530.445312 100.253906 530.445312 100.238281 530.445312 C 98.476562 530.472656 97.070312 531.929688 97.101562 533.6875 L 97.453125 555.1875 C 97.484375 556.933594 98.910156 558.328125 100.648438 558.328125 C 100.664062 558.328125 100.679688 558.328125 100.699219 558.328125 C 102.460938 558.300781 103.867188 556.84375 103.839844 555.082031 L 103.484375 533.582031 C 103.457031 531.835938 102.03125 530.445312 100.292969 530.445312 " fill-opacity="1" fill-rule="nonzero"/></svg>