<svg xmlns="http://www.w3.org/2000/svg" xmlns:xlink="http://www.w3.org/1999/xlink" width="793" zoomAndPan="magnify" viewBox="0 0 594.95996 842.24997" height="1122" preserveAspectRatio="xMidYMid meet" version="1.0"><defs><clipPath id="52b2d57900"><path d="M 0.246094 0 L 594.675781 0 L 594.675781 841.5 L 0.246094 841.5 Z M 0.246094 0 " clip-rule="nonzero"/></clipPath><clipPath id="992c1b5c1b"><path d="M 28.746094 115 L 565 115 L 565 727 L 28.746094 727 Z M 28.746094 115 " clip-rule="nonzero"/></clipPath></defs><g clip-path="url(#52b2d57900)"><path fill="#ffffff" d="M 0.246094 0 L 595.214844 0 L 595.214844 841.5 L 0.246094 841.5 Z M 0.246094 0 " fill-opacity="1" fill-rule="nonzero"/><path fill="#ffffff" d="M 0.246094 0 L 595.214844 0 L 595.214844 841.5 L 0.246094 841.5 Z M 0.246094 0 " fill-opacity="1" fill-rule="nonzero"/></g><g clip-path="url(#992c1b5c1b)"><path fill="#13334d" d="M 298.570312 166.90625 C 300.132812 166.90625 301.507812 167.625 303.253906 168.9375 C 333.21875 191.660156 366.457031 209.574219 402.007812 222.183594 C 435.1875 233.949219 471.640625 241.535156 510.34375 244.71875 L 510.4375 244.71875 C 512.996094 244.96875 514.992188 247.121094 515.023438 249.773438 C 515.867188 307.828125 507.722656 366.351562 490.773438 423.78125 C 460.53125 526.277344 401.007812 607.648438 313.835938 665.578125 C 301.164062 674.003906 292.640625 674.503906 280.0625 667.542969 C 165.796875 604.152344 101.40625 503.652344 83.148438 360.265625 C 78.78125 326.023438 77.34375 290.910156 78.78125 252.925781 C 78.933594 248.558594 82.210938 244.9375 86.550781 244.375 C 128.25 238.695312 172.476562 231.640625 214.582031 213.164062 C 240.769531 201.675781 265.894531 187.632812 289.207031 171.496094 C 293.734375 168.34375 296.324219 166.90625 298.570312 166.90625 Z M 563.933594 246.714844 C 563.683594 236.914062 562.996094 226.554688 558.410156 217.4375 C 553.039062 206.796875 543.832031 199.554688 530.195312 195.277344 C 519.207031 191.847656 507.003906 190.878906 496.265625 190.003906 L 496.078125 190.003906 C 444.082031 185.820312 393.425781 167.75 349.539062 137.726562 C 348.167969 136.789062 346.792969 135.851562 345.421875 134.882812 C 332 125.582031 318.109375 115.9375 301.195312 115.128906 C 282.1875 114.191406 265.457031 125.054688 250.695312 134.664062 C 249.445312 135.445312 248.226562 136.226562 247.042969 137.039062 C 212.894531 158.980469 175.660156 174.835938 136.332031 184.136719 C 119.042969 188.226562 100.503906 190.972656 77.96875 192.8125 C 56.648438 194.53125 41.667969 204.207031 34.675781 220.777344 C 29.777344 232.328125 29.121094 244.71875 28.839844 257.484375 C 28.621094 267.222656 28.589844 276.992188 28.714844 286.480469 C 30.058594 396.21875 53.0625 488.855469 97.132812 561.859375 C 114.546875 590.730469 136.238281 617.980469 161.585938 642.855469 C 185.304688 666.136719 212.273438 687.425781 241.796875 706.152344 C 258.183594 716.546875 275.976562 726.066406 295.203125 726.066406 C 296.324219 726.066406 297.449219 726.035156 298.570312 725.972656 C 315.457031 724.972656 330.5625 716.546875 344.359375 707.554688 C 380.035156 684.304688 412.746094 655.121094 441.585938 620.757812 C 469.738281 587.171875 493.582031 549.46875 512.371094 508.675781 C 548.734375 429.835938 566.554688 339.257812 563.933594 246.714844 " fill-opacity="1" fill-rule="nonzero"/></g><path fill="#13334d" d="M 411.683594 367.847656 C 411.214844 370.78125 409.03125 373.0625 406.9375 375.152344 C 363.617188 418.472656 320.390625 461.859375 277.097656 505.179688 C 273.414062 508.863281 268.765625 512.859375 263.707031 511.703125 C 260.898438 511.046875 258.714844 508.925781 256.6875 506.894531 C 233.339844 483.519531 209.992188 460.171875 186.648438 436.796875 C 183.929688 434.078125 181.027344 430.925781 181.027344 427.089844 C 181.058594 423.34375 183.871094 420.253906 186.523438 417.601562 C 193.574219 410.453125 200.628906 403.335938 207.683594 396.1875 C 210.492188 393.347656 213.738281 390.320312 217.734375 390.164062 C 222.164062 389.945312 225.847656 393.316406 228.96875 396.46875 C 241.328125 408.859375 253.691406 421.25 266.050781 433.613281 C 298.789062 400.808594 331.53125 367.972656 364.273438 335.167969 C 367.082031 332.359375 370.265625 329.394531 374.230469 329.238281 C 378.597656 329.082031 382.1875 332.421875 385.277344 335.511719 C 392.113281 342.410156 398.980469 349.339844 405.847656 356.269531 C 409 359.484375 412.433594 363.417969 411.683594 367.847656 Z M 475.480469 285.542969 C 475.417969 280.613281 471.671875 276.460938 466.742188 276.054688 C 466.742188 276.023438 466.710938 276.023438 466.679688 276.023438 C 408 271.1875 353.410156 253.582031 305.03125 216.941406 C 298.167969 211.757812 293.109375 214.816406 287.304688 218.8125 C 268.828125 231.609375 249.414062 242.441406 228.9375 251.429688 C 196.324219 265.722656 161.957031 271.3125 126.222656 276.117188 C 121.539062 276.742188 118.011719 280.613281 117.824219 285.324219 C 116.546875 316.097656 117.542969 345.15625 121.226562 374.089844 C 135.367188 485.140625 185.742188 569.820312 280.5 622.410156 C 292.390625 628.996094 301.507812 628.371094 313.148438 620.632812 C 383.28125 574.03125 431.285156 509.238281 456.003906 425.433594 C 469.425781 379.957031 476.199219 333.328125 475.480469 285.542969 " fill-opacity="1" fill-rule="nonzero"/></svg>