<svg xmlns="http://www.w3.org/2000/svg" xmlns:xlink="http://www.w3.org/1999/xlink" width="793" zoomAndPan="magnify" viewBox="0 0 595.5 842.249979" height="1122" preserveAspectRatio="xMidYMid meet" version="1.0"><defs><clipPath id="258cdc8b33"><path d="M 0.015625 0 L 594.984375 0 L 594.984375 841.5 L 0.015625 841.5 Z M 0.015625 0 " clip-rule="nonzero"/></clipPath><clipPath id="a0f6250921"><path d="M 0.015625 0 L 594.753906 0 L 594.753906 841.136719 L 0.015625 841.136719 Z M 0.015625 0 " clip-rule="nonzero"/></clipPath><linearGradient x1="0.00519078" gradientTransform="matrix(0.74933, 0, 0, 0.74933, 0.0112425, 0)" y1="561.26001" x2="793.700961" gradientUnits="userSpaceOnUse" y2="561.26001" id="7cce168aa1"><stop stop-opacity="1" stop-color="rgb(19.198608%, 29.798889%, 38.398743%)" offset="0"/><stop stop-opacity="1" stop-color="rgb(19.239807%, 29.881287%, 38.513184%)" offset="0.0078125"/><stop stop-opacity="1" stop-color="rgb(19.32373%, 30.047607%, 38.743591%)" offset="0.015625"/><stop stop-opacity="1" stop-color="rgb(19.406128%, 30.212402%, 38.973999%)" offset="0.0234375"/><stop stop-opacity="1" stop-color="rgb(19.488525%, 30.378723%, 39.202881%)" offset="0.03125"/><stop stop-opacity="1" stop-color="rgb(19.572449%, 30.543518%, 39.433289%)" offset="0.0390625"/><stop stop-opacity="1" stop-color="rgb(19.654846%, 30.709839%, 39.66217%)" offset="0.046875"/><stop stop-opacity="1" stop-color="rgb(19.737244%, 30.87616%, 39.892578%)" offset="0.0546875"/><stop stop-opacity="1" stop-color="rgb(19.819641%, 31.040955%, 40.12146%)" offset="0.0625"/><stop stop-opacity="1" stop-color="rgb(19.903564%, 31.207275%, 40.351868%)" offset="0.0703125"/><stop stop-opacity="1" stop-color="rgb(19.985962%, 31.37207%, 40.58075%)" offset="0.078125"/><stop stop-opacity="1" stop-color="rgb(20.068359%, 31.538391%, 40.811157%)" offset="0.0859375"/><stop stop-opacity="1" stop-color="rgb(20.150757%, 31.703186%, 41.040039%)" offset="0.09375"/><stop stop-opacity="1" stop-color="rgb(20.23468%, 31.869507%, 41.270447%)" offset="0.101562"/><stop stop-opacity="1" stop-color="rgb(20.317078%, 32.034302%, 41.499329%)" offset="0.109375"/><stop stop-opacity="1" stop-color="rgb(20.399475%, 32.200623%, 41.729736%)" offset="0.117187"/><stop stop-opacity="1" stop-color="rgb(20.483398%, 32.365417%, 41.958618%)" offset="0.125"/><stop stop-opacity="1" stop-color="rgb(20.565796%, 32.531738%, 42.189026%)" offset="0.132812"/><stop stop-opacity="1" stop-color="rgb(20.648193%, 32.698059%, 42.417908%)" offset="0.140625"/><stop stop-opacity="1" stop-color="rgb(20.730591%, 32.862854%, 42.648315%)" offset="0.148438"/><stop stop-opacity="1" stop-color="rgb(20.814514%, 33.029175%, 42.877197%)" offset="0.15625"/><stop stop-opacity="1" stop-color="rgb(20.896912%, 33.19397%, 43.107605%)" offset="0.164062"/><stop stop-opacity="1" stop-color="rgb(20.979309%, 33.360291%, 43.338013%)" offset="0.171875"/><stop stop-opacity="1" stop-color="rgb(21.061707%, 33.525085%, 43.566895%)" offset="0.179687"/><stop stop-opacity="1" stop-color="rgb(21.14563%, 33.691406%, 43.797302%)" offset="0.1875"/><stop stop-opacity="1" stop-color="rgb(21.228027%, 33.856201%, 44.026184%)" offset="0.195312"/><stop stop-opacity="1" stop-color="rgb(21.310425%, 34.022522%, 44.256592%)" offset="0.203125"/><stop stop-opacity="1" stop-color="rgb(21.394348%, 34.187317%, 44.485474%)" offset="0.210938"/><stop stop-opacity="1" stop-color="rgb(21.476746%, 34.353638%, 44.715881%)" offset="0.21875"/><stop stop-opacity="1" stop-color="rgb(21.559143%, 34.519958%, 44.944763%)" offset="0.226562"/><stop stop-opacity="1" stop-color="rgb(21.641541%, 34.684753%, 45.175171%)" offset="0.234375"/><stop stop-opacity="1" stop-color="rgb(21.725464%, 34.851074%, 45.404053%)" offset="0.242187"/><stop stop-opacity="1" stop-color="rgb(21.807861%, 35.015869%, 45.63446%)" offset="0.25"/><stop stop-opacity="1" stop-color="rgb(21.890259%, 35.18219%, 45.863342%)" offset="0.257812"/><stop stop-opacity="1" stop-color="rgb(21.972656%, 35.346985%, 46.09375%)" offset="0.265625"/><stop stop-opacity="1" stop-color="rgb(22.05658%, 35.513306%, 46.322632%)" offset="0.273438"/><stop stop-opacity="1" stop-color="rgb(22.138977%, 35.678101%, 46.55304%)" offset="0.28125"/><stop stop-opacity="1" stop-color="rgb(22.221375%, 35.844421%, 46.781921%)" offset="0.289062"/><stop stop-opacity="1" stop-color="rgb(22.305298%, 36.009216%, 47.012329%)" offset="0.296875"/><stop stop-opacity="1" stop-color="rgb(22.387695%, 36.175537%, 47.241211%)" offset="0.304687"/><stop stop-opacity="1" stop-color="rgb(22.470093%, 36.341858%, 47.471619%)" offset="0.3125"/><stop stop-opacity="1" stop-color="rgb(22.55249%, 36.506653%, 47.702026%)" offset="0.320312"/><stop stop-opacity="1" stop-color="rgb(22.636414%, 36.672974%, 47.930908%)" offset="0.328125"/><stop stop-opacity="1" stop-color="rgb(22.718811%, 36.837769%, 48.161316%)" offset="0.335937"/><stop stop-opacity="1" stop-color="rgb(22.801208%, 37.004089%, 48.390198%)" offset="0.34375"/><stop stop-opacity="1" stop-color="rgb(22.883606%, 37.168884%, 48.620605%)" offset="0.351562"/><stop stop-opacity="1" stop-color="rgb(22.967529%, 37.335205%, 48.849487%)" offset="0.359375"/><stop stop-opacity="1" stop-color="rgb(23.049927%, 37.5%, 49.079895%)" offset="0.367188"/><stop stop-opacity="1" stop-color="rgb(23.132324%, 37.666321%, 49.308777%)" offset="0.375"/><stop stop-opacity="1" stop-color="rgb(23.214722%, 37.831116%, 49.539185%)" offset="0.382812"/><stop stop-opacity="1" stop-color="rgb(23.298645%, 37.997437%, 49.768066%)" offset="0.390625"/><stop stop-opacity="1" stop-color="rgb(23.381042%, 38.162231%, 49.998474%)" offset="0.398437"/><stop stop-opacity="1" stop-color="rgb(23.46344%, 38.328552%, 50.227356%)" offset="0.40625"/><stop stop-opacity="1" stop-color="rgb(23.547363%, 38.494873%, 50.457764%)" offset="0.414062"/><stop stop-opacity="1" stop-color="rgb(23.629761%, 38.659668%, 50.686646%)" offset="0.421875"/><stop stop-opacity="1" stop-color="rgb(23.712158%, 38.825989%, 50.917053%)" offset="0.429687"/><stop stop-opacity="1" stop-color="rgb(23.794556%, 38.990784%, 51.145935%)" offset="0.4375"/><stop stop-opacity="1" stop-color="rgb(23.878479%, 39.157104%, 51.376343%)" offset="0.445312"/><stop stop-opacity="1" stop-color="rgb(23.960876%, 39.321899%, 51.605225%)" offset="0.453125"/><stop stop-opacity="1" stop-color="rgb(24.043274%, 39.48822%, 51.835632%)" offset="0.460937"/><stop stop-opacity="1" stop-color="rgb(24.125671%, 39.653015%, 52.06604%)" offset="0.46875"/><stop stop-opacity="1" stop-color="rgb(24.209595%, 39.819336%, 52.294922%)" offset="0.476562"/><stop stop-opacity="1" stop-color="rgb(24.291992%, 39.984131%, 52.52533%)" offset="0.484375"/><stop stop-opacity="1" stop-color="rgb(24.37439%, 40.150452%, 52.754211%)" offset="0.492187"/><stop stop-opacity="1" stop-color="rgb(24.458313%, 40.316772%, 52.984619%)" offset="0.5"/><stop stop-opacity="1" stop-color="rgb(24.54071%, 40.481567%, 53.213501%)" offset="0.507812"/><stop stop-opacity="1" stop-color="rgb(24.623108%, 40.647888%, 53.443909%)" offset="0.515625"/><stop stop-opacity="1" stop-color="rgb(24.705505%, 40.812683%, 53.672791%)" offset="0.523437"/><stop stop-opacity="1" stop-color="rgb(24.789429%, 40.979004%, 53.903198%)" offset="0.53125"/><stop stop-opacity="1" stop-color="rgb(24.871826%, 41.143799%, 54.13208%)" offset="0.539062"/><stop stop-opacity="1" stop-color="rgb(24.954224%, 41.31012%, 54.362488%)" offset="0.546875"/><stop stop-opacity="1" stop-color="rgb(25.036621%, 41.474915%, 54.59137%)" offset="0.554688"/><stop stop-opacity="1" stop-color="rgb(25.120544%, 41.641235%, 54.821777%)" offset="0.5625"/><stop stop-opacity="1" stop-color="rgb(25.202942%, 41.80603%, 55.050659%)" offset="0.570312"/><stop stop-opacity="1" stop-color="rgb(25.285339%, 41.972351%, 55.281067%)" offset="0.578125"/><stop stop-opacity="1" stop-color="rgb(25.369263%, 42.138672%, 55.509949%)" offset="0.585938"/><stop stop-opacity="1" stop-color="rgb(25.45166%, 42.303467%, 55.740356%)" offset="0.59375"/><stop stop-opacity="1" stop-color="rgb(25.534058%, 42.469788%, 55.970764%)" offset="0.601562"/><stop stop-opacity="1" stop-color="rgb(25.616455%, 42.634583%, 56.199646%)" offset="0.609375"/><stop stop-opacity="1" stop-color="rgb(25.700378%, 42.800903%, 56.430054%)" offset="0.617187"/><stop stop-opacity="1" stop-color="rgb(25.782776%, 42.965698%, 56.658936%)" offset="0.625"/><stop stop-opacity="1" stop-color="rgb(25.865173%, 43.132019%, 56.889343%)" offset="0.632812"/><stop stop-opacity="1" stop-color="rgb(25.947571%, 43.296814%, 57.118225%)" offset="0.640625"/><stop stop-opacity="1" stop-color="rgb(26.031494%, 43.463135%, 57.348633%)" offset="0.648438"/><stop stop-opacity="1" stop-color="rgb(26.113892%, 43.62793%, 57.577515%)" offset="0.65625"/><stop stop-opacity="1" stop-color="rgb(26.196289%, 43.79425%, 57.807922%)" offset="0.664062"/><stop stop-opacity="1" stop-color="rgb(26.280212%, 43.959045%, 58.036804%)" offset="0.671875"/><stop stop-opacity="1" stop-color="rgb(26.36261%, 44.125366%, 58.267212%)" offset="0.679688"/><stop stop-opacity="1" stop-color="rgb(26.445007%, 44.291687%, 58.496094%)" offset="0.6875"/><stop stop-opacity="1" stop-color="rgb(26.527405%, 44.456482%, 58.726501%)" offset="0.695312"/><stop stop-opacity="1" stop-color="rgb(26.611328%, 44.622803%, 58.955383%)" offset="0.703125"/><stop stop-opacity="1" stop-color="rgb(26.693726%, 44.787598%, 59.185791%)" offset="0.710937"/><stop stop-opacity="1" stop-color="rgb(26.776123%, 44.953918%, 59.414673%)" offset="0.71875"/><stop stop-opacity="1" stop-color="rgb(26.858521%, 45.118713%, 59.645081%)" offset="0.726562"/><stop stop-opacity="1" stop-color="rgb(26.942444%, 45.285034%, 59.873962%)" offset="0.734375"/><stop stop-opacity="1" stop-color="rgb(27.024841%, 45.449829%, 60.10437%)" offset="0.742188"/><stop stop-opacity="1" stop-color="rgb(27.107239%, 45.61615%, 60.334778%)" offset="0.75"/><stop stop-opacity="1" stop-color="rgb(27.191162%, 45.780945%, 60.56366%)" offset="0.757812"/><stop stop-opacity="1" stop-color="rgb(27.27356%, 45.947266%, 60.794067%)" offset="0.765625"/><stop stop-opacity="1" stop-color="rgb(27.355957%, 46.113586%, 61.022949%)" offset="0.773438"/><stop stop-opacity="1" stop-color="rgb(27.438354%, 46.278381%, 61.253357%)" offset="0.78125"/><stop stop-opacity="1" stop-color="rgb(27.522278%, 46.444702%, 61.482239%)" offset="0.789063"/><stop stop-opacity="1" stop-color="rgb(27.604675%, 46.609497%, 61.712646%)" offset="0.796875"/><stop stop-opacity="1" stop-color="rgb(27.687073%, 46.775818%, 61.941528%)" offset="0.804688"/><stop stop-opacity="1" stop-color="rgb(27.76947%, 46.940613%, 62.171936%)" offset="0.8125"/><stop stop-opacity="1" stop-color="rgb(27.853394%, 47.106934%, 62.400818%)" offset="0.820312"/><stop stop-opacity="1" stop-color="rgb(27.935791%, 47.271729%, 62.631226%)" offset="0.828125"/><stop stop-opacity="1" stop-color="rgb(28.018188%, 47.438049%, 62.860107%)" offset="0.835938"/><stop stop-opacity="1" stop-color="rgb(28.102112%, 47.602844%, 63.090515%)" offset="0.84375"/><stop stop-opacity="1" stop-color="rgb(28.184509%, 47.769165%, 63.319397%)" offset="0.851562"/><stop stop-opacity="1" stop-color="rgb(28.266907%, 47.935486%, 63.549805%)" offset="0.859375"/><stop stop-opacity="1" stop-color="rgb(28.349304%, 48.100281%, 63.778687%)" offset="0.867188"/><stop stop-opacity="1" stop-color="rgb(28.433228%, 48.266602%, 64.009094%)" offset="0.875"/><stop stop-opacity="1" stop-color="rgb(28.515625%, 48.431396%, 64.237976%)" offset="0.882813"/><stop stop-opacity="1" stop-color="rgb(28.598022%, 48.597717%, 64.468384%)" offset="0.890625"/><stop stop-opacity="1" stop-color="rgb(28.68042%, 48.762512%, 64.698792%)" offset="0.898438"/><stop stop-opacity="1" stop-color="rgb(28.764343%, 48.928833%, 64.927673%)" offset="0.90625"/><stop stop-opacity="1" stop-color="rgb(28.846741%, 49.093628%, 65.158081%)" offset="0.914062"/><stop stop-opacity="1" stop-color="rgb(28.929138%, 49.259949%, 65.386963%)" offset="0.921875"/><stop stop-opacity="1" stop-color="rgb(29.013062%, 49.424744%, 65.617371%)" offset="0.929688"/><stop stop-opacity="1" stop-color="rgb(29.095459%, 49.591064%, 65.846252%)" offset="0.9375"/><stop stop-opacity="1" stop-color="rgb(29.177856%, 49.757385%, 66.07666%)" offset="0.945312"/><stop stop-opacity="1" stop-color="rgb(29.260254%, 49.92218%, 66.305542%)" offset="0.953125"/><stop stop-opacity="1" stop-color="rgb(29.344177%, 50.088501%, 66.53595%)" offset="0.960938"/><stop stop-opacity="1" stop-color="rgb(29.426575%, 50.253296%, 66.764832%)" offset="0.96875"/><stop stop-opacity="1" stop-color="rgb(29.508972%, 50.419617%, 66.995239%)" offset="0.976563"/><stop stop-opacity="1" stop-color="rgb(29.59137%, 50.584412%, 67.224121%)" offset="0.984375"/><stop stop-opacity="1" stop-color="rgb(29.675293%, 50.750732%, 67.454529%)" offset="0.992188"/><stop stop-opacity="1" stop-color="rgb(29.75769%, 50.915527%, 67.683411%)" offset="1"/></linearGradient><clipPath id="d7dfc1d030"><path d="M 33.664062 156.847656 L 561.195312 156.847656 L 561.195312 317.953125 L 33.664062 317.953125 Z M 33.664062 156.847656 " clip-rule="nonzero"/></clipPath><clipPath id="67c00c2764"><path d="M 33.664062 156.847656 L 151.3125 156.847656 L 151.3125 684.378906 L 33.664062 684.378906 Z M 33.664062 156.847656 " clip-rule="nonzero"/></clipPath><clipPath id="e99603354a"><path d="M 447.128906 156.847656 L 561.027344 156.847656 L 561.027344 684.378906 L 447.128906 684.378906 Z M 447.128906 156.847656 " clip-rule="nonzero"/></clipPath><clipPath id="567fb6fcd7"><path d="M 33.664062 521.308594 L 561.195312 521.308594 L 561.195312 684.378906 L 33.664062 684.378906 Z M 33.664062 521.308594 " clip-rule="nonzero"/></clipPath><clipPath id="1be3670378"><path d="M 140.277344 289.578125 L 454.246094 289.578125 L 454.246094 551.84375 L 140.277344 551.84375 Z M 140.277344 289.578125 " clip-rule="nonzero"/></clipPath></defs><g clip-path="url(#258cdc8b33)"><path fill="#ffffff" d="M 0.015625 0 L 594.984375 0 L 594.984375 841.5 L 0.015625 841.5 Z M 0.015625 0 " fill-opacity="1" fill-rule="nonzero"/></g><g clip-path="url(#a0f6250921)"><path fill="url(#7cce168aa1)" d="M 0.015625 0 L 0.015625 841.136719 L 594.753906 841.136719 L 594.753906 0 Z M 0.015625 0 " fill-rule="nonzero"/></g><g clip-path="url(#d7dfc1d030)"><path fill="#ffffff" d="M 297.359375 167.4375 C 157.804688 167.4375 44.253906 280.980469 44.253906 420.542969 C 44.257812 560.101562 157.800781 673.644531 297.359375 673.644531 C 436.914062 673.644531 550.460938 560.101562 550.460938 420.542969 C 550.460938 280.976562 436.914062 167.4375 297.359375 167.4375 Z M 297.359375 684.230469 C 151.957031 684.230469 33.664062 565.941406 33.664062 420.539062 C 33.667969 275.140625 151.957031 156.847656 297.359375 156.847656 C 442.761719 156.847656 561.050781 275.140625 561.050781 420.539062 C 561.050781 565.9375 442.761719 684.234375 297.359375 684.230469 Z M 297.359375 684.230469 " fill-opacity="1" fill-rule="evenodd"/></g><g clip-path="url(#67c00c2764)"><path fill="#ffffff" d="M 297.359375 167.4375 C 157.804688 167.4375 44.253906 280.980469 44.253906 420.542969 C 44.257812 560.101562 157.800781 673.644531 297.359375 673.644531 C 436.914062 673.644531 550.460938 560.101562 550.460938 420.542969 C 550.460938 280.976562 436.914062 167.4375 297.359375 167.4375 Z M 297.359375 684.230469 C 151.957031 684.230469 33.664062 565.941406 33.664062 420.539062 C 33.667969 275.140625 151.957031 156.847656 297.359375 156.847656 C 442.761719 156.847656 561.050781 275.140625 561.050781 420.539062 C 561.050781 565.9375 442.761719 684.234375 297.359375 684.230469 Z M 297.359375 684.230469 " fill-opacity="1" fill-rule="evenodd"/></g><g clip-path="url(#e99603354a)"><path fill="#ffffff" d="M 297.359375 167.4375 C 157.804688 167.4375 44.253906 280.980469 44.253906 420.542969 C 44.257812 560.101562 157.800781 673.644531 297.359375 673.644531 C 436.914062 673.644531 550.460938 560.101562 550.460938 420.542969 C 550.460938 280.976562 436.914062 167.4375 297.359375 167.4375 Z M 297.359375 684.230469 C 151.957031 684.230469 33.664062 565.941406 33.664062 420.539062 C 33.667969 275.140625 151.957031 156.847656 297.359375 156.847656 C 442.761719 156.847656 561.050781 275.140625 561.050781 420.539062 C 561.050781 565.9375 442.761719 684.234375 297.359375 684.230469 Z M 297.359375 684.230469 " fill-opacity="1" fill-rule="evenodd"/></g><g clip-path="url(#567fb6fcd7)"><path fill="#ffffff" d="M 297.359375 167.4375 C 157.804688 167.4375 44.253906 280.980469 44.253906 420.542969 C 44.257812 560.101562 157.800781 673.644531 297.359375 673.644531 C 436.914062 673.644531 550.460938 560.101562 550.460938 420.542969 C 550.460938 280.976562 436.914062 167.4375 297.359375 167.4375 Z M 297.359375 684.230469 C 151.957031 684.230469 33.664062 565.941406 33.664062 420.539062 C 33.667969 275.140625 151.957031 156.847656 297.359375 156.847656 C 442.761719 156.847656 561.050781 275.140625 561.050781 420.539062 C 561.050781 565.9375 442.761719 684.234375 297.359375 684.230469 Z M 297.359375 684.230469 " fill-opacity="1" fill-rule="evenodd"/></g><path fill="#ffffff" d="M 293.796875 449.308594 C 293.792969 449.308594 293.789062 449.308594 293.78125 449.308594 C 276.179688 449.304688 267.253906 425.507812 266.5 415.585938 C 264.9375 395.101562 274.34375 380.988281 294.796875 380.988281 C 315.210938 380.988281 324.660156 395.0625 323.09375 415.585938 C 322.203125 427.347656 312.691406 449.308594 293.796875 449.308594 Z M 294.800781 392.378906 C 281.015625 392.378906 276.8125 401.085938 277.851562 414.71875 C 278.390625 421.804688 284.972656 437.921875 293.785156 437.921875 L 293.789062 437.921875 C 293.792969 437.921875 293.792969 437.921875 293.792969 437.921875 C 305.164062 437.921875 311.238281 421.324219 311.742188 414.71875 C 312.800781 400.917969 308.460938 392.378906 294.800781 392.378906 Z M 294.800781 392.378906 " fill-opacity="1" fill-rule="nonzero"/><g clip-path="url(#1be3670378)"><path fill="#ffffff" d="M 454.25 370.496094 L 454.25 311.226562 C 454.25 299.65625 444.417969 290.183594 432.109375 289.644531 L 341.722656 289.621094 C 328.425781 289.621094 317.609375 299.316406 317.609375 311.226562 L 317.609375 346.554688 L 171.484375 346.554688 C 164.160156 346.554688 158.195312 352.953125 158.195312 360.8125 L 158.195312 505.96875 L 153.136719 505.96875 C 146.089844 505.96875 140.359375 511.394531 140.359375 518.066406 C 140.359375 536.507812 156.683594 551.515625 176.753906 551.515625 L 412.917969 551.515625 C 432.988281 551.515625 449.3125 536.507812 449.3125 518.066406 C 449.3125 511.394531 443.582031 505.96875 436.527344 505.96875 L 431.476562 505.976562 L 431.476562 392.054688 C 444.070312 391.816406 454.25 382.257812 454.25 370.496094 Z M 328.996094 311.226562 C 328.996094 305.589844 334.707031 301.007812 341.722656 301.007812 L 431.011719 301.007812 C 437.546875 301.007812 442.863281 305.59375 442.863281 311.226562 L 442.863281 370.496094 C 442.863281 376.128906 437.546875 380.710938 431.011719 380.710938 L 378.640625 380.710938 C 377.160156 380.710938 375.6875 381.195312 374.480469 382.078125 L 351.769531 398.78125 L 351.769531 387.558594 C 351.769531 383.785156 348.625 380.714844 344.761719 380.714844 L 341.722656 380.714844 C 334.707031 380.714844 328.996094 376.128906 328.996094 370.496094 Z M 436.539062 517.351562 C 442.230469 517.351562 434.253906 540.125 412.917969 540.125 L 176.753906 540.125 C 155.417969 540.125 147.441406 517.351562 153.136719 517.351562 L 247.371094 517.363281 C 251.476562 519.953125 257.585938 523.046875 263.375 523.046875 L 326.320312 523.046875 C 333.054688 523.046875 339.210938 520.976562 342.96875 517.53125 C 342.96875 517.53125 340.878906 517.519531 436.539062 517.351562 Z M 239.070312 505.964844 C 243.601562 486.386719 261.320312 471.804688 281.925781 471.804688 L 307.75 471.804688 C 328.40625 471.804688 346.164062 486.464844 350.640625 506.117188 L 343.09375 506.128906 C 335.378906 506.144531 336.445312 511.660156 326.324219 511.660156 L 263.375 511.660156 C 257.363281 511.660156 253.550781 505.964844 247.398438 505.964844 Z M 362.292969 506.09375 C 357.644531 480.105469 334.617188 460.417969 307.75 460.417969 L 281.925781 460.417969 C 255.101562 460.417969 232.097656 480.039062 227.398438 505.964844 L 169.582031 505.964844 L 169.582031 360.8125 C 169.582031 359.167969 170.585938 357.9375 171.480469 357.9375 L 317.609375 357.9375 L 317.609375 370.492188 C 317.609375 382.003906 327.703125 391.4375 340.382812 392.066406 L 340.382812 408.609375 C 340.382812 413.878906 346.382812 416.875 350.589844 413.777344 L 380.066406 392.097656 L 420.085938 392.097656 L 420.085938 505.992188 Z M 362.292969 506.09375 " fill-opacity="1" fill-rule="nonzero"/></g><path fill="#ffffff" d="M 357.464844 323.777344 L 346.078125 323.777344 C 338.554688 323.777344 338.546875 312.394531 346.078125 312.394531 L 357.464844 312.394531 C 364.984375 312.394531 364.996094 323.777344 357.464844 323.777344 Z M 357.464844 323.777344 " fill-opacity="1" fill-rule="nonzero"/><path fill="#ffffff" d="M 425.785156 323.777344 L 374.542969 323.777344 C 367.023438 323.777344 367.011719 312.394531 374.542969 312.394531 L 425.785156 312.394531 C 433.304688 312.394531 433.316406 323.777344 425.785156 323.777344 Z M 425.785156 323.777344 " fill-opacity="1" fill-rule="nonzero"/><path fill="#ffffff" d="M 425.785156 346.554688 L 346.078125 346.554688 C 338.554688 346.554688 338.546875 335.167969 346.078125 335.167969 L 425.785156 335.167969 C 433.304688 335.167969 433.316406 346.554688 425.785156 346.554688 Z M 425.785156 346.554688 " fill-opacity="1" fill-rule="nonzero"/><path fill="#ffffff" d="M 391.621094 369.328125 L 346.078125 369.328125 C 338.554688 369.328125 338.546875 357.941406 346.078125 357.941406 L 391.621094 357.941406 C 399.144531 357.941406 399.15625 369.328125 391.621094 369.328125 Z M 391.621094 369.328125 " fill-opacity="1" fill-rule="nonzero"/></svg>